G04 #@! TF.GenerationSoftware,KiCad,Pcbnew,9.0.5*
G04 #@! TF.CreationDate,2025-12-10T00:56:02+00:00*
G04 #@! TF.ProjectId,Controlo_Luminosidade,436f6e74-726f-46c6-9f5f-4c756d696e6f,rev?*
G04 #@! TF.SameCoordinates,Original*
G04 #@! TF.FileFunction,Legend,Bot*
G04 #@! TF.FilePolarity,Positive*
%FSLAX46Y46*%
G04 Gerber Fmt 4.6, Leading zero omitted, Abs format (unit mm)*
G04 Created by KiCad (PCBNEW 9.0.5) date 2025-12-10 00:56:02*
%MOMM*%
%LPD*%
G01*
G04 APERTURE LIST*
%ADD10C,0.152400*%
G04 APERTURE END LIST*
D10*
X176686213Y-125285479D02*
X176686213Y-124472679D01*
X176686213Y-124472679D02*
X176376575Y-124472679D01*
X176376575Y-124472679D02*
X176299165Y-124511384D01*
X176299165Y-124511384D02*
X176260460Y-124550089D01*
X176260460Y-124550089D02*
X176221756Y-124627498D01*
X176221756Y-124627498D02*
X176221756Y-124743613D01*
X176221756Y-124743613D02*
X176260460Y-124821022D01*
X176260460Y-124821022D02*
X176299165Y-124859727D01*
X176299165Y-124859727D02*
X176376575Y-124898432D01*
X176376575Y-124898432D02*
X176686213Y-124898432D01*
X175408956Y-125285479D02*
X175679889Y-124898432D01*
X175873413Y-125285479D02*
X175873413Y-124472679D01*
X175873413Y-124472679D02*
X175563775Y-124472679D01*
X175563775Y-124472679D02*
X175486365Y-124511384D01*
X175486365Y-124511384D02*
X175447660Y-124550089D01*
X175447660Y-124550089D02*
X175408956Y-124627498D01*
X175408956Y-124627498D02*
X175408956Y-124743613D01*
X175408956Y-124743613D02*
X175447660Y-124821022D01*
X175447660Y-124821022D02*
X175486365Y-124859727D01*
X175486365Y-124859727D02*
X175563775Y-124898432D01*
X175563775Y-124898432D02*
X175873413Y-124898432D01*
X174905794Y-124472679D02*
X174750975Y-124472679D01*
X174750975Y-124472679D02*
X174673565Y-124511384D01*
X174673565Y-124511384D02*
X174596156Y-124588794D01*
X174596156Y-124588794D02*
X174557451Y-124743613D01*
X174557451Y-124743613D02*
X174557451Y-125014546D01*
X174557451Y-125014546D02*
X174596156Y-125169365D01*
X174596156Y-125169365D02*
X174673565Y-125246775D01*
X174673565Y-125246775D02*
X174750975Y-125285479D01*
X174750975Y-125285479D02*
X174905794Y-125285479D01*
X174905794Y-125285479D02*
X174983203Y-125246775D01*
X174983203Y-125246775D02*
X175060613Y-125169365D01*
X175060613Y-125169365D02*
X175099317Y-125014546D01*
X175099317Y-125014546D02*
X175099317Y-124743613D01*
X175099317Y-124743613D02*
X175060613Y-124588794D01*
X175060613Y-124588794D02*
X174983203Y-124511384D01*
X174983203Y-124511384D02*
X174905794Y-124472679D01*
X173976879Y-124472679D02*
X173976879Y-125053251D01*
X173976879Y-125053251D02*
X174015584Y-125169365D01*
X174015584Y-125169365D02*
X174092993Y-125246775D01*
X174092993Y-125246775D02*
X174209108Y-125285479D01*
X174209108Y-125285479D02*
X174286517Y-125285479D01*
X173589832Y-124859727D02*
X173318898Y-124859727D01*
X173202784Y-125285479D02*
X173589832Y-125285479D01*
X173589832Y-125285479D02*
X173589832Y-124472679D01*
X173589832Y-124472679D02*
X173202784Y-124472679D01*
X172970556Y-124472679D02*
X172506099Y-124472679D01*
X172738327Y-125285479D02*
X172738327Y-124472679D01*
X172080347Y-124472679D02*
X171925528Y-124472679D01*
X171925528Y-124472679D02*
X171848118Y-124511384D01*
X171848118Y-124511384D02*
X171770709Y-124588794D01*
X171770709Y-124588794D02*
X171732004Y-124743613D01*
X171732004Y-124743613D02*
X171732004Y-125014546D01*
X171732004Y-125014546D02*
X171770709Y-125169365D01*
X171770709Y-125169365D02*
X171848118Y-125246775D01*
X171848118Y-125246775D02*
X171925528Y-125285479D01*
X171925528Y-125285479D02*
X172080347Y-125285479D01*
X172080347Y-125285479D02*
X172157756Y-125246775D01*
X172157756Y-125246775D02*
X172235166Y-125169365D01*
X172235166Y-125169365D02*
X172273870Y-125014546D01*
X172273870Y-125014546D02*
X172273870Y-124743613D01*
X172273870Y-124743613D02*
X172235166Y-124588794D01*
X172235166Y-124588794D02*
X172157756Y-124511384D01*
X172157756Y-124511384D02*
X172080347Y-124472679D01*
X170764385Y-124975841D02*
X170145109Y-124975841D01*
X168751737Y-125285479D02*
X169138785Y-125285479D01*
X169138785Y-125285479D02*
X169138785Y-124472679D01*
X168519508Y-125053251D02*
X168132461Y-125053251D01*
X168596918Y-125285479D02*
X168325985Y-124472679D01*
X168325985Y-124472679D02*
X168055051Y-125285479D01*
X167513184Y-124859727D02*
X167397070Y-124898432D01*
X167397070Y-124898432D02*
X167358365Y-124937136D01*
X167358365Y-124937136D02*
X167319661Y-125014546D01*
X167319661Y-125014546D02*
X167319661Y-125130660D01*
X167319661Y-125130660D02*
X167358365Y-125208070D01*
X167358365Y-125208070D02*
X167397070Y-125246775D01*
X167397070Y-125246775D02*
X167474480Y-125285479D01*
X167474480Y-125285479D02*
X167784118Y-125285479D01*
X167784118Y-125285479D02*
X167784118Y-124472679D01*
X167784118Y-124472679D02*
X167513184Y-124472679D01*
X167513184Y-124472679D02*
X167435775Y-124511384D01*
X167435775Y-124511384D02*
X167397070Y-124550089D01*
X167397070Y-124550089D02*
X167358365Y-124627498D01*
X167358365Y-124627498D02*
X167358365Y-124704908D01*
X167358365Y-124704908D02*
X167397070Y-124782317D01*
X167397070Y-124782317D02*
X167435775Y-124821022D01*
X167435775Y-124821022D02*
X167513184Y-124859727D01*
X167513184Y-124859727D02*
X167784118Y-124859727D01*
X167010022Y-125246775D02*
X166893908Y-125285479D01*
X166893908Y-125285479D02*
X166700384Y-125285479D01*
X166700384Y-125285479D02*
X166622975Y-125246775D01*
X166622975Y-125246775D02*
X166584270Y-125208070D01*
X166584270Y-125208070D02*
X166545565Y-125130660D01*
X166545565Y-125130660D02*
X166545565Y-125053251D01*
X166545565Y-125053251D02*
X166584270Y-124975841D01*
X166584270Y-124975841D02*
X166622975Y-124937136D01*
X166622975Y-124937136D02*
X166700384Y-124898432D01*
X166700384Y-124898432D02*
X166855203Y-124859727D01*
X166855203Y-124859727D02*
X166932613Y-124821022D01*
X166932613Y-124821022D02*
X166971318Y-124782317D01*
X166971318Y-124782317D02*
X167010022Y-124704908D01*
X167010022Y-124704908D02*
X167010022Y-124627498D01*
X167010022Y-124627498D02*
X166971318Y-124550089D01*
X166971318Y-124550089D02*
X166932613Y-124511384D01*
X166932613Y-124511384D02*
X166855203Y-124472679D01*
X166855203Y-124472679D02*
X166661680Y-124472679D01*
X166661680Y-124472679D02*
X166545565Y-124511384D01*
X166197223Y-125285479D02*
X166197223Y-124472679D01*
X176221756Y-126516632D02*
X176260460Y-126555337D01*
X176260460Y-126555337D02*
X176376575Y-126594041D01*
X176376575Y-126594041D02*
X176453984Y-126594041D01*
X176453984Y-126594041D02*
X176570098Y-126555337D01*
X176570098Y-126555337D02*
X176647508Y-126477927D01*
X176647508Y-126477927D02*
X176686213Y-126400517D01*
X176686213Y-126400517D02*
X176724917Y-126245698D01*
X176724917Y-126245698D02*
X176724917Y-126129584D01*
X176724917Y-126129584D02*
X176686213Y-125974765D01*
X176686213Y-125974765D02*
X176647508Y-125897356D01*
X176647508Y-125897356D02*
X176570098Y-125819946D01*
X176570098Y-125819946D02*
X176453984Y-125781241D01*
X176453984Y-125781241D02*
X176376575Y-125781241D01*
X176376575Y-125781241D02*
X176260460Y-125819946D01*
X176260460Y-125819946D02*
X176221756Y-125858651D01*
X175757298Y-126594041D02*
X175834708Y-126555337D01*
X175834708Y-126555337D02*
X175873413Y-126516632D01*
X175873413Y-126516632D02*
X175912117Y-126439222D01*
X175912117Y-126439222D02*
X175912117Y-126206994D01*
X175912117Y-126206994D02*
X175873413Y-126129584D01*
X175873413Y-126129584D02*
X175834708Y-126090879D01*
X175834708Y-126090879D02*
X175757298Y-126052175D01*
X175757298Y-126052175D02*
X175641184Y-126052175D01*
X175641184Y-126052175D02*
X175563775Y-126090879D01*
X175563775Y-126090879D02*
X175525070Y-126129584D01*
X175525070Y-126129584D02*
X175486365Y-126206994D01*
X175486365Y-126206994D02*
X175486365Y-126439222D01*
X175486365Y-126439222D02*
X175525070Y-126516632D01*
X175525070Y-126516632D02*
X175563775Y-126555337D01*
X175563775Y-126555337D02*
X175641184Y-126594041D01*
X175641184Y-126594041D02*
X175757298Y-126594041D01*
X175138023Y-126052175D02*
X175138023Y-126594041D01*
X175138023Y-126129584D02*
X175099318Y-126090879D01*
X175099318Y-126090879D02*
X175021908Y-126052175D01*
X175021908Y-126052175D02*
X174905794Y-126052175D01*
X174905794Y-126052175D02*
X174828385Y-126090879D01*
X174828385Y-126090879D02*
X174789680Y-126168289D01*
X174789680Y-126168289D02*
X174789680Y-126594041D01*
X174518747Y-126052175D02*
X174209109Y-126052175D01*
X174402633Y-125781241D02*
X174402633Y-126477927D01*
X174402633Y-126477927D02*
X174363928Y-126555337D01*
X174363928Y-126555337D02*
X174286518Y-126594041D01*
X174286518Y-126594041D02*
X174209109Y-126594041D01*
X173938176Y-126594041D02*
X173938176Y-126052175D01*
X173938176Y-126206994D02*
X173899471Y-126129584D01*
X173899471Y-126129584D02*
X173860766Y-126090879D01*
X173860766Y-126090879D02*
X173783357Y-126052175D01*
X173783357Y-126052175D02*
X173705947Y-126052175D01*
X173318899Y-126594041D02*
X173396309Y-126555337D01*
X173396309Y-126555337D02*
X173435014Y-126516632D01*
X173435014Y-126516632D02*
X173473718Y-126439222D01*
X173473718Y-126439222D02*
X173473718Y-126206994D01*
X173473718Y-126206994D02*
X173435014Y-126129584D01*
X173435014Y-126129584D02*
X173396309Y-126090879D01*
X173396309Y-126090879D02*
X173318899Y-126052175D01*
X173318899Y-126052175D02*
X173202785Y-126052175D01*
X173202785Y-126052175D02*
X173125376Y-126090879D01*
X173125376Y-126090879D02*
X173086671Y-126129584D01*
X173086671Y-126129584D02*
X173047966Y-126206994D01*
X173047966Y-126206994D02*
X173047966Y-126439222D01*
X173047966Y-126439222D02*
X173086671Y-126516632D01*
X173086671Y-126516632D02*
X173125376Y-126555337D01*
X173125376Y-126555337D02*
X173202785Y-126594041D01*
X173202785Y-126594041D02*
X173318899Y-126594041D01*
X172583509Y-126594041D02*
X172660919Y-126555337D01*
X172660919Y-126555337D02*
X172699624Y-126477927D01*
X172699624Y-126477927D02*
X172699624Y-125781241D01*
X172157757Y-126594041D02*
X172235167Y-126555337D01*
X172235167Y-126555337D02*
X172273872Y-126516632D01*
X172273872Y-126516632D02*
X172312576Y-126439222D01*
X172312576Y-126439222D02*
X172312576Y-126206994D01*
X172312576Y-126206994D02*
X172273872Y-126129584D01*
X172273872Y-126129584D02*
X172235167Y-126090879D01*
X172235167Y-126090879D02*
X172157757Y-126052175D01*
X172157757Y-126052175D02*
X172041643Y-126052175D01*
X172041643Y-126052175D02*
X171964234Y-126090879D01*
X171964234Y-126090879D02*
X171925529Y-126129584D01*
X171925529Y-126129584D02*
X171886824Y-126206994D01*
X171886824Y-126206994D02*
X171886824Y-126439222D01*
X171886824Y-126439222D02*
X171925529Y-126516632D01*
X171925529Y-126516632D02*
X171964234Y-126555337D01*
X171964234Y-126555337D02*
X172041643Y-126594041D01*
X172041643Y-126594041D02*
X172157757Y-126594041D01*
X170570863Y-126594041D02*
X170570863Y-125781241D01*
X170570863Y-126555337D02*
X170648272Y-126594041D01*
X170648272Y-126594041D02*
X170803091Y-126594041D01*
X170803091Y-126594041D02*
X170880501Y-126555337D01*
X170880501Y-126555337D02*
X170919206Y-126516632D01*
X170919206Y-126516632D02*
X170957910Y-126439222D01*
X170957910Y-126439222D02*
X170957910Y-126206994D01*
X170957910Y-126206994D02*
X170919206Y-126129584D01*
X170919206Y-126129584D02*
X170880501Y-126090879D01*
X170880501Y-126090879D02*
X170803091Y-126052175D01*
X170803091Y-126052175D02*
X170648272Y-126052175D01*
X170648272Y-126052175D02*
X170570863Y-126090879D01*
X169874178Y-126555337D02*
X169951587Y-126594041D01*
X169951587Y-126594041D02*
X170106406Y-126594041D01*
X170106406Y-126594041D02*
X170183816Y-126555337D01*
X170183816Y-126555337D02*
X170222520Y-126477927D01*
X170222520Y-126477927D02*
X170222520Y-126168289D01*
X170222520Y-126168289D02*
X170183816Y-126090879D01*
X170183816Y-126090879D02*
X170106406Y-126052175D01*
X170106406Y-126052175D02*
X169951587Y-126052175D01*
X169951587Y-126052175D02*
X169874178Y-126090879D01*
X169874178Y-126090879D02*
X169835473Y-126168289D01*
X169835473Y-126168289D02*
X169835473Y-126245698D01*
X169835473Y-126245698D02*
X170222520Y-126323108D01*
X168480806Y-126594041D02*
X168867854Y-126594041D01*
X168867854Y-126594041D02*
X168867854Y-125781241D01*
X167861530Y-126052175D02*
X167861530Y-126594041D01*
X168209873Y-126052175D02*
X168209873Y-126477927D01*
X168209873Y-126477927D02*
X168171168Y-126555337D01*
X168171168Y-126555337D02*
X168093758Y-126594041D01*
X168093758Y-126594041D02*
X167977644Y-126594041D01*
X167977644Y-126594041D02*
X167900235Y-126555337D01*
X167900235Y-126555337D02*
X167861530Y-126516632D01*
X167474483Y-126594041D02*
X167474483Y-126052175D01*
X167474483Y-126129584D02*
X167435778Y-126090879D01*
X167435778Y-126090879D02*
X167358368Y-126052175D01*
X167358368Y-126052175D02*
X167242254Y-126052175D01*
X167242254Y-126052175D02*
X167164845Y-126090879D01*
X167164845Y-126090879D02*
X167126140Y-126168289D01*
X167126140Y-126168289D02*
X167126140Y-126594041D01*
X167126140Y-126168289D02*
X167087435Y-126090879D01*
X167087435Y-126090879D02*
X167010026Y-126052175D01*
X167010026Y-126052175D02*
X166893911Y-126052175D01*
X166893911Y-126052175D02*
X166816502Y-126090879D01*
X166816502Y-126090879D02*
X166777797Y-126168289D01*
X166777797Y-126168289D02*
X166777797Y-126594041D01*
X166390750Y-126594041D02*
X166390750Y-126052175D01*
X166390750Y-125781241D02*
X166429454Y-125819946D01*
X166429454Y-125819946D02*
X166390750Y-125858651D01*
X166390750Y-125858651D02*
X166352045Y-125819946D01*
X166352045Y-125819946D02*
X166390750Y-125781241D01*
X166390750Y-125781241D02*
X166390750Y-125858651D01*
X166003702Y-126052175D02*
X166003702Y-126594041D01*
X166003702Y-126129584D02*
X165964997Y-126090879D01*
X165964997Y-126090879D02*
X165887587Y-126052175D01*
X165887587Y-126052175D02*
X165771473Y-126052175D01*
X165771473Y-126052175D02*
X165694064Y-126090879D01*
X165694064Y-126090879D02*
X165655359Y-126168289D01*
X165655359Y-126168289D02*
X165655359Y-126594041D01*
X165152197Y-126594041D02*
X165229607Y-126555337D01*
X165229607Y-126555337D02*
X165268312Y-126516632D01*
X165268312Y-126516632D02*
X165307016Y-126439222D01*
X165307016Y-126439222D02*
X165307016Y-126206994D01*
X165307016Y-126206994D02*
X165268312Y-126129584D01*
X165268312Y-126129584D02*
X165229607Y-126090879D01*
X165229607Y-126090879D02*
X165152197Y-126052175D01*
X165152197Y-126052175D02*
X165036083Y-126052175D01*
X165036083Y-126052175D02*
X164958674Y-126090879D01*
X164958674Y-126090879D02*
X164919969Y-126129584D01*
X164919969Y-126129584D02*
X164881264Y-126206994D01*
X164881264Y-126206994D02*
X164881264Y-126439222D01*
X164881264Y-126439222D02*
X164919969Y-126516632D01*
X164919969Y-126516632D02*
X164958674Y-126555337D01*
X164958674Y-126555337D02*
X165036083Y-126594041D01*
X165036083Y-126594041D02*
X165152197Y-126594041D01*
X164571626Y-126555337D02*
X164494217Y-126594041D01*
X164494217Y-126594041D02*
X164339398Y-126594041D01*
X164339398Y-126594041D02*
X164261988Y-126555337D01*
X164261988Y-126555337D02*
X164223284Y-126477927D01*
X164223284Y-126477927D02*
X164223284Y-126439222D01*
X164223284Y-126439222D02*
X164261988Y-126361813D01*
X164261988Y-126361813D02*
X164339398Y-126323108D01*
X164339398Y-126323108D02*
X164455512Y-126323108D01*
X164455512Y-126323108D02*
X164532922Y-126284403D01*
X164532922Y-126284403D02*
X164571626Y-126206994D01*
X164571626Y-126206994D02*
X164571626Y-126168289D01*
X164571626Y-126168289D02*
X164532922Y-126090879D01*
X164532922Y-126090879D02*
X164455512Y-126052175D01*
X164455512Y-126052175D02*
X164339398Y-126052175D01*
X164339398Y-126052175D02*
X164261988Y-126090879D01*
X163874941Y-126594041D02*
X163874941Y-126052175D01*
X163874941Y-125781241D02*
X163913645Y-125819946D01*
X163913645Y-125819946D02*
X163874941Y-125858651D01*
X163874941Y-125858651D02*
X163836236Y-125819946D01*
X163836236Y-125819946D02*
X163874941Y-125781241D01*
X163874941Y-125781241D02*
X163874941Y-125858651D01*
X163139550Y-126594041D02*
X163139550Y-125781241D01*
X163139550Y-126555337D02*
X163216959Y-126594041D01*
X163216959Y-126594041D02*
X163371778Y-126594041D01*
X163371778Y-126594041D02*
X163449188Y-126555337D01*
X163449188Y-126555337D02*
X163487893Y-126516632D01*
X163487893Y-126516632D02*
X163526597Y-126439222D01*
X163526597Y-126439222D02*
X163526597Y-126206994D01*
X163526597Y-126206994D02*
X163487893Y-126129584D01*
X163487893Y-126129584D02*
X163449188Y-126090879D01*
X163449188Y-126090879D02*
X163371778Y-126052175D01*
X163371778Y-126052175D02*
X163216959Y-126052175D01*
X163216959Y-126052175D02*
X163139550Y-126090879D01*
X162404160Y-126594041D02*
X162404160Y-126168289D01*
X162404160Y-126168289D02*
X162442865Y-126090879D01*
X162442865Y-126090879D02*
X162520274Y-126052175D01*
X162520274Y-126052175D02*
X162675093Y-126052175D01*
X162675093Y-126052175D02*
X162752503Y-126090879D01*
X162404160Y-126555337D02*
X162481569Y-126594041D01*
X162481569Y-126594041D02*
X162675093Y-126594041D01*
X162675093Y-126594041D02*
X162752503Y-126555337D01*
X162752503Y-126555337D02*
X162791207Y-126477927D01*
X162791207Y-126477927D02*
X162791207Y-126400517D01*
X162791207Y-126400517D02*
X162752503Y-126323108D01*
X162752503Y-126323108D02*
X162675093Y-126284403D01*
X162675093Y-126284403D02*
X162481569Y-126284403D01*
X162481569Y-126284403D02*
X162404160Y-126245698D01*
X161668770Y-126594041D02*
X161668770Y-125781241D01*
X161668770Y-126555337D02*
X161746179Y-126594041D01*
X161746179Y-126594041D02*
X161900998Y-126594041D01*
X161900998Y-126594041D02*
X161978408Y-126555337D01*
X161978408Y-126555337D02*
X162017113Y-126516632D01*
X162017113Y-126516632D02*
X162055817Y-126439222D01*
X162055817Y-126439222D02*
X162055817Y-126206994D01*
X162055817Y-126206994D02*
X162017113Y-126129584D01*
X162017113Y-126129584D02*
X161978408Y-126090879D01*
X161978408Y-126090879D02*
X161900998Y-126052175D01*
X161900998Y-126052175D02*
X161746179Y-126052175D01*
X161746179Y-126052175D02*
X161668770Y-126090879D01*
X160972085Y-126555337D02*
X161049494Y-126594041D01*
X161049494Y-126594041D02*
X161204313Y-126594041D01*
X161204313Y-126594041D02*
X161281723Y-126555337D01*
X161281723Y-126555337D02*
X161320427Y-126477927D01*
X161320427Y-126477927D02*
X161320427Y-126168289D01*
X161320427Y-126168289D02*
X161281723Y-126090879D01*
X161281723Y-126090879D02*
X161204313Y-126052175D01*
X161204313Y-126052175D02*
X161049494Y-126052175D01*
X161049494Y-126052175D02*
X160972085Y-126090879D01*
X160972085Y-126090879D02*
X160933380Y-126168289D01*
X160933380Y-126168289D02*
X160933380Y-126245698D01*
X160933380Y-126245698D02*
X161320427Y-126323108D01*
X176221756Y-127902603D02*
X176492689Y-127515556D01*
X176686213Y-127902603D02*
X176686213Y-127089803D01*
X176686213Y-127089803D02*
X176376575Y-127089803D01*
X176376575Y-127089803D02*
X176299165Y-127128508D01*
X176299165Y-127128508D02*
X176260460Y-127167213D01*
X176260460Y-127167213D02*
X176221756Y-127244622D01*
X176221756Y-127244622D02*
X176221756Y-127360737D01*
X176221756Y-127360737D02*
X176260460Y-127438146D01*
X176260460Y-127438146D02*
X176299165Y-127476851D01*
X176299165Y-127476851D02*
X176376575Y-127515556D01*
X176376575Y-127515556D02*
X176686213Y-127515556D01*
X175525070Y-127902603D02*
X175525070Y-127476851D01*
X175525070Y-127476851D02*
X175563775Y-127399441D01*
X175563775Y-127399441D02*
X175641184Y-127360737D01*
X175641184Y-127360737D02*
X175796003Y-127360737D01*
X175796003Y-127360737D02*
X175873413Y-127399441D01*
X175525070Y-127863899D02*
X175602479Y-127902603D01*
X175602479Y-127902603D02*
X175796003Y-127902603D01*
X175796003Y-127902603D02*
X175873413Y-127863899D01*
X175873413Y-127863899D02*
X175912117Y-127786489D01*
X175912117Y-127786489D02*
X175912117Y-127709079D01*
X175912117Y-127709079D02*
X175873413Y-127631670D01*
X175873413Y-127631670D02*
X175796003Y-127592965D01*
X175796003Y-127592965D02*
X175602479Y-127592965D01*
X175602479Y-127592965D02*
X175525070Y-127554260D01*
X175254137Y-127360737D02*
X174944499Y-127360737D01*
X175138023Y-127902603D02*
X175138023Y-127205918D01*
X175138023Y-127205918D02*
X175099318Y-127128508D01*
X175099318Y-127128508D02*
X175021908Y-127089803D01*
X175021908Y-127089803D02*
X174944499Y-127089803D01*
X174325223Y-127902603D02*
X174325223Y-127476851D01*
X174325223Y-127476851D02*
X174363928Y-127399441D01*
X174363928Y-127399441D02*
X174441337Y-127360737D01*
X174441337Y-127360737D02*
X174596156Y-127360737D01*
X174596156Y-127360737D02*
X174673566Y-127399441D01*
X174325223Y-127863899D02*
X174402632Y-127902603D01*
X174402632Y-127902603D02*
X174596156Y-127902603D01*
X174596156Y-127902603D02*
X174673566Y-127863899D01*
X174673566Y-127863899D02*
X174712270Y-127786489D01*
X174712270Y-127786489D02*
X174712270Y-127709079D01*
X174712270Y-127709079D02*
X174673566Y-127631670D01*
X174673566Y-127631670D02*
X174596156Y-127592965D01*
X174596156Y-127592965D02*
X174402632Y-127592965D01*
X174402632Y-127592965D02*
X174325223Y-127554260D01*
X173628538Y-127863899D02*
X173705947Y-127902603D01*
X173705947Y-127902603D02*
X173860766Y-127902603D01*
X173860766Y-127902603D02*
X173938176Y-127863899D01*
X173938176Y-127863899D02*
X173976880Y-127786489D01*
X173976880Y-127786489D02*
X173976880Y-127476851D01*
X173976880Y-127476851D02*
X173938176Y-127399441D01*
X173938176Y-127399441D02*
X173860766Y-127360737D01*
X173860766Y-127360737D02*
X173705947Y-127360737D01*
X173705947Y-127360737D02*
X173628538Y-127399441D01*
X173628538Y-127399441D02*
X173589833Y-127476851D01*
X173589833Y-127476851D02*
X173589833Y-127554260D01*
X173589833Y-127554260D02*
X173976880Y-127631670D01*
X173125375Y-127902603D02*
X173202785Y-127863899D01*
X173202785Y-127863899D02*
X173241490Y-127786489D01*
X173241490Y-127786489D02*
X173241490Y-127089803D01*
X172235166Y-127670375D02*
X171848119Y-127670375D01*
X172312576Y-127902603D02*
X172041643Y-127089803D01*
X172041643Y-127089803D02*
X171770709Y-127902603D01*
X171615890Y-127360737D02*
X171306252Y-127360737D01*
X171499776Y-127902603D02*
X171499776Y-127205918D01*
X171499776Y-127205918D02*
X171461071Y-127128508D01*
X171461071Y-127128508D02*
X171383661Y-127089803D01*
X171383661Y-127089803D02*
X171306252Y-127089803D01*
X170919204Y-127902603D02*
X170996614Y-127863899D01*
X170996614Y-127863899D02*
X171035319Y-127825194D01*
X171035319Y-127825194D02*
X171074023Y-127747784D01*
X171074023Y-127747784D02*
X171074023Y-127515556D01*
X171074023Y-127515556D02*
X171035319Y-127438146D01*
X171035319Y-127438146D02*
X170996614Y-127399441D01*
X170996614Y-127399441D02*
X170919204Y-127360737D01*
X170919204Y-127360737D02*
X170803090Y-127360737D01*
X170803090Y-127360737D02*
X170725681Y-127399441D01*
X170725681Y-127399441D02*
X170686976Y-127438146D01*
X170686976Y-127438146D02*
X170648271Y-127515556D01*
X170648271Y-127515556D02*
X170648271Y-127747784D01*
X170648271Y-127747784D02*
X170686976Y-127825194D01*
X170686976Y-127825194D02*
X170725681Y-127863899D01*
X170725681Y-127863899D02*
X170803090Y-127902603D01*
X170803090Y-127902603D02*
X170919204Y-127902603D01*
X170299929Y-127360737D02*
X170299929Y-127902603D01*
X170299929Y-127438146D02*
X170261224Y-127399441D01*
X170261224Y-127399441D02*
X170183814Y-127360737D01*
X170183814Y-127360737D02*
X170067700Y-127360737D01*
X170067700Y-127360737D02*
X169990291Y-127399441D01*
X169990291Y-127399441D02*
X169951586Y-127476851D01*
X169951586Y-127476851D02*
X169951586Y-127902603D01*
X169603243Y-127863899D02*
X169525834Y-127902603D01*
X169525834Y-127902603D02*
X169371015Y-127902603D01*
X169371015Y-127902603D02*
X169293605Y-127863899D01*
X169293605Y-127863899D02*
X169254901Y-127786489D01*
X169254901Y-127786489D02*
X169254901Y-127747784D01*
X169254901Y-127747784D02*
X169293605Y-127670375D01*
X169293605Y-127670375D02*
X169371015Y-127631670D01*
X169371015Y-127631670D02*
X169487129Y-127631670D01*
X169487129Y-127631670D02*
X169564539Y-127592965D01*
X169564539Y-127592965D02*
X169603243Y-127515556D01*
X169603243Y-127515556D02*
X169603243Y-127476851D01*
X169603243Y-127476851D02*
X169564539Y-127399441D01*
X169564539Y-127399441D02*
X169487129Y-127360737D01*
X169487129Y-127360737D02*
X169371015Y-127360737D01*
X169371015Y-127360737D02*
X169293605Y-127399441D01*
X168790443Y-127902603D02*
X168867853Y-127863899D01*
X168867853Y-127863899D02*
X168906558Y-127825194D01*
X168906558Y-127825194D02*
X168945262Y-127747784D01*
X168945262Y-127747784D02*
X168945262Y-127515556D01*
X168945262Y-127515556D02*
X168906558Y-127438146D01*
X168906558Y-127438146D02*
X168867853Y-127399441D01*
X168867853Y-127399441D02*
X168790443Y-127360737D01*
X168790443Y-127360737D02*
X168674329Y-127360737D01*
X168674329Y-127360737D02*
X168596920Y-127399441D01*
X168596920Y-127399441D02*
X168558215Y-127438146D01*
X168558215Y-127438146D02*
X168519510Y-127515556D01*
X168519510Y-127515556D02*
X168519510Y-127747784D01*
X168519510Y-127747784D02*
X168558215Y-127825194D01*
X168558215Y-127825194D02*
X168596920Y-127863899D01*
X168596920Y-127863899D02*
X168674329Y-127902603D01*
X168674329Y-127902603D02*
X168790443Y-127902603D01*
X167590596Y-127167213D02*
X167551892Y-127128508D01*
X167551892Y-127128508D02*
X167474482Y-127089803D01*
X167474482Y-127089803D02*
X167280958Y-127089803D01*
X167280958Y-127089803D02*
X167203549Y-127128508D01*
X167203549Y-127128508D02*
X167164844Y-127167213D01*
X167164844Y-127167213D02*
X167126139Y-127244622D01*
X167126139Y-127244622D02*
X167126139Y-127322032D01*
X167126139Y-127322032D02*
X167164844Y-127438146D01*
X167164844Y-127438146D02*
X167629301Y-127902603D01*
X167629301Y-127902603D02*
X167126139Y-127902603D01*
X166622978Y-127089803D02*
X166545568Y-127089803D01*
X166545568Y-127089803D02*
X166468159Y-127128508D01*
X166468159Y-127128508D02*
X166429454Y-127167213D01*
X166429454Y-127167213D02*
X166390749Y-127244622D01*
X166390749Y-127244622D02*
X166352044Y-127399441D01*
X166352044Y-127399441D02*
X166352044Y-127592965D01*
X166352044Y-127592965D02*
X166390749Y-127747784D01*
X166390749Y-127747784D02*
X166429454Y-127825194D01*
X166429454Y-127825194D02*
X166468159Y-127863899D01*
X166468159Y-127863899D02*
X166545568Y-127902603D01*
X166545568Y-127902603D02*
X166622978Y-127902603D01*
X166622978Y-127902603D02*
X166700387Y-127863899D01*
X166700387Y-127863899D02*
X166739092Y-127825194D01*
X166739092Y-127825194D02*
X166777797Y-127747784D01*
X166777797Y-127747784D02*
X166816501Y-127592965D01*
X166816501Y-127592965D02*
X166816501Y-127399441D01*
X166816501Y-127399441D02*
X166777797Y-127244622D01*
X166777797Y-127244622D02*
X166739092Y-127167213D01*
X166739092Y-127167213D02*
X166700387Y-127128508D01*
X166700387Y-127128508D02*
X166622978Y-127089803D01*
X166042406Y-127167213D02*
X166003702Y-127128508D01*
X166003702Y-127128508D02*
X165926292Y-127089803D01*
X165926292Y-127089803D02*
X165732768Y-127089803D01*
X165732768Y-127089803D02*
X165655359Y-127128508D01*
X165655359Y-127128508D02*
X165616654Y-127167213D01*
X165616654Y-127167213D02*
X165577949Y-127244622D01*
X165577949Y-127244622D02*
X165577949Y-127322032D01*
X165577949Y-127322032D02*
X165616654Y-127438146D01*
X165616654Y-127438146D02*
X166081111Y-127902603D01*
X166081111Y-127902603D02*
X165577949Y-127902603D01*
X164842559Y-127089803D02*
X165229607Y-127089803D01*
X165229607Y-127089803D02*
X165268311Y-127476851D01*
X165268311Y-127476851D02*
X165229607Y-127438146D01*
X165229607Y-127438146D02*
X165152197Y-127399441D01*
X165152197Y-127399441D02*
X164958673Y-127399441D01*
X164958673Y-127399441D02*
X164881264Y-127438146D01*
X164881264Y-127438146D02*
X164842559Y-127476851D01*
X164842559Y-127476851D02*
X164803854Y-127554260D01*
X164803854Y-127554260D02*
X164803854Y-127747784D01*
X164803854Y-127747784D02*
X164842559Y-127825194D01*
X164842559Y-127825194D02*
X164881264Y-127863899D01*
X164881264Y-127863899D02*
X164958673Y-127902603D01*
X164958673Y-127902603D02*
X165152197Y-127902603D01*
X165152197Y-127902603D02*
X165229607Y-127863899D01*
X165229607Y-127863899D02*
X165268311Y-127825194D01*
X163874940Y-127051099D02*
X164571626Y-128096127D01*
X163642711Y-127167213D02*
X163604007Y-127128508D01*
X163604007Y-127128508D02*
X163526597Y-127089803D01*
X163526597Y-127089803D02*
X163333073Y-127089803D01*
X163333073Y-127089803D02*
X163255664Y-127128508D01*
X163255664Y-127128508D02*
X163216959Y-127167213D01*
X163216959Y-127167213D02*
X163178254Y-127244622D01*
X163178254Y-127244622D02*
X163178254Y-127322032D01*
X163178254Y-127322032D02*
X163216959Y-127438146D01*
X163216959Y-127438146D02*
X163681416Y-127902603D01*
X163681416Y-127902603D02*
X163178254Y-127902603D01*
X162675093Y-127089803D02*
X162597683Y-127089803D01*
X162597683Y-127089803D02*
X162520274Y-127128508D01*
X162520274Y-127128508D02*
X162481569Y-127167213D01*
X162481569Y-127167213D02*
X162442864Y-127244622D01*
X162442864Y-127244622D02*
X162404159Y-127399441D01*
X162404159Y-127399441D02*
X162404159Y-127592965D01*
X162404159Y-127592965D02*
X162442864Y-127747784D01*
X162442864Y-127747784D02*
X162481569Y-127825194D01*
X162481569Y-127825194D02*
X162520274Y-127863899D01*
X162520274Y-127863899D02*
X162597683Y-127902603D01*
X162597683Y-127902603D02*
X162675093Y-127902603D01*
X162675093Y-127902603D02*
X162752502Y-127863899D01*
X162752502Y-127863899D02*
X162791207Y-127825194D01*
X162791207Y-127825194D02*
X162829912Y-127747784D01*
X162829912Y-127747784D02*
X162868616Y-127592965D01*
X162868616Y-127592965D02*
X162868616Y-127399441D01*
X162868616Y-127399441D02*
X162829912Y-127244622D01*
X162829912Y-127244622D02*
X162791207Y-127167213D01*
X162791207Y-127167213D02*
X162752502Y-127128508D01*
X162752502Y-127128508D02*
X162675093Y-127089803D01*
X162094521Y-127167213D02*
X162055817Y-127128508D01*
X162055817Y-127128508D02*
X161978407Y-127089803D01*
X161978407Y-127089803D02*
X161784883Y-127089803D01*
X161784883Y-127089803D02*
X161707474Y-127128508D01*
X161707474Y-127128508D02*
X161668769Y-127167213D01*
X161668769Y-127167213D02*
X161630064Y-127244622D01*
X161630064Y-127244622D02*
X161630064Y-127322032D01*
X161630064Y-127322032D02*
X161668769Y-127438146D01*
X161668769Y-127438146D02*
X162133226Y-127902603D01*
X162133226Y-127902603D02*
X161630064Y-127902603D01*
X160933379Y-127089803D02*
X161088198Y-127089803D01*
X161088198Y-127089803D02*
X161165607Y-127128508D01*
X161165607Y-127128508D02*
X161204312Y-127167213D01*
X161204312Y-127167213D02*
X161281722Y-127283327D01*
X161281722Y-127283327D02*
X161320426Y-127438146D01*
X161320426Y-127438146D02*
X161320426Y-127747784D01*
X161320426Y-127747784D02*
X161281722Y-127825194D01*
X161281722Y-127825194D02*
X161243017Y-127863899D01*
X161243017Y-127863899D02*
X161165607Y-127902603D01*
X161165607Y-127902603D02*
X161010788Y-127902603D01*
X161010788Y-127902603D02*
X160933379Y-127863899D01*
X160933379Y-127863899D02*
X160894674Y-127825194D01*
X160894674Y-127825194D02*
X160855969Y-127747784D01*
X160855969Y-127747784D02*
X160855969Y-127554260D01*
X160855969Y-127554260D02*
X160894674Y-127476851D01*
X160894674Y-127476851D02*
X160933379Y-127438146D01*
X160933379Y-127438146D02*
X161010788Y-127399441D01*
X161010788Y-127399441D02*
X161165607Y-127399441D01*
X161165607Y-127399441D02*
X161243017Y-127438146D01*
X161243017Y-127438146D02*
X161281722Y-127476851D01*
X161281722Y-127476851D02*
X161320426Y-127554260D01*
M02*
