G04 #@! TF.GenerationSoftware,KiCad,Pcbnew,9.0.5*
G04 #@! TF.CreationDate,2025-12-09T00:37:38+00:00*
G04 #@! TF.ProjectId,Controlo_Luminosidade,436f6e74-726f-46c6-9f5f-4c756d696e6f,rev?*
G04 #@! TF.SameCoordinates,Original*
G04 #@! TF.FileFunction,Copper,L3,Inr*
G04 #@! TF.FilePolarity,Positive*
%FSLAX46Y46*%
G04 Gerber Fmt 4.6, Leading zero omitted, Abs format (unit mm)*
G04 Created by KiCad (PCBNEW 9.0.5) date 2025-12-09 00:37:38*
%MOMM*%
%LPD*%
G01*
G04 APERTURE LIST*
G04 Aperture macros list*
%AMRoundRect*
0 Rectangle with rounded corners*
0 $1 Rounding radius*
0 $2 $3 $4 $5 $6 $7 $8 $9 X,Y pos of 4 corners*
0 Add a 4 corners polygon primitive as box body*
4,1,4,$2,$3,$4,$5,$6,$7,$8,$9,$2,$3,0*
0 Add four circle primitives for the rounded corners*
1,1,$1+$1,$2,$3*
1,1,$1+$1,$4,$5*
1,1,$1+$1,$6,$7*
1,1,$1+$1,$8,$9*
0 Add four rect primitives between the rounded corners*
20,1,$1+$1,$2,$3,$4,$5,0*
20,1,$1+$1,$4,$5,$6,$7,0*
20,1,$1+$1,$6,$7,$8,$9,0*
20,1,$1+$1,$8,$9,$2,$3,0*%
G04 Aperture macros list end*
G04 #@! TA.AperFunction,ComponentPad*
%ADD10C,1.700000*%
G04 #@! TD*
G04 #@! TA.AperFunction,ComponentPad*
%ADD11R,1.700000X1.700000*%
G04 #@! TD*
G04 #@! TA.AperFunction,ComponentPad*
%ADD12C,1.600000*%
G04 #@! TD*
G04 #@! TA.AperFunction,ComponentPad*
%ADD13C,1.400000*%
G04 #@! TD*
G04 #@! TA.AperFunction,ComponentPad*
%ADD14C,2.000000*%
G04 #@! TD*
G04 #@! TA.AperFunction,ComponentPad*
%ADD15R,2.000000X2.000000*%
G04 #@! TD*
G04 #@! TA.AperFunction,ComponentPad*
%ADD16R,3.500000X3.500000*%
G04 #@! TD*
G04 #@! TA.AperFunction,ComponentPad*
%ADD17RoundRect,0.750000X1.000000X-0.750000X1.000000X0.750000X-1.000000X0.750000X-1.000000X-0.750000X0*%
G04 #@! TD*
G04 #@! TA.AperFunction,ComponentPad*
%ADD18RoundRect,0.875000X0.875000X-0.875000X0.875000X0.875000X-0.875000X0.875000X-0.875000X-0.875000X0*%
G04 #@! TD*
G04 #@! TA.AperFunction,ComponentPad*
%ADD19R,1.800000X1.800000*%
G04 #@! TD*
G04 #@! TA.AperFunction,ComponentPad*
%ADD20C,1.800000*%
G04 #@! TD*
G04 #@! TA.AperFunction,ComponentPad*
%ADD21RoundRect,0.750000X-0.750000X-1.000000X0.750000X-1.000000X0.750000X1.000000X-0.750000X1.000000X0*%
G04 #@! TD*
G04 #@! TA.AperFunction,ComponentPad*
%ADD22RoundRect,0.875000X-0.875000X-0.875000X0.875000X-0.875000X0.875000X0.875000X-0.875000X0.875000X0*%
G04 #@! TD*
G04 #@! TA.AperFunction,ComponentPad*
%ADD23RoundRect,0.250000X-0.550000X-0.550000X0.550000X-0.550000X0.550000X0.550000X-0.550000X0.550000X0*%
G04 #@! TD*
G04 #@! TA.AperFunction,ComponentPad*
%ADD24C,1.500000*%
G04 #@! TD*
G04 #@! TA.AperFunction,ComponentPad*
%ADD25O,1.905000X2.000000*%
G04 #@! TD*
G04 #@! TA.AperFunction,ComponentPad*
%ADD26R,1.905000X2.000000*%
G04 #@! TD*
G04 APERTURE END LIST*
D10*
X163850000Y-111960000D03*
X166390000Y-111960000D03*
D11*
X168930000Y-111960000D03*
D12*
X166250000Y-108825000D03*
X168750000Y-108825000D03*
D10*
X128130000Y-68180000D03*
X130670000Y-68180000D03*
X133210000Y-68180000D03*
D11*
X135750000Y-68180000D03*
D13*
X148980000Y-70620000D03*
X148980000Y-65540000D03*
D14*
X181975000Y-73475000D03*
D15*
X174375000Y-73475000D03*
D10*
X168825000Y-88375000D03*
X168825000Y-85835000D03*
D11*
X168825000Y-83295000D03*
D12*
X127830000Y-79660000D03*
X130330000Y-79660000D03*
X175450000Y-108425000D03*
X177950000Y-108425000D03*
D13*
X141260000Y-107600000D03*
X136180000Y-107600000D03*
D11*
X135130000Y-85400000D03*
D10*
X132590000Y-85400000D03*
X130050000Y-85400000D03*
X127510000Y-85400000D03*
D12*
X163190000Y-93660000D03*
X165690000Y-93660000D03*
D13*
X140340000Y-75030000D03*
X145420000Y-75030000D03*
D16*
X140950000Y-115675000D03*
D17*
X140950000Y-121675000D03*
D18*
X145650000Y-118675000D03*
D12*
X156570000Y-58380000D03*
X156570000Y-60880000D03*
X163170000Y-88880000D03*
X165670000Y-88880000D03*
X139260000Y-84200000D03*
X141760000Y-84200000D03*
D19*
X143205000Y-103020000D03*
D20*
X145745000Y-103020000D03*
D12*
X175250000Y-117025000D03*
X177750000Y-117025000D03*
D16*
X139800000Y-55700000D03*
D21*
X133800000Y-55700000D03*
D22*
X136800000Y-60400000D03*
D11*
X179650000Y-65300000D03*
D10*
X179650000Y-62760000D03*
X177110000Y-65300000D03*
X177110000Y-62760000D03*
D12*
X129200000Y-96690000D03*
X126700000Y-96690000D03*
X152950000Y-55700000D03*
X152950000Y-58200000D03*
D11*
X135720000Y-73780000D03*
D10*
X133180000Y-73780000D03*
X130640000Y-73780000D03*
X128100000Y-73780000D03*
D12*
X146390000Y-88590000D03*
X143890000Y-88590000D03*
D13*
X145320000Y-71280000D03*
X140240000Y-71280000D03*
D10*
X169640000Y-100295000D03*
X169640000Y-97755000D03*
X172180000Y-100295000D03*
X172180000Y-97755000D03*
X174720000Y-100295000D03*
D11*
X174720000Y-97755000D03*
X161975000Y-115850000D03*
D10*
X164515000Y-115850000D03*
X167055000Y-115850000D03*
D11*
X150700000Y-115850000D03*
D10*
X153240000Y-115850000D03*
X155780000Y-115850000D03*
D11*
X168890000Y-105550000D03*
D10*
X166350000Y-105550000D03*
X163810000Y-105550000D03*
D13*
X126960000Y-117250000D03*
X132040000Y-117250000D03*
D12*
X129200000Y-101630000D03*
X126700000Y-101630000D03*
D11*
X156290000Y-54650000D03*
D10*
X158830000Y-54650000D03*
X161370000Y-54650000D03*
X163910000Y-54650000D03*
X166450000Y-54650000D03*
D11*
X172050000Y-54650000D03*
D10*
X174590000Y-54650000D03*
X177130000Y-54650000D03*
X179670000Y-54650000D03*
X182210000Y-54650000D03*
D12*
X146900000Y-55700000D03*
X146900000Y-58200000D03*
D23*
X151265000Y-73350000D03*
D12*
X151265000Y-75890000D03*
X151265000Y-78430000D03*
X151265000Y-80970000D03*
X151265000Y-83510000D03*
X151265000Y-86050000D03*
X151265000Y-88590000D03*
X151265000Y-91130000D03*
X151265000Y-93670000D03*
X151265000Y-96210000D03*
X151265000Y-98750000D03*
X151265000Y-101290000D03*
X151265000Y-103830000D03*
X151265000Y-106370000D03*
X158885000Y-106370000D03*
X158885000Y-103830000D03*
X158885000Y-101290000D03*
X158885000Y-98750000D03*
X158885000Y-96210000D03*
X158885000Y-93670000D03*
X158885000Y-91130000D03*
X158885000Y-88590000D03*
X158885000Y-86050000D03*
X158885000Y-83510000D03*
X158885000Y-80970000D03*
X158885000Y-78430000D03*
X158885000Y-75890000D03*
X158885000Y-73350000D03*
X171800000Y-58010000D03*
X169300000Y-58010000D03*
X171250000Y-119225000D03*
X171250000Y-121725000D03*
D24*
X135110000Y-101490000D03*
X135110000Y-96610000D03*
D13*
X162830000Y-72440000D03*
X162830000Y-67360000D03*
D25*
X133805000Y-112750000D03*
X131265000Y-112750000D03*
D26*
X128725000Y-112750000D03*
D13*
X167880000Y-75710000D03*
X167880000Y-70630000D03*
D12*
X128410000Y-90730000D03*
X130910000Y-90730000D03*
X137520000Y-89420000D03*
X140020000Y-89420000D03*
M02*
