G04 #@! TF.GenerationSoftware,KiCad,Pcbnew,9.0.5*
G04 #@! TF.CreationDate,2025-12-10T00:56:02+00:00*
G04 #@! TF.ProjectId,Controlo_Luminosidade,436f6e74-726f-46c6-9f5f-4c756d696e6f,rev?*
G04 #@! TF.SameCoordinates,Original*
G04 #@! TF.FileFunction,Copper,L1,Top*
G04 #@! TF.FilePolarity,Positive*
%FSLAX46Y46*%
G04 Gerber Fmt 4.6, Leading zero omitted, Abs format (unit mm)*
G04 Created by KiCad (PCBNEW 9.0.5) date 2025-12-10 00:56:02*
%MOMM*%
%LPD*%
G01*
G04 APERTURE LIST*
G04 Aperture macros list*
%AMRoundRect*
0 Rectangle with rounded corners*
0 $1 Rounding radius*
0 $2 $3 $4 $5 $6 $7 $8 $9 X,Y pos of 4 corners*
0 Add a 4 corners polygon primitive as box body*
4,1,4,$2,$3,$4,$5,$6,$7,$8,$9,$2,$3,0*
0 Add four circle primitives for the rounded corners*
1,1,$1+$1,$2,$3*
1,1,$1+$1,$4,$5*
1,1,$1+$1,$6,$7*
1,1,$1+$1,$8,$9*
0 Add four rect primitives between the rounded corners*
20,1,$1+$1,$2,$3,$4,$5,0*
20,1,$1+$1,$4,$5,$6,$7,0*
20,1,$1+$1,$6,$7,$8,$9,0*
20,1,$1+$1,$8,$9,$2,$3,0*%
G04 Aperture macros list end*
G04 #@! TA.AperFunction,SMDPad,CuDef*
%ADD10RoundRect,0.250000X-0.300000X-0.550000X0.300000X-0.550000X0.300000X0.550000X-0.300000X0.550000X0*%
G04 #@! TD*
G04 #@! TA.AperFunction,ComponentPad*
%ADD11C,1.388000*%
G04 #@! TD*
G04 #@! TA.AperFunction,ComponentPad*
%ADD12C,1.600000*%
G04 #@! TD*
G04 #@! TA.AperFunction,ComponentPad*
%ADD13C,1.400000*%
G04 #@! TD*
G04 #@! TA.AperFunction,ComponentPad*
%ADD14R,1.700000X1.700000*%
G04 #@! TD*
G04 #@! TA.AperFunction,ComponentPad*
%ADD15C,1.700000*%
G04 #@! TD*
G04 #@! TA.AperFunction,ComponentPad*
%ADD16R,3.500000X3.500000*%
G04 #@! TD*
G04 #@! TA.AperFunction,ComponentPad*
%ADD17RoundRect,0.750000X1.000000X-0.750000X1.000000X0.750000X-1.000000X0.750000X-1.000000X-0.750000X0*%
G04 #@! TD*
G04 #@! TA.AperFunction,ComponentPad*
%ADD18RoundRect,0.875000X0.875000X-0.875000X0.875000X0.875000X-0.875000X0.875000X-0.875000X-0.875000X0*%
G04 #@! TD*
G04 #@! TA.AperFunction,ComponentPad*
%ADD19R,1.800000X1.800000*%
G04 #@! TD*
G04 #@! TA.AperFunction,ComponentPad*
%ADD20C,1.800000*%
G04 #@! TD*
G04 #@! TA.AperFunction,ComponentPad*
%ADD21RoundRect,0.750000X-0.750000X-1.000000X0.750000X-1.000000X0.750000X1.000000X-0.750000X1.000000X0*%
G04 #@! TD*
G04 #@! TA.AperFunction,ComponentPad*
%ADD22RoundRect,0.875000X-0.875000X-0.875000X0.875000X-0.875000X0.875000X0.875000X-0.875000X0.875000X0*%
G04 #@! TD*
G04 #@! TA.AperFunction,ComponentPad*
%ADD23R,2.000000X2.000000*%
G04 #@! TD*
G04 #@! TA.AperFunction,ComponentPad*
%ADD24C,2.000000*%
G04 #@! TD*
G04 #@! TA.AperFunction,ComponentPad*
%ADD25RoundRect,0.250000X-0.550000X-0.550000X0.550000X-0.550000X0.550000X0.550000X-0.550000X0.550000X0*%
G04 #@! TD*
G04 #@! TA.AperFunction,ComponentPad*
%ADD26C,1.500000*%
G04 #@! TD*
G04 #@! TA.AperFunction,ComponentPad*
%ADD27R,1.905000X2.000000*%
G04 #@! TD*
G04 #@! TA.AperFunction,ComponentPad*
%ADD28O,1.905000X2.000000*%
G04 #@! TD*
G04 #@! TA.AperFunction,ViaPad*
%ADD29C,0.600000*%
G04 #@! TD*
G04 #@! TA.AperFunction,Conductor*
%ADD30C,1.500000*%
G04 #@! TD*
G04 #@! TA.AperFunction,Conductor*
%ADD31C,0.127000*%
G04 #@! TD*
G04 #@! TA.AperFunction,Conductor*
%ADD32C,0.300000*%
G04 #@! TD*
G04 APERTURE END LIST*
D10*
X142350000Y-62780000D03*
X145150000Y-62780000D03*
D11*
X159072500Y-47420000D03*
X131847500Y-47420000D03*
D12*
X175450000Y-108425000D03*
X177950000Y-108425000D03*
D13*
X141260000Y-107600000D03*
X136180000Y-107600000D03*
D14*
X168825000Y-83295000D03*
D15*
X168825000Y-85835000D03*
X168825000Y-88375000D03*
D12*
X168750000Y-108825000D03*
X166250000Y-108825000D03*
D14*
X135130000Y-85400000D03*
D15*
X132590000Y-85400000D03*
X130050000Y-85400000D03*
X127510000Y-85400000D03*
D12*
X163190000Y-93660000D03*
X165690000Y-93660000D03*
D13*
X133130000Y-63320000D03*
X128050000Y-63320000D03*
D16*
X140950000Y-115675000D03*
D17*
X140950000Y-121675000D03*
D18*
X145650000Y-118675000D03*
D12*
X154380000Y-61680000D03*
X154380000Y-64180000D03*
X163170000Y-88880000D03*
X165670000Y-88880000D03*
X139260000Y-84200000D03*
X141760000Y-84200000D03*
D19*
X143205000Y-103020000D03*
D20*
X145745000Y-103020000D03*
D12*
X175250000Y-117025000D03*
X177750000Y-117025000D03*
D16*
X139800000Y-55700000D03*
D21*
X133800000Y-55700000D03*
D22*
X136800000Y-60400000D03*
D13*
X142210000Y-97500000D03*
X147290000Y-97500000D03*
D14*
X179650000Y-65300000D03*
D15*
X179650000Y-62760000D03*
X177110000Y-65300000D03*
X177110000Y-62760000D03*
D12*
X129200000Y-96690000D03*
X126700000Y-96690000D03*
X152950000Y-55700000D03*
X152950000Y-58200000D03*
D14*
X135050000Y-74285000D03*
D15*
X132510000Y-74285000D03*
X129970000Y-74285000D03*
X127430000Y-74285000D03*
D12*
X146390000Y-88590000D03*
X143890000Y-88590000D03*
D13*
X141100000Y-71160000D03*
X136020000Y-71160000D03*
D14*
X174720000Y-97755000D03*
D15*
X174720000Y-100295000D03*
X172180000Y-97755000D03*
X172180000Y-100295000D03*
X169640000Y-97755000D03*
X169640000Y-100295000D03*
D14*
X161975000Y-115850000D03*
D15*
X164515000Y-115850000D03*
X167055000Y-115850000D03*
D23*
X174375000Y-73475000D03*
D24*
X181975000Y-73475000D03*
D14*
X150700000Y-115850000D03*
D15*
X153240000Y-115850000D03*
X155780000Y-115850000D03*
D14*
X168890000Y-105550000D03*
D15*
X166350000Y-105550000D03*
X163810000Y-105550000D03*
D14*
X168930000Y-111960000D03*
D15*
X166390000Y-111960000D03*
X163850000Y-111960000D03*
D12*
X130330000Y-79660000D03*
X127830000Y-79660000D03*
D13*
X126960000Y-117250000D03*
X132040000Y-117250000D03*
D12*
X129200000Y-101630000D03*
X126700000Y-101630000D03*
D13*
X151160000Y-70680000D03*
X156240000Y-70680000D03*
D14*
X156290000Y-54650000D03*
D15*
X158830000Y-54650000D03*
X161370000Y-54650000D03*
X163910000Y-54650000D03*
X166450000Y-54650000D03*
D14*
X172050000Y-54650000D03*
D15*
X174590000Y-54650000D03*
X177130000Y-54650000D03*
X179670000Y-54650000D03*
X182210000Y-54650000D03*
D12*
X146900000Y-55700000D03*
X146900000Y-58200000D03*
D25*
X151265000Y-73350000D03*
D12*
X151265000Y-75890000D03*
X151265000Y-78430000D03*
X151265000Y-80970000D03*
X151265000Y-83510000D03*
X151265000Y-86050000D03*
X151265000Y-88590000D03*
X151265000Y-91130000D03*
X151265000Y-93670000D03*
X151265000Y-96210000D03*
X151265000Y-98750000D03*
X151265000Y-101290000D03*
X151265000Y-103830000D03*
X151265000Y-106370000D03*
X158885000Y-106370000D03*
X158885000Y-103830000D03*
X158885000Y-101290000D03*
X158885000Y-98750000D03*
X158885000Y-96210000D03*
X158885000Y-93670000D03*
X158885000Y-91130000D03*
X158885000Y-88590000D03*
X158885000Y-86050000D03*
X158885000Y-83510000D03*
X158885000Y-80970000D03*
X158885000Y-78430000D03*
X158885000Y-75890000D03*
X158885000Y-73350000D03*
X171800000Y-58010000D03*
X169300000Y-58010000D03*
X171250000Y-119225000D03*
X171250000Y-121725000D03*
D14*
X135750000Y-68180000D03*
D15*
X133210000Y-68180000D03*
X130670000Y-68180000D03*
X128130000Y-68180000D03*
D26*
X135110000Y-101490000D03*
X135110000Y-96610000D03*
D13*
X162830000Y-72440000D03*
X162830000Y-67360000D03*
D27*
X128725000Y-112750000D03*
D28*
X131265000Y-112750000D03*
X133805000Y-112750000D03*
D13*
X167880000Y-75710000D03*
X167880000Y-70630000D03*
D12*
X130910000Y-90730000D03*
X128410000Y-90730000D03*
X137520000Y-89420000D03*
X140020000Y-89420000D03*
D29*
X146680000Y-62800000D03*
D30*
X135050000Y-73690000D02*
X131290000Y-69930000D01*
X135050000Y-74285000D02*
X135050000Y-73690000D01*
D31*
X146660000Y-62780000D02*
X146680000Y-62800000D01*
X145150000Y-62780000D02*
X146660000Y-62780000D01*
D30*
X135200000Y-85330000D02*
X135130000Y-85400000D01*
X131820000Y-79660000D02*
X135200000Y-83040000D01*
X135200000Y-83040000D02*
X135200000Y-85330000D01*
X130330000Y-79660000D02*
X131820000Y-79660000D01*
X156240000Y-59820000D02*
X156240000Y-70680000D01*
X156570000Y-59490000D02*
X156240000Y-59820000D01*
X156570000Y-54930000D02*
X156290000Y-54650000D01*
X156570000Y-59490000D02*
X156570000Y-54930000D01*
X154380000Y-61680000D02*
X156570000Y-59490000D01*
D31*
X143995000Y-71160000D02*
X151265000Y-78430000D01*
X141100000Y-71160000D02*
X143995000Y-71160000D01*
X133210000Y-63400000D02*
X133130000Y-63320000D01*
X133210000Y-68180000D02*
X133210000Y-63400000D01*
X133210000Y-68350000D02*
X133210000Y-68180000D01*
X136020000Y-71160000D02*
X133210000Y-68350000D01*
D30*
X131170000Y-69930000D02*
X131170000Y-68680000D01*
X131290000Y-69930000D02*
X131170000Y-69930000D01*
X131170000Y-68680000D02*
X130670000Y-68180000D01*
X130777500Y-48490000D02*
X131847500Y-47420000D01*
X130740000Y-48490000D02*
X130777500Y-48490000D01*
X130740000Y-50460000D02*
X130740000Y-48490000D01*
X132550000Y-52270000D02*
X130740000Y-50460000D01*
X135190000Y-52270000D02*
X132550000Y-52270000D01*
X138620000Y-55700000D02*
X135190000Y-52270000D01*
X139800000Y-55700000D02*
X138620000Y-55700000D01*
X162460000Y-51680000D02*
X162460000Y-50807500D01*
X162460000Y-51680000D02*
X169190000Y-51680000D01*
X162460000Y-50807500D02*
X159072500Y-47420000D01*
D32*
X142380000Y-62200000D02*
X142380000Y-58280000D01*
X142380000Y-58280000D02*
X139800000Y-55700000D01*
X146900000Y-55700000D02*
X152950000Y-55700000D01*
X139800000Y-55700000D02*
X146900000Y-55700000D01*
X139800000Y-55372500D02*
X139800000Y-55700000D01*
D30*
X139200001Y-121675000D02*
X131265000Y-113739999D01*
X140950000Y-121675000D02*
X139200001Y-121675000D01*
X131265000Y-113739999D02*
X131265000Y-112750000D01*
D32*
X164800000Y-82400000D02*
X165450000Y-82400000D01*
X158885000Y-86050000D02*
X157575000Y-86050000D01*
X157575000Y-86050000D02*
X156450000Y-84925000D01*
X161670000Y-84690000D02*
X162510000Y-84690000D01*
X158408240Y-82359000D02*
X159339000Y-82359000D01*
X165450000Y-82400000D02*
X174375000Y-73475000D01*
X156450000Y-84925000D02*
X156450000Y-84317240D01*
X159339000Y-82359000D02*
X161670000Y-84690000D01*
X156450000Y-84317240D02*
X158408240Y-82359000D01*
X162510000Y-84690000D02*
X164800000Y-82400000D01*
X163130000Y-95630000D02*
X163070000Y-95690000D01*
X156700000Y-96565000D02*
X158885000Y-98750000D01*
X170720000Y-95990000D02*
X170360000Y-95630000D01*
X156700000Y-96010000D02*
X156700000Y-96565000D01*
X170360000Y-95630000D02*
X163130000Y-95630000D01*
X157651000Y-95059000D02*
X156700000Y-96010000D01*
X174720000Y-97755000D02*
X172905000Y-95940000D01*
X162439000Y-95059000D02*
X157651000Y-95059000D01*
X170770000Y-95940000D02*
X170720000Y-95990000D01*
X172905000Y-95940000D02*
X170770000Y-95940000D01*
X163070000Y-95690000D02*
X162439000Y-95059000D01*
X172180000Y-100295000D02*
X170304000Y-102171000D01*
X170304000Y-102171000D02*
X159766000Y-102171000D01*
X159766000Y-102171000D02*
X158885000Y-101290000D01*
X138050000Y-93670000D02*
X135110000Y-96610000D01*
X129200000Y-96690000D02*
X135030000Y-96690000D01*
X135030000Y-96690000D02*
X135110000Y-96610000D01*
X151265000Y-93670000D02*
X138050000Y-93670000D01*
X138120000Y-80470000D02*
X149610000Y-80470000D01*
X149610000Y-80470000D02*
X150110000Y-80970000D01*
X137795000Y-80145000D02*
X137795000Y-79570000D01*
X137795000Y-80145000D02*
X138120000Y-80470000D01*
X150110000Y-80970000D02*
X151265000Y-80970000D01*
X137795000Y-79570000D02*
X132510000Y-74285000D01*
X134970000Y-101630000D02*
X135110000Y-101490000D01*
X129200000Y-101630000D02*
X134970000Y-101630000D01*
X151265000Y-96210000D02*
X140390000Y-96210000D01*
X140390000Y-96210000D02*
X135110000Y-101490000D01*
X145745000Y-103020000D02*
X149535000Y-103020000D01*
X149535000Y-103020000D02*
X151265000Y-101290000D01*
D30*
X162830000Y-67360000D02*
X164610000Y-67360000D01*
X176600000Y-70630000D02*
X174970000Y-69000000D01*
X174720000Y-100295000D02*
X176497081Y-100295000D01*
X161975000Y-118200000D02*
X161975000Y-115850000D01*
X181451000Y-63505999D02*
X181451000Y-57633081D01*
X161975000Y-115850000D02*
X161975000Y-117050000D01*
X174970000Y-69000000D02*
X169510000Y-69000000D01*
X164350000Y-91540000D02*
X178455000Y-91540000D01*
X130910000Y-90730000D02*
X135130000Y-86510000D01*
X168930000Y-111960000D02*
X168930000Y-105590000D01*
X178455000Y-91540000D02*
X178455000Y-80600000D01*
X130670000Y-68180000D02*
X130670000Y-68173001D01*
X178455000Y-80600000D02*
X178455000Y-68845000D01*
X137520000Y-87790000D02*
X135130000Y-85400000D01*
X177902081Y-51680000D02*
X179670000Y-53447919D01*
X156290000Y-54650000D02*
X156290000Y-52020000D01*
X176497081Y-100295000D02*
X178455000Y-98337081D01*
X169190000Y-51680000D02*
X177902081Y-51680000D01*
X164230000Y-91420000D02*
X164350000Y-91540000D01*
X179670000Y-55852081D02*
X179670000Y-54650000D01*
X172750000Y-115780000D02*
X168930000Y-111960000D01*
X163190000Y-92460000D02*
X164230000Y-91420000D01*
X158885000Y-93670000D02*
X156345000Y-93670000D01*
X163190000Y-93660000D02*
X158895000Y-93660000D01*
X140950000Y-115675000D02*
X150525000Y-115675000D01*
X172750000Y-117025000D02*
X172750000Y-115780000D01*
X171800000Y-58010000D02*
X171800000Y-54900000D01*
X169510000Y-69000000D02*
X167880000Y-70630000D01*
X160925000Y-119250000D02*
X161975000Y-118200000D01*
X141011000Y-85951000D02*
X143751000Y-85951000D01*
X179670000Y-53447919D02*
X179670000Y-54650000D01*
X175760000Y-83295000D02*
X178455000Y-80600000D01*
X158895000Y-93660000D02*
X158885000Y-93670000D01*
X172050000Y-54540000D02*
X172050000Y-54650000D01*
X138060000Y-85400000D02*
X139260000Y-84200000D01*
X150700000Y-115850000D02*
X150700000Y-117525000D01*
X171240000Y-105550000D02*
X174720000Y-102070000D01*
X168930000Y-105590000D02*
X168890000Y-105550000D01*
X181451000Y-57633081D02*
X179670000Y-55852081D01*
X150700000Y-117525000D02*
X152425000Y-119250000D01*
X135130000Y-86510000D02*
X135130000Y-85400000D01*
X178455000Y-68845000D02*
X179650000Y-67650000D01*
X151265000Y-88590000D02*
X146390000Y-88590000D01*
X179650000Y-67650000D02*
X179650000Y-65300000D01*
X137520000Y-89420000D02*
X137520000Y-87790000D01*
X139260000Y-84200000D02*
X141011000Y-85951000D01*
X168890000Y-105550000D02*
X171240000Y-105550000D01*
X171800000Y-54900000D02*
X172050000Y-54650000D01*
X169190000Y-51680000D02*
X172050000Y-54540000D01*
X178455000Y-98337081D02*
X178455000Y-91540000D01*
X161975000Y-117050000D02*
X164150000Y-119225000D01*
X135130000Y-85400000D02*
X138060000Y-85400000D01*
X150525000Y-115675000D02*
X150700000Y-115850000D01*
X176670000Y-70630000D02*
X176600000Y-70630000D01*
X164610000Y-67360000D02*
X167880000Y-70630000D01*
X143751000Y-85951000D02*
X146390000Y-88590000D01*
X164150000Y-119225000D02*
X171250000Y-119225000D01*
X179650000Y-65300000D02*
X179656999Y-65300000D01*
X179656999Y-65300000D02*
X181451000Y-63505999D01*
X171250000Y-119225000D02*
X172750000Y-117725000D01*
X168825000Y-83295000D02*
X175760000Y-83295000D01*
X156630000Y-51680000D02*
X162460000Y-51680000D01*
X156290000Y-52020000D02*
X156630000Y-51680000D01*
X156345000Y-93670000D02*
X151265000Y-88590000D01*
X175250000Y-108625000D02*
X175450000Y-108425000D01*
X175250000Y-117025000D02*
X175250000Y-108625000D01*
X152425000Y-119250000D02*
X160925000Y-119250000D01*
X167830000Y-70580000D02*
X167830000Y-70630000D01*
X176670000Y-70630000D02*
X178455000Y-68845000D01*
X163190000Y-93660000D02*
X163190000Y-92460000D01*
X174720000Y-102070000D02*
X174720000Y-100295000D01*
X175250000Y-117025000D02*
X172750000Y-117025000D01*
X172750000Y-117725000D02*
X172750000Y-117025000D01*
D32*
X157734000Y-82121000D02*
X137806000Y-82121000D01*
X158885000Y-80970000D02*
X157734000Y-82121000D01*
X137806000Y-82121000D02*
X129970000Y-74285000D01*
X167880000Y-75710000D02*
X159065000Y-75710000D01*
X177110000Y-65300000D02*
X161510000Y-65300000D01*
X160280000Y-68110000D02*
X160280000Y-66530000D01*
X159065000Y-75710000D02*
X158885000Y-75890000D01*
X167880000Y-75710000D02*
X160280000Y-68110000D01*
X161510000Y-65300000D02*
X160280000Y-66530000D01*
X160280000Y-55740000D02*
X160280000Y-66530000D01*
X161370000Y-54650000D02*
X160280000Y-55740000D01*
X158885000Y-73350000D02*
X161920000Y-73350000D01*
X158830000Y-54650000D02*
X158830000Y-73295000D01*
X158830000Y-73295000D02*
X158885000Y-73350000D01*
X174590000Y-60240000D02*
X174590000Y-54650000D01*
X177110000Y-62760000D02*
X174590000Y-60240000D01*
X161920000Y-73350000D02*
X162830000Y-72440000D01*
X158885000Y-73065000D02*
X158885000Y-73350000D01*
X158885000Y-106370000D02*
X163850000Y-111335000D01*
X163850000Y-111335000D02*
X163850000Y-111960000D01*
X162090000Y-103830000D02*
X163810000Y-105550000D01*
X158885000Y-103830000D02*
X162090000Y-103830000D01*
X158885000Y-91130000D02*
X160920000Y-91130000D01*
X160920000Y-91130000D02*
X163170000Y-88880000D01*
X169860000Y-96210000D02*
X158885000Y-96210000D01*
X172180000Y-97755000D02*
X171405000Y-97755000D01*
X171405000Y-97755000D02*
X169860000Y-96210000D01*
X141260000Y-107600000D02*
X141260000Y-104965000D01*
X141260000Y-104965000D02*
X143205000Y-103020000D01*
X151265000Y-70785000D02*
X151160000Y-70680000D01*
X151265000Y-73350000D02*
X151265000Y-70785000D01*
X164690000Y-83510000D02*
X162800000Y-85400000D01*
X162800000Y-85400000D02*
X160775000Y-85400000D01*
X166500000Y-83510000D02*
X164690000Y-83510000D01*
X160775000Y-85400000D02*
X158885000Y-83510000D01*
X168825000Y-85835000D02*
X166500000Y-83510000D01*
X153075000Y-111050000D02*
X153075000Y-105640000D01*
X153075000Y-105640000D02*
X151265000Y-103830000D01*
X153240000Y-115850000D02*
X153240000Y-111215000D01*
X153240000Y-111215000D02*
X153075000Y-111050000D01*
X150015000Y-97500000D02*
X151265000Y-98750000D01*
X147290000Y-97500000D02*
X150015000Y-97500000D01*
X154040000Y-68180000D02*
X154900000Y-69040000D01*
X135750000Y-68180000D02*
X154040000Y-68180000D01*
X154900000Y-69040000D02*
X154900000Y-72255000D01*
X154900000Y-72255000D02*
X151265000Y-75890000D01*
X140960000Y-98750000D02*
X142210000Y-97500000D01*
X128725000Y-110425000D02*
X128725000Y-112750000D01*
X137425000Y-105400000D02*
X133750000Y-105400000D01*
X140875000Y-98750000D02*
X138900000Y-100725000D01*
X126960000Y-114515000D02*
X128725000Y-112750000D01*
X138900000Y-103925000D02*
X137425000Y-105400000D01*
X126960000Y-117250000D02*
X126960000Y-114515000D01*
X138900000Y-100725000D02*
X138900000Y-103925000D01*
X140875000Y-98750000D02*
X140960000Y-98750000D01*
X133750000Y-105400000D02*
X128725000Y-110425000D01*
M02*
