%TF.GenerationSoftware,KiCad,Pcbnew,9.0.5*%
%TF.CreationDate,2025-12-09T00:32:49+00:00*%
%TF.ProjectId,Controlo_Luminosidade,436f6e74-726f-46c6-9f5f-4c756d696e6f,rev?*%
%TF.SameCoordinates,Original*%
%TF.FileFunction,Copper,L1,Top*%
%TF.FilePolarity,Positive*%
%FSLAX46Y46*%
G04 Gerber Fmt 4.6, Leading zero omitted, Abs format (unit mm)*
G04 Created by KiCad (PCBNEW 9.0.5) date 2025-12-09 00:32:49*
%MOMM*%
%LPD*%
G01*
G04 APERTURE LIST*
G04 Aperture macros list*
%AMRoundRect*
0 Rectangle with rounded corners*
0 $1 Rounding radius*
0 $2 $3 $4 $5 $6 $7 $8 $9 X,Y pos of 4 corners*
0 Add a 4 corners polygon primitive as box body*
4,1,4,$2,$3,$4,$5,$6,$7,$8,$9,$2,$3,0*
0 Add four circle primitives for the rounded corners*
1,1,$1+$1,$2,$3*
1,1,$1+$1,$4,$5*
1,1,$1+$1,$6,$7*
1,1,$1+$1,$8,$9*
0 Add four rect primitives between the rounded corners*
20,1,$1+$1,$2,$3,$4,$5,0*
20,1,$1+$1,$4,$5,$6,$7,0*
20,1,$1+$1,$6,$7,$8,$9,0*
20,1,$1+$1,$8,$9,$2,$3,0*%
G04 Aperture macros list end*
%TA.AperFunction,ComponentPad*%
%ADD10C,1.700000*%
%TD*%
%TA.AperFunction,ComponentPad*%
%ADD11R,1.700000X1.700000*%
%TD*%
%TA.AperFunction,ComponentPad*%
%ADD12C,1.600000*%
%TD*%
%TA.AperFunction,ComponentPad*%
%ADD13C,1.400000*%
%TD*%
%TA.AperFunction,ComponentPad*%
%ADD14C,2.000000*%
%TD*%
%TA.AperFunction,ComponentPad*%
%ADD15R,2.000000X2.000000*%
%TD*%
%TA.AperFunction,ComponentPad*%
%ADD16R,3.500000X3.500000*%
%TD*%
%TA.AperFunction,ComponentPad*%
%ADD17RoundRect,0.750000X1.000000X-0.750000X1.000000X0.750000X-1.000000X0.750000X-1.000000X-0.750000X0*%
%TD*%
%TA.AperFunction,ComponentPad*%
%ADD18RoundRect,0.875000X0.875000X-0.875000X0.875000X0.875000X-0.875000X0.875000X-0.875000X-0.875000X0*%
%TD*%
%TA.AperFunction,ComponentPad*%
%ADD19R,1.800000X1.800000*%
%TD*%
%TA.AperFunction,ComponentPad*%
%ADD20C,1.800000*%
%TD*%
%TA.AperFunction,ComponentPad*%
%ADD21RoundRect,0.750000X-0.750000X-1.000000X0.750000X-1.000000X0.750000X1.000000X-0.750000X1.000000X0*%
%TD*%
%TA.AperFunction,ComponentPad*%
%ADD22RoundRect,0.875000X-0.875000X-0.875000X0.875000X-0.875000X0.875000X0.875000X-0.875000X0.875000X0*%
%TD*%
%TA.AperFunction,ComponentPad*%
%ADD23RoundRect,0.250000X-0.550000X-0.550000X0.550000X-0.550000X0.550000X0.550000X-0.550000X0.550000X0*%
%TD*%
%TA.AperFunction,ComponentPad*%
%ADD24C,1.500000*%
%TD*%
%TA.AperFunction,ComponentPad*%
%ADD25O,1.905000X2.000000*%
%TD*%
%TA.AperFunction,ComponentPad*%
%ADD26R,1.905000X2.000000*%
%TD*%
%TA.AperFunction,Conductor*%
%ADD27C,1.500000*%
%TD*%
%TA.AperFunction,Conductor*%
%ADD28C,0.300000*%
%TD*%
G04 APERTURE END LIST*
D10*
%TO.P,J7,3,Pin_3*%
%TO.N,/SERVO1*%
X163850000Y-111960000D03*
%TO.P,J7,2,Pin_2*%
%TO.N,GND*%
X166390000Y-111960000D03*
D11*
%TO.P,J7,1,Pin_1*%
%TO.N,+5V*%
X168930000Y-111960000D03*
%TD*%
D12*
%TO.P,C15,2*%
%TO.N,GND*%
X166250000Y-108825000D03*
%TO.P,C15,1*%
%TO.N,+5V*%
X168750000Y-108825000D03*
%TD*%
D10*
%TO.P,J13,4,Pin_4*%
%TO.N,GND*%
X128130000Y-68180000D03*
%TO.P,J13,3,Pin_3*%
%TO.N,+5V*%
X130670000Y-68180000D03*
%TO.P,J13,2,Pin_2*%
%TO.N,/RX_ESP-32*%
X133210000Y-68180000D03*
D11*
%TO.P,J13,1,Pin_1*%
%TO.N,/RX_ATMEGA*%
X135750000Y-68180000D03*
%TD*%
D13*
%TO.P,R1,1*%
%TO.N,/RST-AVR*%
X148980000Y-70620000D03*
%TO.P,R1,2*%
%TO.N,+5V*%
X148980000Y-65540000D03*
%TD*%
D14*
%TO.P,BZ1,2,-*%
%TO.N,GND*%
X181975000Y-73475000D03*
D15*
%TO.P,BZ1,1,+*%
%TO.N,/BUZZER*%
X174375000Y-73475000D03*
%TD*%
D10*
%TO.P,J10,3,Pin_3*%
%TO.N,GND*%
X168825000Y-88375000D03*
%TO.P,J10,2,Pin_2*%
%TO.N,Net-(J10-Pin_2)*%
X168825000Y-85835000D03*
D11*
%TO.P,J10,1,Pin_1*%
%TO.N,+5V*%
X168825000Y-83295000D03*
%TD*%
D12*
%TO.P,C10,2*%
%TO.N,GND*%
X127830000Y-79660000D03*
%TO.P,C10,1*%
%TO.N,+5V*%
X130330000Y-79660000D03*
%TD*%
%TO.P,C14,1*%
%TO.N,+5V*%
X175450000Y-108425000D03*
%TO.P,C14,2*%
%TO.N,GND*%
X177950000Y-108425000D03*
%TD*%
D13*
%TO.P,R2,1*%
%TO.N,Net-(D1-K)*%
X141260000Y-107600000D03*
%TO.P,R2,2*%
%TO.N,GND*%
X136180000Y-107600000D03*
%TD*%
D11*
%TO.P,J4,1,Pin_1*%
%TO.N,+5V*%
X135130000Y-85400000D03*
D10*
%TO.P,J4,2,Pin_2*%
%TO.N,/ECHO2*%
X132590000Y-85400000D03*
%TO.P,J4,3,Pin_3*%
%TO.N,/TRIG2*%
X130050000Y-85400000D03*
%TO.P,J4,4,Pin_4*%
%TO.N,GND*%
X127510000Y-85400000D03*
%TD*%
D12*
%TO.P,C16,1*%
%TO.N,+5V*%
X163190000Y-93660000D03*
%TO.P,C16,2*%
%TO.N,GND*%
X165690000Y-93660000D03*
%TD*%
D13*
%TO.P,R9,1*%
%TO.N,/RX_ESP-32*%
X140340000Y-75030000D03*
%TO.P,R9,2*%
%TO.N,GND*%
X145420000Y-75030000D03*
%TD*%
D16*
%TO.P,J2,1*%
%TO.N,+5V*%
X140950000Y-115675000D03*
D17*
%TO.P,J2,2*%
%TO.N,Net-(Q1-D)*%
X140950000Y-121675000D03*
D18*
%TO.P,J2,3*%
%TO.N,unconnected-(J2-Pad3)*%
X145650000Y-118675000D03*
%TD*%
D12*
%TO.P,C8,1*%
%TO.N,+5V*%
X156570000Y-58380000D03*
%TO.P,C8,2*%
%TO.N,GND*%
X156570000Y-60880000D03*
%TD*%
%TO.P,C6,1*%
%TO.N,Net-(U1-AREF)*%
X163170000Y-88880000D03*
%TO.P,C6,2*%
%TO.N,GND*%
X165670000Y-88880000D03*
%TD*%
%TO.P,C11,1*%
%TO.N,+5V*%
X139260000Y-84200000D03*
%TO.P,C11,2*%
%TO.N,GND*%
X141760000Y-84200000D03*
%TD*%
D19*
%TO.P,D1,1,K*%
%TO.N,Net-(D1-K)*%
X143205000Y-103020000D03*
D20*
%TO.P,D1,2,A*%
%TO.N,Net-(D1-A)*%
X145745000Y-103020000D03*
%TD*%
D12*
%TO.P,C12,1*%
%TO.N,+5V*%
X175250000Y-117025000D03*
%TO.P,C12,2*%
%TO.N,GND*%
X177750000Y-117025000D03*
%TD*%
D16*
%TO.P,J1,1*%
%TO.N,+5V*%
X139800000Y-55700000D03*
D21*
%TO.P,J1,2*%
%TO.N,GND*%
X133800000Y-55700000D03*
D22*
%TO.P,J1,3*%
%TO.N,unconnected-(J1-Pad3)*%
X136800000Y-60400000D03*
%TD*%
D11*
%TO.P,U4,1,VCC_LCD*%
%TO.N,+5V*%
X179650000Y-65300000D03*
D10*
%TO.P,U4,2,GND_LCD*%
%TO.N,GND*%
X179650000Y-62760000D03*
%TO.P,U4,3,SDA*%
%TO.N,/SDA*%
X177110000Y-65300000D03*
%TO.P,U4,4,SCL*%
%TO.N,/SCL*%
X177110000Y-62760000D03*
%TD*%
D12*
%TO.P,C4,1*%
%TO.N,/XTAL1*%
X129200000Y-96690000D03*
%TO.P,C4,2*%
%TO.N,GND*%
X126700000Y-96690000D03*
%TD*%
%TO.P,C2,1*%
%TO.N,+5V*%
X152950000Y-55700000D03*
%TO.P,C2,2*%
%TO.N,GND*%
X152950000Y-58200000D03*
%TD*%
D11*
%TO.P,J5,1,Pin_1*%
%TO.N,+5V*%
X135720000Y-73780000D03*
D10*
%TO.P,J5,2,Pin_2*%
%TO.N,/ECHO*%
X133180000Y-73780000D03*
%TO.P,J5,3,Pin_3*%
%TO.N,/TRIG*%
X130640000Y-73780000D03*
%TO.P,J5,4,Pin_4*%
%TO.N,GND*%
X128100000Y-73780000D03*
%TD*%
D12*
%TO.P,C5,1*%
%TO.N,+5V*%
X146390000Y-88590000D03*
%TO.P,C5,2*%
%TO.N,GND*%
X143890000Y-88590000D03*
%TD*%
D13*
%TO.P,R8,1*%
%TO.N,/TX_ATMEGA*%
X145320000Y-71280000D03*
%TO.P,R8,2*%
%TO.N,/RX_ESP-32*%
X140240000Y-71280000D03*
%TD*%
D10*
%TO.P,J6,6,GND*%
%TO.N,GND*%
X169640000Y-100295000D03*
%TO.P,J6,5,~{RST}*%
%TO.N,/RST-AVR*%
X169640000Y-97755000D03*
%TO.P,J6,4,MOSI*%
%TO.N,/MOSI*%
X172180000Y-100295000D03*
%TO.P,J6,3,SCK*%
%TO.N,/SCK*%
X172180000Y-97755000D03*
%TO.P,J6,2,VCC*%
%TO.N,+5V*%
X174720000Y-100295000D03*
D11*
%TO.P,J6,1,MISO*%
%TO.N,/MISO*%
X174720000Y-97755000D03*
%TD*%
%TO.P,J12,1,Pin_1*%
%TO.N,+5V*%
X161975000Y-115850000D03*
D10*
%TO.P,J12,2,Pin_2*%
%TO.N,/PD4{slash}SW1*%
X164515000Y-115850000D03*
%TO.P,J12,3,Pin_3*%
%TO.N,GND*%
X167055000Y-115850000D03*
%TD*%
D11*
%TO.P,J11,1,Pin_1*%
%TO.N,+5V*%
X150700000Y-115850000D03*
D10*
%TO.P,J11,2,Pin_2*%
%TO.N,/PD7{slash}SW2*%
X153240000Y-115850000D03*
%TO.P,J11,3,Pin_3*%
%TO.N,GND*%
X155780000Y-115850000D03*
%TD*%
D11*
%TO.P,J8,1,Pin_1*%
%TO.N,+5V*%
X168890000Y-105550000D03*
D10*
%TO.P,J8,2,Pin_2*%
%TO.N,GND*%
X166350000Y-105550000D03*
%TO.P,J8,3,Pin_3*%
%TO.N,/SERVO2*%
X163810000Y-105550000D03*
%TD*%
D13*
%TO.P,R3,1*%
%TO.N,/PB3{slash}GATE*%
X126960000Y-117250000D03*
%TO.P,R3,2*%
%TO.N,GND*%
X132040000Y-117250000D03*
%TD*%
D12*
%TO.P,C3,1*%
%TO.N,/XTAL2*%
X129200000Y-101630000D03*
%TO.P,C3,2*%
%TO.N,GND*%
X126700000Y-101630000D03*
%TD*%
D11*
%TO.P,J9,1,Pin_1*%
%TO.N,+5V*%
X156290000Y-54650000D03*
D10*
%TO.P,J9,2,Pin_2*%
%TO.N,/SCL*%
X158830000Y-54650000D03*
%TO.P,J9,3,Pin_3*%
%TO.N,/SDA*%
X161370000Y-54650000D03*
%TO.P,J9,4,Pin_4*%
%TO.N,GND*%
X163910000Y-54650000D03*
%TO.P,J9,5,Pin_5*%
X166450000Y-54650000D03*
%TD*%
D11*
%TO.P,J3,1,Pin_1*%
%TO.N,+5V*%
X172050000Y-54650000D03*
D10*
%TO.P,J3,2,Pin_2*%
%TO.N,/SCL*%
X174590000Y-54650000D03*
%TO.P,J3,3,Pin_3*%
%TO.N,/SDA*%
X177130000Y-54650000D03*
%TO.P,J3,4,Pin_4*%
%TO.N,+5V*%
X179670000Y-54650000D03*
%TO.P,J3,5,Pin_5*%
%TO.N,GND*%
X182210000Y-54650000D03*
%TD*%
D12*
%TO.P,C1,1*%
%TO.N,+5V*%
X146900000Y-55700000D03*
%TO.P,C1,2*%
%TO.N,GND*%
X146900000Y-58200000D03*
%TD*%
D23*
%TO.P,U1,1,~{RESET}/PC6*%
%TO.N,/RST-AVR*%
X151265000Y-73350000D03*
D12*
%TO.P,U1,2,PD0*%
%TO.N,/RX_ATMEGA*%
X151265000Y-75890000D03*
%TO.P,U1,3,PD1*%
%TO.N,/TX_ATMEGA*%
X151265000Y-78430000D03*
%TO.P,U1,4,PD2*%
%TO.N,/ECHO*%
X151265000Y-80970000D03*
%TO.P,U1,5,PD3*%
%TO.N,/ECHO2*%
X151265000Y-83510000D03*
%TO.P,U1,6,PD4*%
%TO.N,/PD4{slash}SW1*%
X151265000Y-86050000D03*
%TO.P,U1,7,VCC*%
%TO.N,+5V*%
X151265000Y-88590000D03*
%TO.P,U1,8,GND*%
%TO.N,GND*%
X151265000Y-91130000D03*
%TO.P,U1,9,XTAL1/PB6*%
%TO.N,/XTAL1*%
X151265000Y-93670000D03*
%TO.P,U1,10,XTAL2/PB7*%
%TO.N,/XTAL2*%
X151265000Y-96210000D03*
%TO.P,U1,11,PD5*%
%TO.N,/PB3{slash}GATE*%
X151265000Y-98750000D03*
%TO.P,U1,12,PD6*%
%TO.N,Net-(D1-A)*%
X151265000Y-101290000D03*
%TO.P,U1,13,PD7*%
%TO.N,/PD7{slash}SW2*%
X151265000Y-103830000D03*
%TO.P,U1,14,PB0*%
%TO.N,unconnected-(U1-PB0-Pad14)*%
X151265000Y-106370000D03*
%TO.P,U1,15,PB1*%
%TO.N,/SERVO1*%
X158885000Y-106370000D03*
%TO.P,U1,16,PB2*%
%TO.N,/SERVO2*%
X158885000Y-103830000D03*
%TO.P,U1,17,PB3*%
%TO.N,/MOSI*%
X158885000Y-101290000D03*
%TO.P,U1,18,PB4*%
%TO.N,/MISO*%
X158885000Y-98750000D03*
%TO.P,U1,19,PB5*%
%TO.N,/SCK*%
X158885000Y-96210000D03*
%TO.P,U1,20,AVCC*%
%TO.N,+5V*%
X158885000Y-93670000D03*
%TO.P,U1,21,AREF*%
%TO.N,Net-(U1-AREF)*%
X158885000Y-91130000D03*
%TO.P,U1,22,GND*%
%TO.N,GND*%
X158885000Y-88590000D03*
%TO.P,U1,23,PC0*%
%TO.N,/BUZZER*%
X158885000Y-86050000D03*
%TO.P,U1,24,PC1*%
%TO.N,Net-(J10-Pin_2)*%
X158885000Y-83510000D03*
%TO.P,U1,25,PC2*%
%TO.N,/TRIG*%
X158885000Y-80970000D03*
%TO.P,U1,26,PC3*%
%TO.N,/TRIG2*%
X158885000Y-78430000D03*
%TO.P,U1,27,PC4*%
%TO.N,/SDA*%
X158885000Y-75890000D03*
%TO.P,U1,28,PC5*%
%TO.N,/SCL*%
X158885000Y-73350000D03*
%TD*%
%TO.P,C7,1*%
%TO.N,+5V*%
X171800000Y-58010000D03*
%TO.P,C7,2*%
%TO.N,GND*%
X169300000Y-58010000D03*
%TD*%
%TO.P,C13,1*%
%TO.N,+5V*%
X171250000Y-119225000D03*
%TO.P,C13,2*%
%TO.N,GND*%
X171250000Y-121725000D03*
%TD*%
D24*
%TO.P,Y1,1,1*%
%TO.N,/XTAL2*%
X135110000Y-101490000D03*
%TO.P,Y1,2,2*%
%TO.N,/XTAL1*%
X135110000Y-96610000D03*
%TD*%
D13*
%TO.P,R7,1*%
%TO.N,/SCL*%
X162830000Y-72440000D03*
%TO.P,R7,2*%
%TO.N,+5V*%
X162830000Y-67360000D03*
%TD*%
D25*
%TO.P,Q1,3,S*%
%TO.N,GND*%
X133805000Y-112750000D03*
%TO.P,Q1,2,D*%
%TO.N,Net-(Q1-D)*%
X131265000Y-112750000D03*
D26*
%TO.P,Q1,1,G*%
%TO.N,/PB3{slash}GATE*%
X128725000Y-112750000D03*
%TD*%
D13*
%TO.P,R6,1*%
%TO.N,/SDA*%
X167880000Y-75710000D03*
%TO.P,R6,2*%
%TO.N,+5V*%
X167880000Y-70630000D03*
%TD*%
D12*
%TO.P,C17,2*%
%TO.N,GND*%
X128410000Y-90730000D03*
%TO.P,C17,1*%
%TO.N,+5V*%
X130910000Y-90730000D03*
%TD*%
%TO.P,C18,1*%
%TO.N,+5V*%
X137520000Y-89420000D03*
%TO.P,C18,2*%
%TO.N,GND*%
X140020000Y-89420000D03*
%TD*%
D27*
%TO.N,+5V*%
X176497081Y-100295000D02*
X178455000Y-98337081D01*
X174720000Y-100295000D02*
X176497081Y-100295000D01*
X174720000Y-102070000D02*
X174720000Y-100295000D01*
X171240000Y-105550000D02*
X174720000Y-102070000D01*
D28*
%TO.N,/MOSI*%
X170304000Y-102171000D02*
X159766000Y-102171000D01*
X172180000Y-100295000D02*
X170304000Y-102171000D01*
%TO.N,/MISO*%
X156700000Y-96565000D02*
X158885000Y-98750000D01*
X157651000Y-95059000D02*
X156700000Y-96010000D01*
X156700000Y-96010000D02*
X156700000Y-96565000D01*
X162439000Y-95059000D02*
X157651000Y-95059000D01*
X163070000Y-95690000D02*
X162439000Y-95059000D01*
X163130000Y-95630000D02*
X163070000Y-95690000D01*
X170720000Y-95990000D02*
X170360000Y-95630000D01*
X170360000Y-95630000D02*
X163130000Y-95630000D01*
X170770000Y-95940000D02*
X170720000Y-95990000D01*
X172905000Y-95940000D02*
X170770000Y-95940000D01*
X174720000Y-97755000D02*
X172905000Y-95940000D01*
%TO.N,/SCK*%
X171405000Y-97755000D02*
X169860000Y-96210000D01*
X172180000Y-97755000D02*
X171405000Y-97755000D01*
D27*
%TO.N,+5V*%
X171800000Y-54900000D02*
X172050000Y-54650000D01*
X171800000Y-58010000D02*
X171800000Y-54900000D01*
X161975000Y-117050000D02*
X164150000Y-119225000D01*
X161975000Y-115850000D02*
X161975000Y-117050000D01*
X164150000Y-119225000D02*
X171250000Y-119225000D01*
X172750000Y-115780000D02*
X168930000Y-111960000D01*
X172750000Y-117025000D02*
X172750000Y-115780000D01*
X172750000Y-117725000D02*
X172750000Y-117025000D01*
X171250000Y-119225000D02*
X172750000Y-117725000D01*
D28*
%TO.N,Net-(J10-Pin_2)*%
X166500000Y-83510000D02*
X158885000Y-83510000D01*
X168825000Y-85835000D02*
X166500000Y-83510000D01*
D27*
%TO.N,+5V*%
X175760000Y-83295000D02*
X178455000Y-80600000D01*
X168825000Y-83295000D02*
X175760000Y-83295000D01*
X178455000Y-80600000D02*
X178455000Y-68845000D01*
D28*
%TO.N,/BUZZER*%
X159625000Y-82400000D02*
X165450000Y-82400000D01*
X159584000Y-82359000D02*
X159625000Y-82400000D01*
X158408240Y-82359000D02*
X159584000Y-82359000D01*
X156450000Y-84925000D02*
X156450000Y-84317240D01*
X165450000Y-82400000D02*
X174375000Y-73475000D01*
X157575000Y-86050000D02*
X156450000Y-84925000D01*
X156450000Y-84317240D02*
X158408240Y-82359000D01*
X158885000Y-86050000D02*
X157575000Y-86050000D01*
D27*
%TO.N,+5V*%
X140950000Y-115675000D02*
X150525000Y-115675000D01*
X150525000Y-115675000D02*
X150700000Y-115850000D01*
X160925000Y-119250000D02*
X161975000Y-118200000D01*
X152425000Y-119250000D02*
X160925000Y-119250000D01*
X150700000Y-117525000D02*
X152425000Y-119250000D01*
X150700000Y-115850000D02*
X150700000Y-117525000D01*
X161975000Y-118200000D02*
X161975000Y-115850000D01*
D28*
%TO.N,/PD7{slash}SW2*%
X153075000Y-111050000D02*
X153075000Y-105640000D01*
X153240000Y-111215000D02*
X153075000Y-111050000D01*
X153240000Y-115850000D02*
X153240000Y-111215000D01*
X153075000Y-105640000D02*
X151265000Y-103830000D01*
%TO.N,Net-(U1-AREF)*%
X160920000Y-91130000D02*
X163170000Y-88880000D01*
X158885000Y-91130000D02*
X160920000Y-91130000D01*
D27*
%TO.N,+5V*%
X167880000Y-70630000D02*
X172300000Y-70630000D01*
D28*
%TO.N,/PB3{slash}GATE*%
X126960000Y-114515000D02*
X128725000Y-112750000D01*
X126960000Y-117250000D02*
X126960000Y-114515000D01*
D27*
%TO.N,+5V*%
X175250000Y-108625000D02*
X175450000Y-108425000D01*
X175250000Y-117025000D02*
X175250000Y-108625000D01*
X168930000Y-105590000D02*
X168890000Y-105550000D01*
X168930000Y-111960000D02*
X168930000Y-105590000D01*
X175250000Y-117025000D02*
X172750000Y-117025000D01*
D28*
%TO.N,/PB3{slash}GATE*%
X128725000Y-110425000D02*
X128725000Y-112750000D01*
X137425000Y-105400000D02*
X133750000Y-105400000D01*
X138900000Y-100725000D02*
X138900000Y-103925000D01*
X138900000Y-103925000D02*
X137425000Y-105400000D01*
X140875000Y-98750000D02*
X138900000Y-100725000D01*
X151265000Y-98750000D02*
X140875000Y-98750000D01*
X133750000Y-105400000D02*
X128725000Y-110425000D01*
D27*
%TO.N,Net-(Q1-D)*%
X139200001Y-121675000D02*
X131265000Y-113739999D01*
X140950000Y-121675000D02*
X139200001Y-121675000D01*
X131265000Y-113739999D02*
X131265000Y-112750000D01*
%TO.N,+5V*%
X137520000Y-89420000D02*
X137520000Y-87790000D01*
X137520000Y-87790000D02*
X135130000Y-85400000D01*
D28*
%TO.N,/XTAL2*%
X140390000Y-96210000D02*
X135110000Y-101490000D01*
X151265000Y-96210000D02*
X140390000Y-96210000D01*
%TO.N,/XTAL1*%
X138050000Y-93670000D02*
X135110000Y-96610000D01*
X151265000Y-93670000D02*
X138050000Y-93670000D01*
%TO.N,/XTAL2*%
X129200000Y-101630000D02*
X134970000Y-101630000D01*
X134970000Y-101630000D02*
X135110000Y-101490000D01*
%TO.N,/XTAL1*%
X135030000Y-96690000D02*
X135110000Y-96610000D01*
X129200000Y-96690000D02*
X135030000Y-96690000D01*
D27*
%TO.N,+5V*%
X135130000Y-86510000D02*
X135130000Y-85400000D01*
X130910000Y-90730000D02*
X135130000Y-86510000D01*
X135130000Y-84460000D02*
X130330000Y-79660000D01*
X135130000Y-85400000D02*
X135130000Y-84460000D01*
X138060000Y-85400000D02*
X139260000Y-84200000D01*
X135130000Y-85400000D02*
X138060000Y-85400000D01*
X135720000Y-73773001D02*
X135720000Y-73780000D01*
X130670000Y-68723001D02*
X135720000Y-73773001D01*
X130670000Y-68180000D02*
X130670000Y-68723001D01*
X143751000Y-85951000D02*
X146390000Y-88590000D01*
X141011000Y-85951000D02*
X143751000Y-85951000D01*
X139260000Y-84200000D02*
X141011000Y-85951000D01*
D28*
%TO.N,/TRIG*%
X130640000Y-73780000D02*
X138981000Y-82121000D01*
X138981000Y-82121000D02*
X157734000Y-82121000D01*
X157734000Y-82121000D02*
X158885000Y-80970000D01*
%TO.N,/ECHO*%
X151265000Y-80970000D02*
X140370000Y-80970000D01*
X140370000Y-80970000D02*
X133180000Y-73780000D01*
%TO.N,/RX_ESP-32*%
X140340000Y-71380000D02*
X140240000Y-71280000D01*
X140340000Y-75030000D02*
X140340000Y-71380000D01*
X136310000Y-71280000D02*
X133210000Y-68180000D01*
X140240000Y-71280000D02*
X136310000Y-71280000D01*
%TO.N,/TX_ATMEGA*%
X151265000Y-78430000D02*
X145320000Y-72485000D01*
X145320000Y-72485000D02*
X145320000Y-71280000D01*
D27*
%TO.N,+5V*%
X148980000Y-64880000D02*
X139800000Y-55700000D01*
X148980000Y-65540000D02*
X148980000Y-64880000D01*
X133303001Y-65540000D02*
X148980000Y-65540000D01*
X130670000Y-68173001D02*
X133303001Y-65540000D01*
X130670000Y-68180000D02*
X130670000Y-68173001D01*
D28*
%TO.N,/RX_ATMEGA*%
X154900000Y-72255000D02*
X151265000Y-75890000D01*
X154040000Y-68180000D02*
X154900000Y-69040000D01*
X154900000Y-69040000D02*
X154900000Y-72255000D01*
X135750000Y-68180000D02*
X154040000Y-68180000D01*
%TO.N,/RST-AVR*%
X151265000Y-72905000D02*
X151265000Y-73350000D01*
X148980000Y-70620000D02*
X151265000Y-72905000D01*
%TO.N,/MOSI*%
X159766000Y-102171000D02*
X158885000Y-101290000D01*
%TO.N,Net-(D1-A)*%
X145745000Y-103020000D02*
X149535000Y-103020000D01*
X149535000Y-103020000D02*
X151265000Y-101290000D01*
D27*
%TO.N,+5V*%
X162830000Y-67360000D02*
X164610000Y-67360000D01*
X181451000Y-63505999D02*
X181451000Y-57633081D01*
X164350000Y-91540000D02*
X178455000Y-91540000D01*
X178455000Y-91540000D02*
X178455000Y-80600000D01*
X172300000Y-70630000D02*
X176670000Y-70630000D01*
X177902081Y-51680000D02*
X179670000Y-53447919D01*
X156290000Y-54650000D02*
X156290000Y-52020000D01*
X152950000Y-55700000D02*
X155240000Y-55700000D01*
X169190000Y-51680000D02*
X177902081Y-51680000D01*
X164230000Y-91420000D02*
X164350000Y-91540000D01*
X179670000Y-55852081D02*
X179670000Y-54650000D01*
X163190000Y-92460000D02*
X164230000Y-91420000D01*
X158885000Y-93670000D02*
X156345000Y-93670000D01*
X163190000Y-93660000D02*
X158895000Y-93660000D01*
X179670000Y-53447919D02*
X179670000Y-54650000D01*
X158895000Y-93660000D02*
X158885000Y-93670000D01*
X156570000Y-54930000D02*
X156290000Y-54650000D01*
X172050000Y-54540000D02*
X172050000Y-54650000D01*
X181451000Y-57633081D02*
X179670000Y-55852081D01*
X178455000Y-68845000D02*
X179650000Y-67650000D01*
X151265000Y-88590000D02*
X146390000Y-88590000D01*
X179650000Y-67650000D02*
X179650000Y-65300000D01*
X168890000Y-105550000D02*
X171240000Y-105550000D01*
X146900000Y-55700000D02*
X152950000Y-55700000D01*
X169190000Y-51680000D02*
X172050000Y-54540000D01*
X178455000Y-98337081D02*
X178455000Y-91540000D01*
X139800000Y-55700000D02*
X146900000Y-55700000D01*
X155240000Y-55700000D02*
X156290000Y-54650000D01*
X164610000Y-67360000D02*
X167880000Y-70630000D01*
X179650000Y-65300000D02*
X179656999Y-65300000D01*
X179656999Y-65300000D02*
X181451000Y-63505999D01*
X156570000Y-58380000D02*
X156570000Y-54930000D01*
X156630000Y-51680000D02*
X169190000Y-51680000D01*
X156290000Y-52020000D02*
X156630000Y-51680000D01*
X156345000Y-93670000D02*
X151265000Y-88590000D01*
X167830000Y-70580000D02*
X167830000Y-70630000D01*
X176670000Y-70630000D02*
X178455000Y-68845000D01*
X163190000Y-93660000D02*
X163190000Y-92460000D01*
D28*
%TO.N,/SDA*%
X160280000Y-68790000D02*
X160330000Y-68840000D01*
X161010000Y-68840000D02*
X167880000Y-75710000D01*
X167880000Y-75710000D02*
X159065000Y-75710000D01*
X160280000Y-66530000D02*
X160280000Y-68790000D01*
X177110000Y-65300000D02*
X161510000Y-65300000D01*
X159065000Y-75710000D02*
X158885000Y-75890000D01*
X161510000Y-65300000D02*
X160280000Y-66530000D01*
X160330000Y-68840000D02*
X161010000Y-68840000D01*
X160280000Y-55740000D02*
X160280000Y-66530000D01*
X161370000Y-54650000D02*
X160280000Y-55740000D01*
%TO.N,/SCL*%
X158885000Y-73350000D02*
X161920000Y-73350000D01*
X158830000Y-54650000D02*
X158830000Y-73295000D01*
X158830000Y-73295000D02*
X158885000Y-73350000D01*
X174590000Y-60240000D02*
X174590000Y-54650000D01*
X177110000Y-62760000D02*
X174590000Y-60240000D01*
X161920000Y-73350000D02*
X162830000Y-72440000D01*
X158885000Y-73065000D02*
X158885000Y-73350000D01*
%TO.N,/SERVO1*%
X158885000Y-106370000D02*
X163850000Y-111335000D01*
X163850000Y-111335000D02*
X163850000Y-111960000D01*
%TO.N,/SERVO2*%
X162090000Y-103830000D02*
X163810000Y-105550000D01*
X158885000Y-103830000D02*
X162090000Y-103830000D01*
%TO.N,/SCK*%
X169860000Y-96210000D02*
X158885000Y-96210000D01*
%TO.N,Net-(D1-K)*%
X141260000Y-107600000D02*
X141260000Y-104965000D01*
X141260000Y-104965000D02*
X143205000Y-103020000D01*
%TD*%
M02*
