M48
; DRILL file {KiCad 9.0.5} date 2025-12-10T00:56:11+0000
; FORMAT={-:-/ absolute / metric / decimal}
; #@! TF.CreationDate,2025-12-10T00:56:11+00:00
; #@! TF.GenerationSoftware,Kicad,Pcbnew,9.0.5
; #@! TF.FileFunction,Plated,1,2,PTH
FMAT,2
METRIC
; #@! TA.AperFunction,Plated,PTH,ViaDrill
T1C0.300
; #@! TA.AperFunction,Plated,PTH,ComponentDrill
T2C0.700
; #@! TA.AperFunction,Plated,PTH,ComponentDrill
T3C0.800
; #@! TA.AperFunction,Plated,PTH,ComponentDrill
T4C0.880
; #@! TA.AperFunction,Plated,PTH,ComponentDrill
T5C0.900
; #@! TA.AperFunction,Plated,PTH,ComponentDrill
T6C1.000
; #@! TA.AperFunction,Plated,PTH,ComponentDrill
T7C1.100
%
G90
G05
T1
X146.68Y-62.8
T2
X126.96Y-117.25
X128.05Y-63.32
X132.04Y-117.25
X133.13Y-63.32
X136.02Y-71.16
X136.18Y-107.6
X141.1Y-71.16
X141.26Y-107.6
X142.21Y-97.5
X147.29Y-97.5
X151.16Y-70.68
X156.24Y-70.68
X162.83Y-67.36
X162.83Y-72.44
X167.88Y-70.63
X167.88Y-75.71
T3
X126.7Y-96.69
X126.7Y-101.63
X127.83Y-79.66
X128.41Y-90.73
X129.2Y-96.69
X129.2Y-101.63
X130.33Y-79.66
X130.91Y-90.73
X135.11Y-96.61
X135.11Y-101.49
X137.52Y-89.42
X139.26Y-84.2
X140.02Y-89.42
X141.76Y-84.2
X143.89Y-88.59
X146.39Y-88.59
X146.9Y-55.7
X146.9Y-58.2
X151.265Y-73.35
X151.265Y-75.89
X151.265Y-78.43
X151.265Y-80.97
X151.265Y-83.51
X151.265Y-86.05
X151.265Y-88.59
X151.265Y-91.13
X151.265Y-93.67
X151.265Y-96.21
X151.265Y-98.75
X151.265Y-101.29
X151.265Y-103.83
X151.265Y-106.37
X152.95Y-55.7
X152.95Y-58.2
X154.38Y-61.68
X154.38Y-64.18
X158.885Y-73.35
X158.885Y-75.89
X158.885Y-78.43
X158.885Y-80.97
X158.885Y-83.51
X158.885Y-86.05
X158.885Y-88.59
X158.885Y-91.13
X158.885Y-93.67
X158.885Y-96.21
X158.885Y-98.75
X158.885Y-101.29
X158.885Y-103.83
X158.885Y-106.37
X163.17Y-88.88
X163.19Y-93.66
X165.67Y-88.88
X165.69Y-93.66
X166.25Y-108.825
X168.75Y-108.825
X169.3Y-58.01
X171.25Y-119.225
X171.25Y-121.725
X171.8Y-58.01
X175.25Y-117.025
X175.45Y-108.425
X177.75Y-117.025
X177.95Y-108.425
T4
X131.847Y-47.42
X159.072Y-47.42
T5
X143.205Y-103.02
X145.745Y-103.02
T6
X127.43Y-74.285
X127.51Y-85.4
X128.13Y-68.18
X129.97Y-74.285
X130.05Y-85.4
X130.67Y-68.18
X132.51Y-74.285
X132.59Y-85.4
X133.21Y-68.18
X135.05Y-74.285
X135.13Y-85.4
X135.75Y-68.18
X150.7Y-115.85
X153.24Y-115.85
X155.78Y-115.85
X156.29Y-54.65
X158.83Y-54.65
X161.37Y-54.65
X161.975Y-115.85
X163.81Y-105.55
X163.85Y-111.96
X163.91Y-54.65
X164.515Y-115.85
X166.35Y-105.55
X166.39Y-111.96
X166.45Y-54.65
X167.055Y-115.85
X168.825Y-83.295
X168.825Y-85.835
X168.825Y-88.375
X168.89Y-105.55
X168.93Y-111.96
X169.64Y-97.755
X169.64Y-100.295
X172.05Y-54.65
X172.18Y-97.755
X172.18Y-100.295
X174.375Y-73.475
X174.59Y-54.65
X174.72Y-97.755
X174.72Y-100.295
X177.11Y-62.76
X177.11Y-65.3
X177.13Y-54.65
X179.65Y-62.76
X179.65Y-65.3
X179.67Y-54.65
X181.975Y-73.475
X182.21Y-54.65
T7
X128.725Y-112.75
X131.265Y-112.75
X133.805Y-112.75
T6
X133.8Y-54.7G85X133.8Y-56.7
G05
X135.8Y-60.4G85X137.8Y-60.4
G05
X139.8Y-54.7G85X139.8Y-56.7
G05
X139.95Y-115.675G85X141.95Y-115.675
G05
X139.95Y-121.675G85X141.95Y-121.675
G05
X145.65Y-119.675G85X145.65Y-117.675
G05
M30
