G04 #@! TF.GenerationSoftware,KiCad,Pcbnew,9.0.5*
G04 #@! TF.CreationDate,2025-12-11T15:55:15+00:00*
G04 #@! TF.ProjectId,Controlo_Luminosidade,436f6e74-726f-46c6-9f5f-4c756d696e6f,rev?*
G04 #@! TF.SameCoordinates,Original*
G04 #@! TF.FileFunction,Soldermask,Bot*
G04 #@! TF.FilePolarity,Negative*
%FSLAX46Y46*%
G04 Gerber Fmt 4.6, Leading zero omitted, Abs format (unit mm)*
G04 Created by KiCad (PCBNEW 9.0.5) date 2025-12-11 15:55:15*
%MOMM*%
%LPD*%
G01*
G04 APERTURE LIST*
G04 APERTURE END LIST*
G36*
X128836790Y-125390393D02*
G01*
X129000952Y-125443733D01*
X129154748Y-125522096D01*
X129294393Y-125623553D01*
X129416447Y-125745607D01*
X129517904Y-125885252D01*
X129596267Y-126039048D01*
X129649607Y-126203210D01*
X129676609Y-126373695D01*
X129676609Y-126546305D01*
X129649607Y-126716790D01*
X129596267Y-126880952D01*
X129517904Y-127034748D01*
X129416447Y-127174393D01*
X129294393Y-127296447D01*
X129154748Y-127397904D01*
X129000952Y-127476267D01*
X128836790Y-127529607D01*
X128666305Y-127556609D01*
X128493695Y-127556609D01*
X128323210Y-127529607D01*
X128159048Y-127476267D01*
X128005252Y-127397904D01*
X127865607Y-127296447D01*
X127743553Y-127174393D01*
X127642096Y-127034748D01*
X127563733Y-126880952D01*
X127510393Y-126716790D01*
X127483391Y-126546305D01*
X127483391Y-126373695D01*
X127510393Y-126203210D01*
X127563733Y-126039048D01*
X127642096Y-125885252D01*
X127743553Y-125745607D01*
X127865607Y-125623553D01*
X128005252Y-125522096D01*
X128159048Y-125443733D01*
X128323210Y-125390393D01*
X128493695Y-125363391D01*
X128666305Y-125363391D01*
X128836790Y-125390393D01*
G37*
G36*
X181886790Y-125390393D02*
G01*
X182050952Y-125443733D01*
X182204748Y-125522096D01*
X182344393Y-125623553D01*
X182466447Y-125745607D01*
X182567904Y-125885252D01*
X182646267Y-126039048D01*
X182699607Y-126203210D01*
X182726609Y-126373695D01*
X182726609Y-126546305D01*
X182699607Y-126716790D01*
X182646267Y-126880952D01*
X182567904Y-127034748D01*
X182466447Y-127174393D01*
X182344393Y-127296447D01*
X182204748Y-127397904D01*
X182050952Y-127476267D01*
X181886790Y-127529607D01*
X181716305Y-127556609D01*
X181543695Y-127556609D01*
X181373210Y-127529607D01*
X181209048Y-127476267D01*
X181055252Y-127397904D01*
X180915607Y-127296447D01*
X180793553Y-127174393D01*
X180692096Y-127034748D01*
X180613733Y-126880952D01*
X180560393Y-126716790D01*
X180533391Y-126546305D01*
X180533391Y-126373695D01*
X180560393Y-126203210D01*
X180613733Y-126039048D01*
X180692096Y-125885252D01*
X180793553Y-125745607D01*
X180915607Y-125623553D01*
X181055252Y-125522096D01*
X181209048Y-125443733D01*
X181373210Y-125390393D01*
X181543695Y-125363391D01*
X181716305Y-125363391D01*
X181886790Y-125390393D01*
G37*
G36*
X142101663Y-120190495D02*
G01*
X142110683Y-120193484D01*
X142116807Y-120194174D01*
X142188961Y-120219422D01*
X142266964Y-120245269D01*
X142272388Y-120248614D01*
X142275247Y-120249615D01*
X142341422Y-120291195D01*
X142415177Y-120336688D01*
X142538312Y-120459823D01*
X142583823Y-120533609D01*
X142625384Y-120599752D01*
X142626383Y-120602609D01*
X142629731Y-120608036D01*
X142655592Y-120686083D01*
X142680825Y-120758193D01*
X142681514Y-120764311D01*
X142684505Y-120773337D01*
X142700000Y-120925000D01*
X142700000Y-122425000D01*
X142684505Y-122576663D01*
X142681514Y-122585688D01*
X142680825Y-122591807D01*
X142655595Y-122663907D01*
X142629731Y-122741964D01*
X142626383Y-122747391D01*
X142625384Y-122750247D01*
X142583857Y-122816336D01*
X142538312Y-122890177D01*
X142415177Y-123013312D01*
X142341336Y-123058857D01*
X142275247Y-123100384D01*
X142272391Y-123101383D01*
X142266964Y-123104731D01*
X142188897Y-123130599D01*
X142116806Y-123155825D01*
X142110688Y-123156514D01*
X142101663Y-123159505D01*
X141950000Y-123175000D01*
X139950000Y-123175000D01*
X139798337Y-123159505D01*
X139789312Y-123156514D01*
X139783192Y-123155825D01*
X139711073Y-123130589D01*
X139633036Y-123104731D01*
X139627609Y-123101383D01*
X139624752Y-123100384D01*
X139558609Y-123058823D01*
X139484823Y-123013312D01*
X139361688Y-122890177D01*
X139316195Y-122816422D01*
X139274615Y-122750247D01*
X139273614Y-122747388D01*
X139270269Y-122741964D01*
X139244418Y-122663951D01*
X139219174Y-122591806D01*
X139218484Y-122585684D01*
X139215495Y-122576663D01*
X139200000Y-122425000D01*
X139200000Y-120925000D01*
X139215495Y-120773337D01*
X139218483Y-120764316D01*
X139219174Y-120758192D01*
X139244428Y-120686019D01*
X139270269Y-120608036D01*
X139273613Y-120602613D01*
X139274615Y-120599752D01*
X139316229Y-120533522D01*
X139361688Y-120459823D01*
X139484823Y-120336688D01*
X139558522Y-120291229D01*
X139624752Y-120249615D01*
X139627613Y-120248613D01*
X139633036Y-120245269D01*
X139711029Y-120219425D01*
X139783193Y-120194174D01*
X139789316Y-120193484D01*
X139798337Y-120190495D01*
X139950000Y-120175000D01*
X141950000Y-120175000D01*
X142101663Y-120190495D01*
G37*
G36*
X171482228Y-120959448D02*
G01*
X171627117Y-121019463D01*
X171757515Y-121106592D01*
X171868408Y-121217485D01*
X171955537Y-121347883D01*
X172015552Y-121492772D01*
X172046148Y-121646586D01*
X172046148Y-121803414D01*
X172015552Y-121957228D01*
X171955537Y-122102117D01*
X171868408Y-122232515D01*
X171757515Y-122343408D01*
X171627117Y-122430537D01*
X171482228Y-122490552D01*
X171328414Y-122521148D01*
X171171586Y-122521148D01*
X171017772Y-122490552D01*
X170872883Y-122430537D01*
X170742485Y-122343408D01*
X170631592Y-122232515D01*
X170544463Y-122102117D01*
X170484448Y-121957228D01*
X170453852Y-121803414D01*
X170453852Y-121646586D01*
X170484448Y-121492772D01*
X170544463Y-121347883D01*
X170631592Y-121217485D01*
X170742485Y-121106592D01*
X170872883Y-121019463D01*
X171017772Y-120959448D01*
X171171586Y-120928852D01*
X171328414Y-120928852D01*
X171482228Y-120959448D01*
G37*
G36*
X146643125Y-116933010D02*
G01*
X146651782Y-116935162D01*
X146661059Y-116935893D01*
X146742944Y-116957833D01*
X146826741Y-116978673D01*
X146833818Y-116982183D01*
X146838457Y-116983426D01*
X146916395Y-117023137D01*
X146996247Y-117062741D01*
X146999929Y-117065700D01*
X147001376Y-117066438D01*
X147072826Y-117124297D01*
X147143718Y-117181282D01*
X147200727Y-117252205D01*
X147258561Y-117323623D01*
X147259297Y-117325069D01*
X147262259Y-117328753D01*
X147301880Y-117408641D01*
X147341573Y-117486542D01*
X147342815Y-117491178D01*
X147346327Y-117498259D01*
X147367175Y-117582093D01*
X147389106Y-117663940D01*
X147389835Y-117673212D01*
X147391990Y-117681875D01*
X147400000Y-117800000D01*
X147400000Y-119550000D01*
X147391990Y-119668125D01*
X147389835Y-119676788D01*
X147389106Y-119686059D01*
X147367178Y-119767892D01*
X147346327Y-119851741D01*
X147342814Y-119858822D01*
X147341573Y-119863457D01*
X147301898Y-119941321D01*
X147262259Y-120021247D01*
X147259296Y-120024932D01*
X147258561Y-120026376D01*
X147200837Y-120097658D01*
X147143718Y-120168718D01*
X147072658Y-120225837D01*
X147001376Y-120283561D01*
X146999932Y-120284296D01*
X146996247Y-120287259D01*
X146916321Y-120326898D01*
X146838457Y-120366573D01*
X146833822Y-120367814D01*
X146826741Y-120371327D01*
X146742892Y-120392178D01*
X146661059Y-120414106D01*
X146651788Y-120414835D01*
X146643125Y-120416990D01*
X146525000Y-120425000D01*
X144775000Y-120425000D01*
X144656875Y-120416990D01*
X144648212Y-120414835D01*
X144638940Y-120414106D01*
X144557093Y-120392175D01*
X144473259Y-120371327D01*
X144466178Y-120367815D01*
X144461542Y-120366573D01*
X144383641Y-120326880D01*
X144303753Y-120287259D01*
X144300069Y-120284297D01*
X144298623Y-120283561D01*
X144227205Y-120225727D01*
X144156282Y-120168718D01*
X144099297Y-120097826D01*
X144041438Y-120026376D01*
X144040700Y-120024929D01*
X144037741Y-120021247D01*
X143998137Y-119941395D01*
X143958426Y-119863457D01*
X143957183Y-119858818D01*
X143953673Y-119851741D01*
X143932833Y-119767944D01*
X143910893Y-119686059D01*
X143910162Y-119676782D01*
X143908010Y-119668125D01*
X143900000Y-119550000D01*
X143900000Y-117800000D01*
X143908010Y-117681875D01*
X143910162Y-117673218D01*
X143910893Y-117663940D01*
X143932837Y-117582041D01*
X143953673Y-117498259D01*
X143957182Y-117491182D01*
X143958426Y-117486542D01*
X143998156Y-117408567D01*
X144037741Y-117328753D01*
X144040699Y-117325072D01*
X144041438Y-117323623D01*
X144099406Y-117252037D01*
X144156282Y-117181282D01*
X144227037Y-117124406D01*
X144298623Y-117066438D01*
X144300072Y-117065699D01*
X144303753Y-117062741D01*
X144383567Y-117023156D01*
X144461542Y-116983426D01*
X144466182Y-116982182D01*
X144473259Y-116978673D01*
X144557041Y-116957837D01*
X144638940Y-116935893D01*
X144648218Y-116935162D01*
X144656875Y-116933010D01*
X144775000Y-116925000D01*
X146525000Y-116925000D01*
X146643125Y-116933010D01*
G37*
G36*
X171482228Y-118459448D02*
G01*
X171627117Y-118519463D01*
X171757515Y-118606592D01*
X171868408Y-118717485D01*
X171955537Y-118847883D01*
X172015552Y-118992772D01*
X172046148Y-119146586D01*
X172046148Y-119303414D01*
X172015552Y-119457228D01*
X171955537Y-119602117D01*
X171868408Y-119732515D01*
X171757515Y-119843408D01*
X171627117Y-119930537D01*
X171482228Y-119990552D01*
X171328414Y-120021148D01*
X171171586Y-120021148D01*
X171017772Y-119990552D01*
X170872883Y-119930537D01*
X170742485Y-119843408D01*
X170631592Y-119732515D01*
X170544463Y-119602117D01*
X170484448Y-119457228D01*
X170453852Y-119303414D01*
X170453852Y-119146586D01*
X170484448Y-118992772D01*
X170544463Y-118847883D01*
X170631592Y-118717485D01*
X170742485Y-118606592D01*
X170872883Y-118519463D01*
X171017772Y-118459448D01*
X171171586Y-118428852D01*
X171328414Y-118428852D01*
X171482228Y-118459448D01*
G37*
G36*
X127163199Y-116580142D02*
G01*
X127289978Y-116632655D01*
X127404075Y-116708893D01*
X127501107Y-116805925D01*
X127577345Y-116920022D01*
X127629858Y-117046801D01*
X127656629Y-117181388D01*
X127656629Y-117318612D01*
X127629858Y-117453199D01*
X127577345Y-117579978D01*
X127501107Y-117694075D01*
X127404075Y-117791107D01*
X127289978Y-117867345D01*
X127163199Y-117919858D01*
X127028612Y-117946629D01*
X126891388Y-117946629D01*
X126756801Y-117919858D01*
X126630022Y-117867345D01*
X126515925Y-117791107D01*
X126418893Y-117694075D01*
X126342655Y-117579978D01*
X126290142Y-117453199D01*
X126263371Y-117318612D01*
X126263371Y-117181388D01*
X126290142Y-117046801D01*
X126342655Y-116920022D01*
X126418893Y-116805925D01*
X126515925Y-116708893D01*
X126630022Y-116632655D01*
X126756801Y-116580142D01*
X126891388Y-116553371D01*
X127028612Y-116553371D01*
X127163199Y-116580142D01*
G37*
G36*
X132243199Y-116580142D02*
G01*
X132369978Y-116632655D01*
X132484075Y-116708893D01*
X132581107Y-116805925D01*
X132657345Y-116920022D01*
X132709858Y-117046801D01*
X132736629Y-117181388D01*
X132736629Y-117318612D01*
X132709858Y-117453199D01*
X132657345Y-117579978D01*
X132581107Y-117694075D01*
X132484075Y-117791107D01*
X132369978Y-117867345D01*
X132243199Y-117919858D01*
X132108612Y-117946629D01*
X131971388Y-117946629D01*
X131836801Y-117919858D01*
X131710022Y-117867345D01*
X131595925Y-117791107D01*
X131498893Y-117694075D01*
X131422655Y-117579978D01*
X131370142Y-117453199D01*
X131343371Y-117318612D01*
X131343371Y-117181388D01*
X131370142Y-117046801D01*
X131422655Y-116920022D01*
X131498893Y-116805925D01*
X131595925Y-116708893D01*
X131710022Y-116632655D01*
X131836801Y-116580142D01*
X131971388Y-116553371D01*
X132108612Y-116553371D01*
X132243199Y-116580142D01*
G37*
G36*
X175482228Y-116259448D02*
G01*
X175627117Y-116319463D01*
X175757515Y-116406592D01*
X175868408Y-116517485D01*
X175955537Y-116647883D01*
X176015552Y-116792772D01*
X176046148Y-116946586D01*
X176046148Y-117103414D01*
X176015552Y-117257228D01*
X175955537Y-117402117D01*
X175868408Y-117532515D01*
X175757515Y-117643408D01*
X175627117Y-117730537D01*
X175482228Y-117790552D01*
X175328414Y-117821148D01*
X175171586Y-117821148D01*
X175017772Y-117790552D01*
X174872883Y-117730537D01*
X174742485Y-117643408D01*
X174631592Y-117532515D01*
X174544463Y-117402117D01*
X174484448Y-117257228D01*
X174453852Y-117103414D01*
X174453852Y-116946586D01*
X174484448Y-116792772D01*
X174544463Y-116647883D01*
X174631592Y-116517485D01*
X174742485Y-116406592D01*
X174872883Y-116319463D01*
X175017772Y-116259448D01*
X175171586Y-116228852D01*
X175328414Y-116228852D01*
X175482228Y-116259448D01*
G37*
G36*
X177982228Y-116259448D02*
G01*
X178127117Y-116319463D01*
X178257515Y-116406592D01*
X178368408Y-116517485D01*
X178455537Y-116647883D01*
X178515552Y-116792772D01*
X178546148Y-116946586D01*
X178546148Y-117103414D01*
X178515552Y-117257228D01*
X178455537Y-117402117D01*
X178368408Y-117532515D01*
X178257515Y-117643408D01*
X178127117Y-117730537D01*
X177982228Y-117790552D01*
X177828414Y-117821148D01*
X177671586Y-117821148D01*
X177517772Y-117790552D01*
X177372883Y-117730537D01*
X177242485Y-117643408D01*
X177131592Y-117532515D01*
X177044463Y-117402117D01*
X176984448Y-117257228D01*
X176953852Y-117103414D01*
X176953852Y-116946586D01*
X176984448Y-116792772D01*
X177044463Y-116647883D01*
X177131592Y-116517485D01*
X177242485Y-116406592D01*
X177372883Y-116319463D01*
X177517772Y-116259448D01*
X177671586Y-116228852D01*
X177828414Y-116228852D01*
X177982228Y-116259448D01*
G37*
G36*
X142700000Y-117425000D02*
G01*
X139200000Y-117425000D01*
X139200000Y-113925000D01*
X142700000Y-113925000D01*
X142700000Y-117425000D01*
G37*
G36*
X151550000Y-116700000D02*
G01*
X149850000Y-116700000D01*
X149850000Y-115000000D01*
X151550000Y-115000000D01*
X151550000Y-116700000D01*
G37*
G36*
X162825000Y-116700000D02*
G01*
X161125000Y-116700000D01*
X161125000Y-115000000D01*
X162825000Y-115000000D01*
X162825000Y-116700000D01*
G37*
G36*
X153486742Y-115036601D02*
G01*
X153640687Y-115100367D01*
X153779234Y-115192941D01*
X153897059Y-115310766D01*
X153989633Y-115449313D01*
X154053399Y-115603258D01*
X154085907Y-115766685D01*
X154085907Y-115933315D01*
X154053399Y-116096742D01*
X153989633Y-116250687D01*
X153897059Y-116389234D01*
X153779234Y-116507059D01*
X153640687Y-116599633D01*
X153486742Y-116663399D01*
X153323315Y-116695907D01*
X153156685Y-116695907D01*
X152993258Y-116663399D01*
X152839313Y-116599633D01*
X152700766Y-116507059D01*
X152582941Y-116389234D01*
X152490367Y-116250687D01*
X152426601Y-116096742D01*
X152394093Y-115933315D01*
X152394093Y-115766685D01*
X152426601Y-115603258D01*
X152490367Y-115449313D01*
X152582941Y-115310766D01*
X152700766Y-115192941D01*
X152839313Y-115100367D01*
X152993258Y-115036601D01*
X153156685Y-115004093D01*
X153323315Y-115004093D01*
X153486742Y-115036601D01*
G37*
G36*
X156026742Y-115036601D02*
G01*
X156180687Y-115100367D01*
X156319234Y-115192941D01*
X156437059Y-115310766D01*
X156529633Y-115449313D01*
X156593399Y-115603258D01*
X156625907Y-115766685D01*
X156625907Y-115933315D01*
X156593399Y-116096742D01*
X156529633Y-116250687D01*
X156437059Y-116389234D01*
X156319234Y-116507059D01*
X156180687Y-116599633D01*
X156026742Y-116663399D01*
X155863315Y-116695907D01*
X155696685Y-116695907D01*
X155533258Y-116663399D01*
X155379313Y-116599633D01*
X155240766Y-116507059D01*
X155122941Y-116389234D01*
X155030367Y-116250687D01*
X154966601Y-116096742D01*
X154934093Y-115933315D01*
X154934093Y-115766685D01*
X154966601Y-115603258D01*
X155030367Y-115449313D01*
X155122941Y-115310766D01*
X155240766Y-115192941D01*
X155379313Y-115100367D01*
X155533258Y-115036601D01*
X155696685Y-115004093D01*
X155863315Y-115004093D01*
X156026742Y-115036601D01*
G37*
G36*
X164761742Y-115036601D02*
G01*
X164915687Y-115100367D01*
X165054234Y-115192941D01*
X165172059Y-115310766D01*
X165264633Y-115449313D01*
X165328399Y-115603258D01*
X165360907Y-115766685D01*
X165360907Y-115933315D01*
X165328399Y-116096742D01*
X165264633Y-116250687D01*
X165172059Y-116389234D01*
X165054234Y-116507059D01*
X164915687Y-116599633D01*
X164761742Y-116663399D01*
X164598315Y-116695907D01*
X164431685Y-116695907D01*
X164268258Y-116663399D01*
X164114313Y-116599633D01*
X163975766Y-116507059D01*
X163857941Y-116389234D01*
X163765367Y-116250687D01*
X163701601Y-116096742D01*
X163669093Y-115933315D01*
X163669093Y-115766685D01*
X163701601Y-115603258D01*
X163765367Y-115449313D01*
X163857941Y-115310766D01*
X163975766Y-115192941D01*
X164114313Y-115100367D01*
X164268258Y-115036601D01*
X164431685Y-115004093D01*
X164598315Y-115004093D01*
X164761742Y-115036601D01*
G37*
G36*
X167301742Y-115036601D02*
G01*
X167455687Y-115100367D01*
X167594234Y-115192941D01*
X167712059Y-115310766D01*
X167804633Y-115449313D01*
X167868399Y-115603258D01*
X167900907Y-115766685D01*
X167900907Y-115933315D01*
X167868399Y-116096742D01*
X167804633Y-116250687D01*
X167712059Y-116389234D01*
X167594234Y-116507059D01*
X167455687Y-116599633D01*
X167301742Y-116663399D01*
X167138315Y-116695907D01*
X166971685Y-116695907D01*
X166808258Y-116663399D01*
X166654313Y-116599633D01*
X166515766Y-116507059D01*
X166397941Y-116389234D01*
X166305367Y-116250687D01*
X166241601Y-116096742D01*
X166209093Y-115933315D01*
X166209093Y-115766685D01*
X166241601Y-115603258D01*
X166305367Y-115449313D01*
X166397941Y-115310766D01*
X166515766Y-115192941D01*
X166654313Y-115100367D01*
X166808258Y-115036601D01*
X166971685Y-115004093D01*
X167138315Y-115004093D01*
X167301742Y-115036601D01*
G37*
G36*
X129677500Y-113750000D02*
G01*
X127772500Y-113750000D01*
X127772500Y-111750000D01*
X129677500Y-111750000D01*
X129677500Y-113750000D01*
G37*
G36*
X131541496Y-111791014D02*
G01*
X131714005Y-111862470D01*
X131869260Y-111966208D01*
X132001292Y-112098240D01*
X132105030Y-112253495D01*
X132176486Y-112426004D01*
X132212913Y-112609139D01*
X132217500Y-112702500D01*
X132217500Y-112797500D01*
X132212913Y-112890861D01*
X132176486Y-113073996D01*
X132105030Y-113246505D01*
X132001292Y-113401760D01*
X131869260Y-113533792D01*
X131714005Y-113637530D01*
X131541496Y-113708986D01*
X131358361Y-113745413D01*
X131171639Y-113745413D01*
X130988504Y-113708986D01*
X130815995Y-113637530D01*
X130660740Y-113533792D01*
X130528708Y-113401760D01*
X130424970Y-113246505D01*
X130353514Y-113073996D01*
X130317087Y-112890861D01*
X130312500Y-112797500D01*
X130312500Y-112702500D01*
X130317087Y-112609139D01*
X130353514Y-112426004D01*
X130424970Y-112253495D01*
X130528708Y-112098240D01*
X130660740Y-111966208D01*
X130815995Y-111862470D01*
X130988504Y-111791014D01*
X131171639Y-111754587D01*
X131358361Y-111754587D01*
X131541496Y-111791014D01*
G37*
G36*
X134081496Y-111791014D02*
G01*
X134254005Y-111862470D01*
X134409260Y-111966208D01*
X134541292Y-112098240D01*
X134645030Y-112253495D01*
X134716486Y-112426004D01*
X134752913Y-112609139D01*
X134757500Y-112702500D01*
X134757500Y-112797500D01*
X134752913Y-112890861D01*
X134716486Y-113073996D01*
X134645030Y-113246505D01*
X134541292Y-113401760D01*
X134409260Y-113533792D01*
X134254005Y-113637530D01*
X134081496Y-113708986D01*
X133898361Y-113745413D01*
X133711639Y-113745413D01*
X133528504Y-113708986D01*
X133355995Y-113637530D01*
X133200740Y-113533792D01*
X133068708Y-113401760D01*
X132964970Y-113246505D01*
X132893514Y-113073996D01*
X132857087Y-112890861D01*
X132852500Y-112797500D01*
X132852500Y-112702500D01*
X132857087Y-112609139D01*
X132893514Y-112426004D01*
X132964970Y-112253495D01*
X133068708Y-112098240D01*
X133200740Y-111966208D01*
X133355995Y-111862470D01*
X133528504Y-111791014D01*
X133711639Y-111754587D01*
X133898361Y-111754587D01*
X134081496Y-111791014D01*
G37*
G36*
X169780000Y-112810000D02*
G01*
X168080000Y-112810000D01*
X168080000Y-111110000D01*
X169780000Y-111110000D01*
X169780000Y-112810000D01*
G37*
G36*
X164096742Y-111146601D02*
G01*
X164250687Y-111210367D01*
X164389234Y-111302941D01*
X164507059Y-111420766D01*
X164599633Y-111559313D01*
X164663399Y-111713258D01*
X164695907Y-111876685D01*
X164695907Y-112043315D01*
X164663399Y-112206742D01*
X164599633Y-112360687D01*
X164507059Y-112499234D01*
X164389234Y-112617059D01*
X164250687Y-112709633D01*
X164096742Y-112773399D01*
X163933315Y-112805907D01*
X163766685Y-112805907D01*
X163603258Y-112773399D01*
X163449313Y-112709633D01*
X163310766Y-112617059D01*
X163192941Y-112499234D01*
X163100367Y-112360687D01*
X163036601Y-112206742D01*
X163004093Y-112043315D01*
X163004093Y-111876685D01*
X163036601Y-111713258D01*
X163100367Y-111559313D01*
X163192941Y-111420766D01*
X163310766Y-111302941D01*
X163449313Y-111210367D01*
X163603258Y-111146601D01*
X163766685Y-111114093D01*
X163933315Y-111114093D01*
X164096742Y-111146601D01*
G37*
G36*
X166636742Y-111146601D02*
G01*
X166790687Y-111210367D01*
X166929234Y-111302941D01*
X167047059Y-111420766D01*
X167139633Y-111559313D01*
X167203399Y-111713258D01*
X167235907Y-111876685D01*
X167235907Y-112043315D01*
X167203399Y-112206742D01*
X167139633Y-112360687D01*
X167047059Y-112499234D01*
X166929234Y-112617059D01*
X166790687Y-112709633D01*
X166636742Y-112773399D01*
X166473315Y-112805907D01*
X166306685Y-112805907D01*
X166143258Y-112773399D01*
X165989313Y-112709633D01*
X165850766Y-112617059D01*
X165732941Y-112499234D01*
X165640367Y-112360687D01*
X165576601Y-112206742D01*
X165544093Y-112043315D01*
X165544093Y-111876685D01*
X165576601Y-111713258D01*
X165640367Y-111559313D01*
X165732941Y-111420766D01*
X165850766Y-111302941D01*
X165989313Y-111210367D01*
X166143258Y-111146601D01*
X166306685Y-111114093D01*
X166473315Y-111114093D01*
X166636742Y-111146601D01*
G37*
G36*
X166482228Y-108059448D02*
G01*
X166627117Y-108119463D01*
X166757515Y-108206592D01*
X166868408Y-108317485D01*
X166955537Y-108447883D01*
X167015552Y-108592772D01*
X167046148Y-108746586D01*
X167046148Y-108903414D01*
X167015552Y-109057228D01*
X166955537Y-109202117D01*
X166868408Y-109332515D01*
X166757515Y-109443408D01*
X166627117Y-109530537D01*
X166482228Y-109590552D01*
X166328414Y-109621148D01*
X166171586Y-109621148D01*
X166017772Y-109590552D01*
X165872883Y-109530537D01*
X165742485Y-109443408D01*
X165631592Y-109332515D01*
X165544463Y-109202117D01*
X165484448Y-109057228D01*
X165453852Y-108903414D01*
X165453852Y-108746586D01*
X165484448Y-108592772D01*
X165544463Y-108447883D01*
X165631592Y-108317485D01*
X165742485Y-108206592D01*
X165872883Y-108119463D01*
X166017772Y-108059448D01*
X166171586Y-108028852D01*
X166328414Y-108028852D01*
X166482228Y-108059448D01*
G37*
G36*
X168982228Y-108059448D02*
G01*
X169127117Y-108119463D01*
X169257515Y-108206592D01*
X169368408Y-108317485D01*
X169455537Y-108447883D01*
X169515552Y-108592772D01*
X169546148Y-108746586D01*
X169546148Y-108903414D01*
X169515552Y-109057228D01*
X169455537Y-109202117D01*
X169368408Y-109332515D01*
X169257515Y-109443408D01*
X169127117Y-109530537D01*
X168982228Y-109590552D01*
X168828414Y-109621148D01*
X168671586Y-109621148D01*
X168517772Y-109590552D01*
X168372883Y-109530537D01*
X168242485Y-109443408D01*
X168131592Y-109332515D01*
X168044463Y-109202117D01*
X167984448Y-109057228D01*
X167953852Y-108903414D01*
X167953852Y-108746586D01*
X167984448Y-108592772D01*
X168044463Y-108447883D01*
X168131592Y-108317485D01*
X168242485Y-108206592D01*
X168372883Y-108119463D01*
X168517772Y-108059448D01*
X168671586Y-108028852D01*
X168828414Y-108028852D01*
X168982228Y-108059448D01*
G37*
G36*
X175682228Y-107659448D02*
G01*
X175827117Y-107719463D01*
X175957515Y-107806592D01*
X176068408Y-107917485D01*
X176155537Y-108047883D01*
X176215552Y-108192772D01*
X176246148Y-108346586D01*
X176246148Y-108503414D01*
X176215552Y-108657228D01*
X176155537Y-108802117D01*
X176068408Y-108932515D01*
X175957515Y-109043408D01*
X175827117Y-109130537D01*
X175682228Y-109190552D01*
X175528414Y-109221148D01*
X175371586Y-109221148D01*
X175217772Y-109190552D01*
X175072883Y-109130537D01*
X174942485Y-109043408D01*
X174831592Y-108932515D01*
X174744463Y-108802117D01*
X174684448Y-108657228D01*
X174653852Y-108503414D01*
X174653852Y-108346586D01*
X174684448Y-108192772D01*
X174744463Y-108047883D01*
X174831592Y-107917485D01*
X174942485Y-107806592D01*
X175072883Y-107719463D01*
X175217772Y-107659448D01*
X175371586Y-107628852D01*
X175528414Y-107628852D01*
X175682228Y-107659448D01*
G37*
G36*
X178182228Y-107659448D02*
G01*
X178327117Y-107719463D01*
X178457515Y-107806592D01*
X178568408Y-107917485D01*
X178655537Y-108047883D01*
X178715552Y-108192772D01*
X178746148Y-108346586D01*
X178746148Y-108503414D01*
X178715552Y-108657228D01*
X178655537Y-108802117D01*
X178568408Y-108932515D01*
X178457515Y-109043408D01*
X178327117Y-109130537D01*
X178182228Y-109190552D01*
X178028414Y-109221148D01*
X177871586Y-109221148D01*
X177717772Y-109190552D01*
X177572883Y-109130537D01*
X177442485Y-109043408D01*
X177331592Y-108932515D01*
X177244463Y-108802117D01*
X177184448Y-108657228D01*
X177153852Y-108503414D01*
X177153852Y-108346586D01*
X177184448Y-108192772D01*
X177244463Y-108047883D01*
X177331592Y-107917485D01*
X177442485Y-107806592D01*
X177572883Y-107719463D01*
X177717772Y-107659448D01*
X177871586Y-107628852D01*
X178028414Y-107628852D01*
X178182228Y-107659448D01*
G37*
G36*
X136383199Y-106930142D02*
G01*
X136509978Y-106982655D01*
X136624075Y-107058893D01*
X136721107Y-107155925D01*
X136797345Y-107270022D01*
X136849858Y-107396801D01*
X136876629Y-107531388D01*
X136876629Y-107668612D01*
X136849858Y-107803199D01*
X136797345Y-107929978D01*
X136721107Y-108044075D01*
X136624075Y-108141107D01*
X136509978Y-108217345D01*
X136383199Y-108269858D01*
X136248612Y-108296629D01*
X136111388Y-108296629D01*
X135976801Y-108269858D01*
X135850022Y-108217345D01*
X135735925Y-108141107D01*
X135638893Y-108044075D01*
X135562655Y-107929978D01*
X135510142Y-107803199D01*
X135483371Y-107668612D01*
X135483371Y-107531388D01*
X135510142Y-107396801D01*
X135562655Y-107270022D01*
X135638893Y-107155925D01*
X135735925Y-107058893D01*
X135850022Y-106982655D01*
X135976801Y-106930142D01*
X136111388Y-106903371D01*
X136248612Y-106903371D01*
X136383199Y-106930142D01*
G37*
G36*
X141463199Y-106930142D02*
G01*
X141589978Y-106982655D01*
X141704075Y-107058893D01*
X141801107Y-107155925D01*
X141877345Y-107270022D01*
X141929858Y-107396801D01*
X141956629Y-107531388D01*
X141956629Y-107668612D01*
X141929858Y-107803199D01*
X141877345Y-107929978D01*
X141801107Y-108044075D01*
X141704075Y-108141107D01*
X141589978Y-108217345D01*
X141463199Y-108269858D01*
X141328612Y-108296629D01*
X141191388Y-108296629D01*
X141056801Y-108269858D01*
X140930022Y-108217345D01*
X140815925Y-108141107D01*
X140718893Y-108044075D01*
X140642655Y-107929978D01*
X140590142Y-107803199D01*
X140563371Y-107668612D01*
X140563371Y-107531388D01*
X140590142Y-107396801D01*
X140642655Y-107270022D01*
X140718893Y-107155925D01*
X140815925Y-107058893D01*
X140930022Y-106982655D01*
X141056801Y-106930142D01*
X141191388Y-106903371D01*
X141328612Y-106903371D01*
X141463199Y-106930142D01*
G37*
G36*
X151497228Y-105604448D02*
G01*
X151642117Y-105664463D01*
X151772515Y-105751592D01*
X151883408Y-105862485D01*
X151970537Y-105992883D01*
X152030552Y-106137772D01*
X152061148Y-106291586D01*
X152061148Y-106448414D01*
X152030552Y-106602228D01*
X151970537Y-106747117D01*
X151883408Y-106877515D01*
X151772515Y-106988408D01*
X151642117Y-107075537D01*
X151497228Y-107135552D01*
X151343414Y-107166148D01*
X151186586Y-107166148D01*
X151032772Y-107135552D01*
X150887883Y-107075537D01*
X150757485Y-106988408D01*
X150646592Y-106877515D01*
X150559463Y-106747117D01*
X150499448Y-106602228D01*
X150468852Y-106448414D01*
X150468852Y-106291586D01*
X150499448Y-106137772D01*
X150559463Y-105992883D01*
X150646592Y-105862485D01*
X150757485Y-105751592D01*
X150887883Y-105664463D01*
X151032772Y-105604448D01*
X151186586Y-105573852D01*
X151343414Y-105573852D01*
X151497228Y-105604448D01*
G37*
G36*
X159117228Y-105604448D02*
G01*
X159262117Y-105664463D01*
X159392515Y-105751592D01*
X159503408Y-105862485D01*
X159590537Y-105992883D01*
X159650552Y-106137772D01*
X159681148Y-106291586D01*
X159681148Y-106448414D01*
X159650552Y-106602228D01*
X159590537Y-106747117D01*
X159503408Y-106877515D01*
X159392515Y-106988408D01*
X159262117Y-107075537D01*
X159117228Y-107135552D01*
X158963414Y-107166148D01*
X158806586Y-107166148D01*
X158652772Y-107135552D01*
X158507883Y-107075537D01*
X158377485Y-106988408D01*
X158266592Y-106877515D01*
X158179463Y-106747117D01*
X158119448Y-106602228D01*
X158088852Y-106448414D01*
X158088852Y-106291586D01*
X158119448Y-106137772D01*
X158179463Y-105992883D01*
X158266592Y-105862485D01*
X158377485Y-105751592D01*
X158507883Y-105664463D01*
X158652772Y-105604448D01*
X158806586Y-105573852D01*
X158963414Y-105573852D01*
X159117228Y-105604448D01*
G37*
G36*
X169740000Y-106400000D02*
G01*
X168040000Y-106400000D01*
X168040000Y-104700000D01*
X169740000Y-104700000D01*
X169740000Y-106400000D01*
G37*
G36*
X164056742Y-104736601D02*
G01*
X164210687Y-104800367D01*
X164349234Y-104892941D01*
X164467059Y-105010766D01*
X164559633Y-105149313D01*
X164623399Y-105303258D01*
X164655907Y-105466685D01*
X164655907Y-105633315D01*
X164623399Y-105796742D01*
X164559633Y-105950687D01*
X164467059Y-106089234D01*
X164349234Y-106207059D01*
X164210687Y-106299633D01*
X164056742Y-106363399D01*
X163893315Y-106395907D01*
X163726685Y-106395907D01*
X163563258Y-106363399D01*
X163409313Y-106299633D01*
X163270766Y-106207059D01*
X163152941Y-106089234D01*
X163060367Y-105950687D01*
X162996601Y-105796742D01*
X162964093Y-105633315D01*
X162964093Y-105466685D01*
X162996601Y-105303258D01*
X163060367Y-105149313D01*
X163152941Y-105010766D01*
X163270766Y-104892941D01*
X163409313Y-104800367D01*
X163563258Y-104736601D01*
X163726685Y-104704093D01*
X163893315Y-104704093D01*
X164056742Y-104736601D01*
G37*
G36*
X166596742Y-104736601D02*
G01*
X166750687Y-104800367D01*
X166889234Y-104892941D01*
X167007059Y-105010766D01*
X167099633Y-105149313D01*
X167163399Y-105303258D01*
X167195907Y-105466685D01*
X167195907Y-105633315D01*
X167163399Y-105796742D01*
X167099633Y-105950687D01*
X167007059Y-106089234D01*
X166889234Y-106207059D01*
X166750687Y-106299633D01*
X166596742Y-106363399D01*
X166433315Y-106395907D01*
X166266685Y-106395907D01*
X166103258Y-106363399D01*
X165949313Y-106299633D01*
X165810766Y-106207059D01*
X165692941Y-106089234D01*
X165600367Y-105950687D01*
X165536601Y-105796742D01*
X165504093Y-105633315D01*
X165504093Y-105466685D01*
X165536601Y-105303258D01*
X165600367Y-105149313D01*
X165692941Y-105010766D01*
X165810766Y-104892941D01*
X165949313Y-104800367D01*
X166103258Y-104736601D01*
X166266685Y-104704093D01*
X166433315Y-104704093D01*
X166596742Y-104736601D01*
G37*
G36*
X151497228Y-103064448D02*
G01*
X151642117Y-103124463D01*
X151772515Y-103211592D01*
X151883408Y-103322485D01*
X151970537Y-103452883D01*
X152030552Y-103597772D01*
X152061148Y-103751586D01*
X152061148Y-103908414D01*
X152030552Y-104062228D01*
X151970537Y-104207117D01*
X151883408Y-104337515D01*
X151772515Y-104448408D01*
X151642117Y-104535537D01*
X151497228Y-104595552D01*
X151343414Y-104626148D01*
X151186586Y-104626148D01*
X151032772Y-104595552D01*
X150887883Y-104535537D01*
X150757485Y-104448408D01*
X150646592Y-104337515D01*
X150559463Y-104207117D01*
X150499448Y-104062228D01*
X150468852Y-103908414D01*
X150468852Y-103751586D01*
X150499448Y-103597772D01*
X150559463Y-103452883D01*
X150646592Y-103322485D01*
X150757485Y-103211592D01*
X150887883Y-103124463D01*
X151032772Y-103064448D01*
X151186586Y-103033852D01*
X151343414Y-103033852D01*
X151497228Y-103064448D01*
G37*
G36*
X159117228Y-103064448D02*
G01*
X159262117Y-103124463D01*
X159392515Y-103211592D01*
X159503408Y-103322485D01*
X159590537Y-103452883D01*
X159650552Y-103597772D01*
X159681148Y-103751586D01*
X159681148Y-103908414D01*
X159650552Y-104062228D01*
X159590537Y-104207117D01*
X159503408Y-104337515D01*
X159392515Y-104448408D01*
X159262117Y-104535537D01*
X159117228Y-104595552D01*
X158963414Y-104626148D01*
X158806586Y-104626148D01*
X158652772Y-104595552D01*
X158507883Y-104535537D01*
X158377485Y-104448408D01*
X158266592Y-104337515D01*
X158179463Y-104207117D01*
X158119448Y-104062228D01*
X158088852Y-103908414D01*
X158088852Y-103751586D01*
X158119448Y-103597772D01*
X158179463Y-103452883D01*
X158266592Y-103322485D01*
X158377485Y-103211592D01*
X158507883Y-103124463D01*
X158652772Y-103064448D01*
X158806586Y-103033852D01*
X158963414Y-103033852D01*
X159117228Y-103064448D01*
G37*
G36*
X144105000Y-103920000D02*
G01*
X142305000Y-103920000D01*
X142305000Y-102120000D01*
X144105000Y-102120000D01*
X144105000Y-103920000D01*
G37*
G36*
X146006256Y-102158754D02*
G01*
X146169257Y-102226271D01*
X146315954Y-102324291D01*
X146440709Y-102449046D01*
X146538729Y-102595743D01*
X146606246Y-102758744D01*
X146640666Y-102931785D01*
X146640666Y-103108215D01*
X146606246Y-103281256D01*
X146538729Y-103444257D01*
X146440709Y-103590954D01*
X146315954Y-103715709D01*
X146169257Y-103813729D01*
X146006256Y-103881246D01*
X145833215Y-103915666D01*
X145656785Y-103915666D01*
X145483744Y-103881246D01*
X145320743Y-103813729D01*
X145174046Y-103715709D01*
X145049291Y-103590954D01*
X144951271Y-103444257D01*
X144883754Y-103281256D01*
X144849334Y-103108215D01*
X144849334Y-102931785D01*
X144883754Y-102758744D01*
X144951271Y-102595743D01*
X145049291Y-102449046D01*
X145174046Y-102324291D01*
X145320743Y-102226271D01*
X145483744Y-102158754D01*
X145656785Y-102124334D01*
X145833215Y-102124334D01*
X146006256Y-102158754D01*
G37*
G36*
X126932228Y-100864448D02*
G01*
X127077117Y-100924463D01*
X127207515Y-101011592D01*
X127318408Y-101122485D01*
X127405537Y-101252883D01*
X127465552Y-101397772D01*
X127496148Y-101551586D01*
X127496148Y-101708414D01*
X127465552Y-101862228D01*
X127405537Y-102007117D01*
X127318408Y-102137515D01*
X127207515Y-102248408D01*
X127077117Y-102335537D01*
X126932228Y-102395552D01*
X126778414Y-102426148D01*
X126621586Y-102426148D01*
X126467772Y-102395552D01*
X126322883Y-102335537D01*
X126192485Y-102248408D01*
X126081592Y-102137515D01*
X125994463Y-102007117D01*
X125934448Y-101862228D01*
X125903852Y-101708414D01*
X125903852Y-101551586D01*
X125934448Y-101397772D01*
X125994463Y-101252883D01*
X126081592Y-101122485D01*
X126192485Y-101011592D01*
X126322883Y-100924463D01*
X126467772Y-100864448D01*
X126621586Y-100833852D01*
X126778414Y-100833852D01*
X126932228Y-100864448D01*
G37*
G36*
X129432228Y-100864448D02*
G01*
X129577117Y-100924463D01*
X129707515Y-101011592D01*
X129818408Y-101122485D01*
X129905537Y-101252883D01*
X129965552Y-101397772D01*
X129996148Y-101551586D01*
X129996148Y-101708414D01*
X129965552Y-101862228D01*
X129905537Y-102007117D01*
X129818408Y-102137515D01*
X129707515Y-102248408D01*
X129577117Y-102335537D01*
X129432228Y-102395552D01*
X129278414Y-102426148D01*
X129121586Y-102426148D01*
X128967772Y-102395552D01*
X128822883Y-102335537D01*
X128692485Y-102248408D01*
X128581592Y-102137515D01*
X128494463Y-102007117D01*
X128434448Y-101862228D01*
X128403852Y-101708414D01*
X128403852Y-101551586D01*
X128434448Y-101397772D01*
X128494463Y-101252883D01*
X128581592Y-101122485D01*
X128692485Y-101011592D01*
X128822883Y-100924463D01*
X128967772Y-100864448D01*
X129121586Y-100833852D01*
X129278414Y-100833852D01*
X129432228Y-100864448D01*
G37*
G36*
X135327714Y-100772295D02*
G01*
X135463548Y-100828559D01*
X135585795Y-100910242D01*
X135689758Y-101014205D01*
X135771441Y-101136452D01*
X135827705Y-101272286D01*
X135856389Y-101416487D01*
X135856389Y-101563513D01*
X135827705Y-101707714D01*
X135771441Y-101843548D01*
X135689758Y-101965795D01*
X135585795Y-102069758D01*
X135463548Y-102151441D01*
X135327714Y-102207705D01*
X135183513Y-102236389D01*
X135036487Y-102236389D01*
X134892286Y-102207705D01*
X134756452Y-102151441D01*
X134634205Y-102069758D01*
X134530242Y-101965795D01*
X134448559Y-101843548D01*
X134392295Y-101707714D01*
X134363611Y-101563513D01*
X134363611Y-101416487D01*
X134392295Y-101272286D01*
X134448559Y-101136452D01*
X134530242Y-101014205D01*
X134634205Y-100910242D01*
X134756452Y-100828559D01*
X134892286Y-100772295D01*
X135036487Y-100743611D01*
X135183513Y-100743611D01*
X135327714Y-100772295D01*
G37*
G36*
X151497228Y-100524448D02*
G01*
X151642117Y-100584463D01*
X151772515Y-100671592D01*
X151883408Y-100782485D01*
X151970537Y-100912883D01*
X152030552Y-101057772D01*
X152061148Y-101211586D01*
X152061148Y-101368414D01*
X152030552Y-101522228D01*
X151970537Y-101667117D01*
X151883408Y-101797515D01*
X151772515Y-101908408D01*
X151642117Y-101995537D01*
X151497228Y-102055552D01*
X151343414Y-102086148D01*
X151186586Y-102086148D01*
X151032772Y-102055552D01*
X150887883Y-101995537D01*
X150757485Y-101908408D01*
X150646592Y-101797515D01*
X150559463Y-101667117D01*
X150499448Y-101522228D01*
X150468852Y-101368414D01*
X150468852Y-101211586D01*
X150499448Y-101057772D01*
X150559463Y-100912883D01*
X150646592Y-100782485D01*
X150757485Y-100671592D01*
X150887883Y-100584463D01*
X151032772Y-100524448D01*
X151186586Y-100493852D01*
X151343414Y-100493852D01*
X151497228Y-100524448D01*
G37*
G36*
X159117228Y-100524448D02*
G01*
X159262117Y-100584463D01*
X159392515Y-100671592D01*
X159503408Y-100782485D01*
X159590537Y-100912883D01*
X159650552Y-101057772D01*
X159681148Y-101211586D01*
X159681148Y-101368414D01*
X159650552Y-101522228D01*
X159590537Y-101667117D01*
X159503408Y-101797515D01*
X159392515Y-101908408D01*
X159262117Y-101995537D01*
X159117228Y-102055552D01*
X158963414Y-102086148D01*
X158806586Y-102086148D01*
X158652772Y-102055552D01*
X158507883Y-101995537D01*
X158377485Y-101908408D01*
X158266592Y-101797515D01*
X158179463Y-101667117D01*
X158119448Y-101522228D01*
X158088852Y-101368414D01*
X158088852Y-101211586D01*
X158119448Y-101057772D01*
X158179463Y-100912883D01*
X158266592Y-100782485D01*
X158377485Y-100671592D01*
X158507883Y-100584463D01*
X158652772Y-100524448D01*
X158806586Y-100493852D01*
X158963414Y-100493852D01*
X159117228Y-100524448D01*
G37*
G36*
X169886742Y-99481601D02*
G01*
X170040687Y-99545367D01*
X170179234Y-99637941D01*
X170297059Y-99755766D01*
X170389633Y-99894313D01*
X170453399Y-100048258D01*
X170485907Y-100211685D01*
X170485907Y-100378315D01*
X170453399Y-100541742D01*
X170389633Y-100695687D01*
X170297059Y-100834234D01*
X170179234Y-100952059D01*
X170040687Y-101044633D01*
X169886742Y-101108399D01*
X169723315Y-101140907D01*
X169556685Y-101140907D01*
X169393258Y-101108399D01*
X169239313Y-101044633D01*
X169100766Y-100952059D01*
X168982941Y-100834234D01*
X168890367Y-100695687D01*
X168826601Y-100541742D01*
X168794093Y-100378315D01*
X168794093Y-100211685D01*
X168826601Y-100048258D01*
X168890367Y-99894313D01*
X168982941Y-99755766D01*
X169100766Y-99637941D01*
X169239313Y-99545367D01*
X169393258Y-99481601D01*
X169556685Y-99449093D01*
X169723315Y-99449093D01*
X169886742Y-99481601D01*
G37*
G36*
X172426742Y-99481601D02*
G01*
X172580687Y-99545367D01*
X172719234Y-99637941D01*
X172837059Y-99755766D01*
X172929633Y-99894313D01*
X172993399Y-100048258D01*
X173025907Y-100211685D01*
X173025907Y-100378315D01*
X172993399Y-100541742D01*
X172929633Y-100695687D01*
X172837059Y-100834234D01*
X172719234Y-100952059D01*
X172580687Y-101044633D01*
X172426742Y-101108399D01*
X172263315Y-101140907D01*
X172096685Y-101140907D01*
X171933258Y-101108399D01*
X171779313Y-101044633D01*
X171640766Y-100952059D01*
X171522941Y-100834234D01*
X171430367Y-100695687D01*
X171366601Y-100541742D01*
X171334093Y-100378315D01*
X171334093Y-100211685D01*
X171366601Y-100048258D01*
X171430367Y-99894313D01*
X171522941Y-99755766D01*
X171640766Y-99637941D01*
X171779313Y-99545367D01*
X171933258Y-99481601D01*
X172096685Y-99449093D01*
X172263315Y-99449093D01*
X172426742Y-99481601D01*
G37*
G36*
X174966742Y-99481601D02*
G01*
X175120687Y-99545367D01*
X175259234Y-99637941D01*
X175377059Y-99755766D01*
X175469633Y-99894313D01*
X175533399Y-100048258D01*
X175565907Y-100211685D01*
X175565907Y-100378315D01*
X175533399Y-100541742D01*
X175469633Y-100695687D01*
X175377059Y-100834234D01*
X175259234Y-100952059D01*
X175120687Y-101044633D01*
X174966742Y-101108399D01*
X174803315Y-101140907D01*
X174636685Y-101140907D01*
X174473258Y-101108399D01*
X174319313Y-101044633D01*
X174180766Y-100952059D01*
X174062941Y-100834234D01*
X173970367Y-100695687D01*
X173906601Y-100541742D01*
X173874093Y-100378315D01*
X173874093Y-100211685D01*
X173906601Y-100048258D01*
X173970367Y-99894313D01*
X174062941Y-99755766D01*
X174180766Y-99637941D01*
X174319313Y-99545367D01*
X174473258Y-99481601D01*
X174636685Y-99449093D01*
X174803315Y-99449093D01*
X174966742Y-99481601D01*
G37*
G36*
X151497228Y-97984448D02*
G01*
X151642117Y-98044463D01*
X151772515Y-98131592D01*
X151883408Y-98242485D01*
X151970537Y-98372883D01*
X152030552Y-98517772D01*
X152061148Y-98671586D01*
X152061148Y-98828414D01*
X152030552Y-98982228D01*
X151970537Y-99127117D01*
X151883408Y-99257515D01*
X151772515Y-99368408D01*
X151642117Y-99455537D01*
X151497228Y-99515552D01*
X151343414Y-99546148D01*
X151186586Y-99546148D01*
X151032772Y-99515552D01*
X150887883Y-99455537D01*
X150757485Y-99368408D01*
X150646592Y-99257515D01*
X150559463Y-99127117D01*
X150499448Y-98982228D01*
X150468852Y-98828414D01*
X150468852Y-98671586D01*
X150499448Y-98517772D01*
X150559463Y-98372883D01*
X150646592Y-98242485D01*
X150757485Y-98131592D01*
X150887883Y-98044463D01*
X151032772Y-97984448D01*
X151186586Y-97953852D01*
X151343414Y-97953852D01*
X151497228Y-97984448D01*
G37*
G36*
X159117228Y-97984448D02*
G01*
X159262117Y-98044463D01*
X159392515Y-98131592D01*
X159503408Y-98242485D01*
X159590537Y-98372883D01*
X159650552Y-98517772D01*
X159681148Y-98671586D01*
X159681148Y-98828414D01*
X159650552Y-98982228D01*
X159590537Y-99127117D01*
X159503408Y-99257515D01*
X159392515Y-99368408D01*
X159262117Y-99455537D01*
X159117228Y-99515552D01*
X158963414Y-99546148D01*
X158806586Y-99546148D01*
X158652772Y-99515552D01*
X158507883Y-99455537D01*
X158377485Y-99368408D01*
X158266592Y-99257515D01*
X158179463Y-99127117D01*
X158119448Y-98982228D01*
X158088852Y-98828414D01*
X158088852Y-98671586D01*
X158119448Y-98517772D01*
X158179463Y-98372883D01*
X158266592Y-98242485D01*
X158377485Y-98131592D01*
X158507883Y-98044463D01*
X158652772Y-97984448D01*
X158806586Y-97953852D01*
X158963414Y-97953852D01*
X159117228Y-97984448D01*
G37*
G36*
X175570000Y-98605000D02*
G01*
X173870000Y-98605000D01*
X173870000Y-96905000D01*
X175570000Y-96905000D01*
X175570000Y-98605000D01*
G37*
G36*
X169886742Y-96941601D02*
G01*
X170040687Y-97005367D01*
X170179234Y-97097941D01*
X170297059Y-97215766D01*
X170389633Y-97354313D01*
X170453399Y-97508258D01*
X170485907Y-97671685D01*
X170485907Y-97838315D01*
X170453399Y-98001742D01*
X170389633Y-98155687D01*
X170297059Y-98294234D01*
X170179234Y-98412059D01*
X170040687Y-98504633D01*
X169886742Y-98568399D01*
X169723315Y-98600907D01*
X169556685Y-98600907D01*
X169393258Y-98568399D01*
X169239313Y-98504633D01*
X169100766Y-98412059D01*
X168982941Y-98294234D01*
X168890367Y-98155687D01*
X168826601Y-98001742D01*
X168794093Y-97838315D01*
X168794093Y-97671685D01*
X168826601Y-97508258D01*
X168890367Y-97354313D01*
X168982941Y-97215766D01*
X169100766Y-97097941D01*
X169239313Y-97005367D01*
X169393258Y-96941601D01*
X169556685Y-96909093D01*
X169723315Y-96909093D01*
X169886742Y-96941601D01*
G37*
G36*
X172426742Y-96941601D02*
G01*
X172580687Y-97005367D01*
X172719234Y-97097941D01*
X172837059Y-97215766D01*
X172929633Y-97354313D01*
X172993399Y-97508258D01*
X173025907Y-97671685D01*
X173025907Y-97838315D01*
X172993399Y-98001742D01*
X172929633Y-98155687D01*
X172837059Y-98294234D01*
X172719234Y-98412059D01*
X172580687Y-98504633D01*
X172426742Y-98568399D01*
X172263315Y-98600907D01*
X172096685Y-98600907D01*
X171933258Y-98568399D01*
X171779313Y-98504633D01*
X171640766Y-98412059D01*
X171522941Y-98294234D01*
X171430367Y-98155687D01*
X171366601Y-98001742D01*
X171334093Y-97838315D01*
X171334093Y-97671685D01*
X171366601Y-97508258D01*
X171430367Y-97354313D01*
X171522941Y-97215766D01*
X171640766Y-97097941D01*
X171779313Y-97005367D01*
X171933258Y-96941601D01*
X172096685Y-96909093D01*
X172263315Y-96909093D01*
X172426742Y-96941601D01*
G37*
G36*
X142413199Y-96830142D02*
G01*
X142539978Y-96882655D01*
X142654075Y-96958893D01*
X142751107Y-97055925D01*
X142827345Y-97170022D01*
X142879858Y-97296801D01*
X142906629Y-97431388D01*
X142906629Y-97568612D01*
X142879858Y-97703199D01*
X142827345Y-97829978D01*
X142751107Y-97944075D01*
X142654075Y-98041107D01*
X142539978Y-98117345D01*
X142413199Y-98169858D01*
X142278612Y-98196629D01*
X142141388Y-98196629D01*
X142006801Y-98169858D01*
X141880022Y-98117345D01*
X141765925Y-98041107D01*
X141668893Y-97944075D01*
X141592655Y-97829978D01*
X141540142Y-97703199D01*
X141513371Y-97568612D01*
X141513371Y-97431388D01*
X141540142Y-97296801D01*
X141592655Y-97170022D01*
X141668893Y-97055925D01*
X141765925Y-96958893D01*
X141880022Y-96882655D01*
X142006801Y-96830142D01*
X142141388Y-96803371D01*
X142278612Y-96803371D01*
X142413199Y-96830142D01*
G37*
G36*
X147493199Y-96830142D02*
G01*
X147619978Y-96882655D01*
X147734075Y-96958893D01*
X147831107Y-97055925D01*
X147907345Y-97170022D01*
X147959858Y-97296801D01*
X147986629Y-97431388D01*
X147986629Y-97568612D01*
X147959858Y-97703199D01*
X147907345Y-97829978D01*
X147831107Y-97944075D01*
X147734075Y-98041107D01*
X147619978Y-98117345D01*
X147493199Y-98169858D01*
X147358612Y-98196629D01*
X147221388Y-98196629D01*
X147086801Y-98169858D01*
X146960022Y-98117345D01*
X146845925Y-98041107D01*
X146748893Y-97944075D01*
X146672655Y-97829978D01*
X146620142Y-97703199D01*
X146593371Y-97568612D01*
X146593371Y-97431388D01*
X146620142Y-97296801D01*
X146672655Y-97170022D01*
X146748893Y-97055925D01*
X146845925Y-96958893D01*
X146960022Y-96882655D01*
X147086801Y-96830142D01*
X147221388Y-96803371D01*
X147358612Y-96803371D01*
X147493199Y-96830142D01*
G37*
G36*
X126932228Y-95924448D02*
G01*
X127077117Y-95984463D01*
X127207515Y-96071592D01*
X127318408Y-96182485D01*
X127405537Y-96312883D01*
X127465552Y-96457772D01*
X127496148Y-96611586D01*
X127496148Y-96768414D01*
X127465552Y-96922228D01*
X127405537Y-97067117D01*
X127318408Y-97197515D01*
X127207515Y-97308408D01*
X127077117Y-97395537D01*
X126932228Y-97455552D01*
X126778414Y-97486148D01*
X126621586Y-97486148D01*
X126467772Y-97455552D01*
X126322883Y-97395537D01*
X126192485Y-97308408D01*
X126081592Y-97197515D01*
X125994463Y-97067117D01*
X125934448Y-96922228D01*
X125903852Y-96768414D01*
X125903852Y-96611586D01*
X125934448Y-96457772D01*
X125994463Y-96312883D01*
X126081592Y-96182485D01*
X126192485Y-96071592D01*
X126322883Y-95984463D01*
X126467772Y-95924448D01*
X126621586Y-95893852D01*
X126778414Y-95893852D01*
X126932228Y-95924448D01*
G37*
G36*
X129432228Y-95924448D02*
G01*
X129577117Y-95984463D01*
X129707515Y-96071592D01*
X129818408Y-96182485D01*
X129905537Y-96312883D01*
X129965552Y-96457772D01*
X129996148Y-96611586D01*
X129996148Y-96768414D01*
X129965552Y-96922228D01*
X129905537Y-97067117D01*
X129818408Y-97197515D01*
X129707515Y-97308408D01*
X129577117Y-97395537D01*
X129432228Y-97455552D01*
X129278414Y-97486148D01*
X129121586Y-97486148D01*
X128967772Y-97455552D01*
X128822883Y-97395537D01*
X128692485Y-97308408D01*
X128581592Y-97197515D01*
X128494463Y-97067117D01*
X128434448Y-96922228D01*
X128403852Y-96768414D01*
X128403852Y-96611586D01*
X128434448Y-96457772D01*
X128494463Y-96312883D01*
X128581592Y-96182485D01*
X128692485Y-96071592D01*
X128822883Y-95984463D01*
X128967772Y-95924448D01*
X129121586Y-95893852D01*
X129278414Y-95893852D01*
X129432228Y-95924448D01*
G37*
G36*
X135327714Y-95892295D02*
G01*
X135463548Y-95948559D01*
X135585795Y-96030242D01*
X135689758Y-96134205D01*
X135771441Y-96256452D01*
X135827705Y-96392286D01*
X135856389Y-96536487D01*
X135856389Y-96683513D01*
X135827705Y-96827714D01*
X135771441Y-96963548D01*
X135689758Y-97085795D01*
X135585795Y-97189758D01*
X135463548Y-97271441D01*
X135327714Y-97327705D01*
X135183513Y-97356389D01*
X135036487Y-97356389D01*
X134892286Y-97327705D01*
X134756452Y-97271441D01*
X134634205Y-97189758D01*
X134530242Y-97085795D01*
X134448559Y-96963548D01*
X134392295Y-96827714D01*
X134363611Y-96683513D01*
X134363611Y-96536487D01*
X134392295Y-96392286D01*
X134448559Y-96256452D01*
X134530242Y-96134205D01*
X134634205Y-96030242D01*
X134756452Y-95948559D01*
X134892286Y-95892295D01*
X135036487Y-95863611D01*
X135183513Y-95863611D01*
X135327714Y-95892295D01*
G37*
G36*
X151497228Y-95444448D02*
G01*
X151642117Y-95504463D01*
X151772515Y-95591592D01*
X151883408Y-95702485D01*
X151970537Y-95832883D01*
X152030552Y-95977772D01*
X152061148Y-96131586D01*
X152061148Y-96288414D01*
X152030552Y-96442228D01*
X151970537Y-96587117D01*
X151883408Y-96717515D01*
X151772515Y-96828408D01*
X151642117Y-96915537D01*
X151497228Y-96975552D01*
X151343414Y-97006148D01*
X151186586Y-97006148D01*
X151032772Y-96975552D01*
X150887883Y-96915537D01*
X150757485Y-96828408D01*
X150646592Y-96717515D01*
X150559463Y-96587117D01*
X150499448Y-96442228D01*
X150468852Y-96288414D01*
X150468852Y-96131586D01*
X150499448Y-95977772D01*
X150559463Y-95832883D01*
X150646592Y-95702485D01*
X150757485Y-95591592D01*
X150887883Y-95504463D01*
X151032772Y-95444448D01*
X151186586Y-95413852D01*
X151343414Y-95413852D01*
X151497228Y-95444448D01*
G37*
G36*
X159117228Y-95444448D02*
G01*
X159262117Y-95504463D01*
X159392515Y-95591592D01*
X159503408Y-95702485D01*
X159590537Y-95832883D01*
X159650552Y-95977772D01*
X159681148Y-96131586D01*
X159681148Y-96288414D01*
X159650552Y-96442228D01*
X159590537Y-96587117D01*
X159503408Y-96717515D01*
X159392515Y-96828408D01*
X159262117Y-96915537D01*
X159117228Y-96975552D01*
X158963414Y-97006148D01*
X158806586Y-97006148D01*
X158652772Y-96975552D01*
X158507883Y-96915537D01*
X158377485Y-96828408D01*
X158266592Y-96717515D01*
X158179463Y-96587117D01*
X158119448Y-96442228D01*
X158088852Y-96288414D01*
X158088852Y-96131586D01*
X158119448Y-95977772D01*
X158179463Y-95832883D01*
X158266592Y-95702485D01*
X158377485Y-95591592D01*
X158507883Y-95504463D01*
X158652772Y-95444448D01*
X158806586Y-95413852D01*
X158963414Y-95413852D01*
X159117228Y-95444448D01*
G37*
G36*
X151497228Y-92904448D02*
G01*
X151642117Y-92964463D01*
X151772515Y-93051592D01*
X151883408Y-93162485D01*
X151970537Y-93292883D01*
X152030552Y-93437772D01*
X152061148Y-93591586D01*
X152061148Y-93748414D01*
X152030552Y-93902228D01*
X151970537Y-94047117D01*
X151883408Y-94177515D01*
X151772515Y-94288408D01*
X151642117Y-94375537D01*
X151497228Y-94435552D01*
X151343414Y-94466148D01*
X151186586Y-94466148D01*
X151032772Y-94435552D01*
X150887883Y-94375537D01*
X150757485Y-94288408D01*
X150646592Y-94177515D01*
X150559463Y-94047117D01*
X150499448Y-93902228D01*
X150468852Y-93748414D01*
X150468852Y-93591586D01*
X150499448Y-93437772D01*
X150559463Y-93292883D01*
X150646592Y-93162485D01*
X150757485Y-93051592D01*
X150887883Y-92964463D01*
X151032772Y-92904448D01*
X151186586Y-92873852D01*
X151343414Y-92873852D01*
X151497228Y-92904448D01*
G37*
G36*
X159117228Y-92904448D02*
G01*
X159262117Y-92964463D01*
X159392515Y-93051592D01*
X159503408Y-93162485D01*
X159590537Y-93292883D01*
X159650552Y-93437772D01*
X159681148Y-93591586D01*
X159681148Y-93748414D01*
X159650552Y-93902228D01*
X159590537Y-94047117D01*
X159503408Y-94177515D01*
X159392515Y-94288408D01*
X159262117Y-94375537D01*
X159117228Y-94435552D01*
X158963414Y-94466148D01*
X158806586Y-94466148D01*
X158652772Y-94435552D01*
X158507883Y-94375537D01*
X158377485Y-94288408D01*
X158266592Y-94177515D01*
X158179463Y-94047117D01*
X158119448Y-93902228D01*
X158088852Y-93748414D01*
X158088852Y-93591586D01*
X158119448Y-93437772D01*
X158179463Y-93292883D01*
X158266592Y-93162485D01*
X158377485Y-93051592D01*
X158507883Y-92964463D01*
X158652772Y-92904448D01*
X158806586Y-92873852D01*
X158963414Y-92873852D01*
X159117228Y-92904448D01*
G37*
G36*
X163422228Y-92894448D02*
G01*
X163567117Y-92954463D01*
X163697515Y-93041592D01*
X163808408Y-93152485D01*
X163895537Y-93282883D01*
X163955552Y-93427772D01*
X163986148Y-93581586D01*
X163986148Y-93738414D01*
X163955552Y-93892228D01*
X163895537Y-94037117D01*
X163808408Y-94167515D01*
X163697515Y-94278408D01*
X163567117Y-94365537D01*
X163422228Y-94425552D01*
X163268414Y-94456148D01*
X163111586Y-94456148D01*
X162957772Y-94425552D01*
X162812883Y-94365537D01*
X162682485Y-94278408D01*
X162571592Y-94167515D01*
X162484463Y-94037117D01*
X162424448Y-93892228D01*
X162393852Y-93738414D01*
X162393852Y-93581586D01*
X162424448Y-93427772D01*
X162484463Y-93282883D01*
X162571592Y-93152485D01*
X162682485Y-93041592D01*
X162812883Y-92954463D01*
X162957772Y-92894448D01*
X163111586Y-92863852D01*
X163268414Y-92863852D01*
X163422228Y-92894448D01*
G37*
G36*
X165922228Y-92894448D02*
G01*
X166067117Y-92954463D01*
X166197515Y-93041592D01*
X166308408Y-93152485D01*
X166395537Y-93282883D01*
X166455552Y-93427772D01*
X166486148Y-93581586D01*
X166486148Y-93738414D01*
X166455552Y-93892228D01*
X166395537Y-94037117D01*
X166308408Y-94167515D01*
X166197515Y-94278408D01*
X166067117Y-94365537D01*
X165922228Y-94425552D01*
X165768414Y-94456148D01*
X165611586Y-94456148D01*
X165457772Y-94425552D01*
X165312883Y-94365537D01*
X165182485Y-94278408D01*
X165071592Y-94167515D01*
X164984463Y-94037117D01*
X164924448Y-93892228D01*
X164893852Y-93738414D01*
X164893852Y-93581586D01*
X164924448Y-93427772D01*
X164984463Y-93282883D01*
X165071592Y-93152485D01*
X165182485Y-93041592D01*
X165312883Y-92954463D01*
X165457772Y-92894448D01*
X165611586Y-92863852D01*
X165768414Y-92863852D01*
X165922228Y-92894448D01*
G37*
G36*
X151497228Y-90364448D02*
G01*
X151642117Y-90424463D01*
X151772515Y-90511592D01*
X151883408Y-90622485D01*
X151970537Y-90752883D01*
X152030552Y-90897772D01*
X152061148Y-91051586D01*
X152061148Y-91208414D01*
X152030552Y-91362228D01*
X151970537Y-91507117D01*
X151883408Y-91637515D01*
X151772515Y-91748408D01*
X151642117Y-91835537D01*
X151497228Y-91895552D01*
X151343414Y-91926148D01*
X151186586Y-91926148D01*
X151032772Y-91895552D01*
X150887883Y-91835537D01*
X150757485Y-91748408D01*
X150646592Y-91637515D01*
X150559463Y-91507117D01*
X150499448Y-91362228D01*
X150468852Y-91208414D01*
X150468852Y-91051586D01*
X150499448Y-90897772D01*
X150559463Y-90752883D01*
X150646592Y-90622485D01*
X150757485Y-90511592D01*
X150887883Y-90424463D01*
X151032772Y-90364448D01*
X151186586Y-90333852D01*
X151343414Y-90333852D01*
X151497228Y-90364448D01*
G37*
G36*
X159117228Y-90364448D02*
G01*
X159262117Y-90424463D01*
X159392515Y-90511592D01*
X159503408Y-90622485D01*
X159590537Y-90752883D01*
X159650552Y-90897772D01*
X159681148Y-91051586D01*
X159681148Y-91208414D01*
X159650552Y-91362228D01*
X159590537Y-91507117D01*
X159503408Y-91637515D01*
X159392515Y-91748408D01*
X159262117Y-91835537D01*
X159117228Y-91895552D01*
X158963414Y-91926148D01*
X158806586Y-91926148D01*
X158652772Y-91895552D01*
X158507883Y-91835537D01*
X158377485Y-91748408D01*
X158266592Y-91637515D01*
X158179463Y-91507117D01*
X158119448Y-91362228D01*
X158088852Y-91208414D01*
X158088852Y-91051586D01*
X158119448Y-90897772D01*
X158179463Y-90752883D01*
X158266592Y-90622485D01*
X158377485Y-90511592D01*
X158507883Y-90424463D01*
X158652772Y-90364448D01*
X158806586Y-90333852D01*
X158963414Y-90333852D01*
X159117228Y-90364448D01*
G37*
G36*
X128642228Y-89964448D02*
G01*
X128787117Y-90024463D01*
X128917515Y-90111592D01*
X129028408Y-90222485D01*
X129115537Y-90352883D01*
X129175552Y-90497772D01*
X129206148Y-90651586D01*
X129206148Y-90808414D01*
X129175552Y-90962228D01*
X129115537Y-91107117D01*
X129028408Y-91237515D01*
X128917515Y-91348408D01*
X128787117Y-91435537D01*
X128642228Y-91495552D01*
X128488414Y-91526148D01*
X128331586Y-91526148D01*
X128177772Y-91495552D01*
X128032883Y-91435537D01*
X127902485Y-91348408D01*
X127791592Y-91237515D01*
X127704463Y-91107117D01*
X127644448Y-90962228D01*
X127613852Y-90808414D01*
X127613852Y-90651586D01*
X127644448Y-90497772D01*
X127704463Y-90352883D01*
X127791592Y-90222485D01*
X127902485Y-90111592D01*
X128032883Y-90024463D01*
X128177772Y-89964448D01*
X128331586Y-89933852D01*
X128488414Y-89933852D01*
X128642228Y-89964448D01*
G37*
G36*
X131142228Y-89964448D02*
G01*
X131287117Y-90024463D01*
X131417515Y-90111592D01*
X131528408Y-90222485D01*
X131615537Y-90352883D01*
X131675552Y-90497772D01*
X131706148Y-90651586D01*
X131706148Y-90808414D01*
X131675552Y-90962228D01*
X131615537Y-91107117D01*
X131528408Y-91237515D01*
X131417515Y-91348408D01*
X131287117Y-91435537D01*
X131142228Y-91495552D01*
X130988414Y-91526148D01*
X130831586Y-91526148D01*
X130677772Y-91495552D01*
X130532883Y-91435537D01*
X130402485Y-91348408D01*
X130291592Y-91237515D01*
X130204463Y-91107117D01*
X130144448Y-90962228D01*
X130113852Y-90808414D01*
X130113852Y-90651586D01*
X130144448Y-90497772D01*
X130204463Y-90352883D01*
X130291592Y-90222485D01*
X130402485Y-90111592D01*
X130532883Y-90024463D01*
X130677772Y-89964448D01*
X130831586Y-89933852D01*
X130988414Y-89933852D01*
X131142228Y-89964448D01*
G37*
G36*
X137752228Y-88654448D02*
G01*
X137897117Y-88714463D01*
X138027515Y-88801592D01*
X138138408Y-88912485D01*
X138225537Y-89042883D01*
X138285552Y-89187772D01*
X138316148Y-89341586D01*
X138316148Y-89498414D01*
X138285552Y-89652228D01*
X138225537Y-89797117D01*
X138138408Y-89927515D01*
X138027515Y-90038408D01*
X137897117Y-90125537D01*
X137752228Y-90185552D01*
X137598414Y-90216148D01*
X137441586Y-90216148D01*
X137287772Y-90185552D01*
X137142883Y-90125537D01*
X137012485Y-90038408D01*
X136901592Y-89927515D01*
X136814463Y-89797117D01*
X136754448Y-89652228D01*
X136723852Y-89498414D01*
X136723852Y-89341586D01*
X136754448Y-89187772D01*
X136814463Y-89042883D01*
X136901592Y-88912485D01*
X137012485Y-88801592D01*
X137142883Y-88714463D01*
X137287772Y-88654448D01*
X137441586Y-88623852D01*
X137598414Y-88623852D01*
X137752228Y-88654448D01*
G37*
G36*
X140252228Y-88654448D02*
G01*
X140397117Y-88714463D01*
X140527515Y-88801592D01*
X140638408Y-88912485D01*
X140725537Y-89042883D01*
X140785552Y-89187772D01*
X140816148Y-89341586D01*
X140816148Y-89498414D01*
X140785552Y-89652228D01*
X140725537Y-89797117D01*
X140638408Y-89927515D01*
X140527515Y-90038408D01*
X140397117Y-90125537D01*
X140252228Y-90185552D01*
X140098414Y-90216148D01*
X139941586Y-90216148D01*
X139787772Y-90185552D01*
X139642883Y-90125537D01*
X139512485Y-90038408D01*
X139401592Y-89927515D01*
X139314463Y-89797117D01*
X139254448Y-89652228D01*
X139223852Y-89498414D01*
X139223852Y-89341586D01*
X139254448Y-89187772D01*
X139314463Y-89042883D01*
X139401592Y-88912485D01*
X139512485Y-88801592D01*
X139642883Y-88714463D01*
X139787772Y-88654448D01*
X139941586Y-88623852D01*
X140098414Y-88623852D01*
X140252228Y-88654448D01*
G37*
G36*
X163402228Y-88114448D02*
G01*
X163547117Y-88174463D01*
X163677515Y-88261592D01*
X163788408Y-88372485D01*
X163875537Y-88502883D01*
X163935552Y-88647772D01*
X163966148Y-88801586D01*
X163966148Y-88958414D01*
X163935552Y-89112228D01*
X163875537Y-89257117D01*
X163788408Y-89387515D01*
X163677515Y-89498408D01*
X163547117Y-89585537D01*
X163402228Y-89645552D01*
X163248414Y-89676148D01*
X163091586Y-89676148D01*
X162937772Y-89645552D01*
X162792883Y-89585537D01*
X162662485Y-89498408D01*
X162551592Y-89387515D01*
X162464463Y-89257117D01*
X162404448Y-89112228D01*
X162373852Y-88958414D01*
X162373852Y-88801586D01*
X162404448Y-88647772D01*
X162464463Y-88502883D01*
X162551592Y-88372485D01*
X162662485Y-88261592D01*
X162792883Y-88174463D01*
X162937772Y-88114448D01*
X163091586Y-88083852D01*
X163248414Y-88083852D01*
X163402228Y-88114448D01*
G37*
G36*
X165902228Y-88114448D02*
G01*
X166047117Y-88174463D01*
X166177515Y-88261592D01*
X166288408Y-88372485D01*
X166375537Y-88502883D01*
X166435552Y-88647772D01*
X166466148Y-88801586D01*
X166466148Y-88958414D01*
X166435552Y-89112228D01*
X166375537Y-89257117D01*
X166288408Y-89387515D01*
X166177515Y-89498408D01*
X166047117Y-89585537D01*
X165902228Y-89645552D01*
X165748414Y-89676148D01*
X165591586Y-89676148D01*
X165437772Y-89645552D01*
X165292883Y-89585537D01*
X165162485Y-89498408D01*
X165051592Y-89387515D01*
X164964463Y-89257117D01*
X164904448Y-89112228D01*
X164873852Y-88958414D01*
X164873852Y-88801586D01*
X164904448Y-88647772D01*
X164964463Y-88502883D01*
X165051592Y-88372485D01*
X165162485Y-88261592D01*
X165292883Y-88174463D01*
X165437772Y-88114448D01*
X165591586Y-88083852D01*
X165748414Y-88083852D01*
X165902228Y-88114448D01*
G37*
G36*
X144122228Y-87824448D02*
G01*
X144267117Y-87884463D01*
X144397515Y-87971592D01*
X144508408Y-88082485D01*
X144595537Y-88212883D01*
X144655552Y-88357772D01*
X144686148Y-88511586D01*
X144686148Y-88668414D01*
X144655552Y-88822228D01*
X144595537Y-88967117D01*
X144508408Y-89097515D01*
X144397515Y-89208408D01*
X144267117Y-89295537D01*
X144122228Y-89355552D01*
X143968414Y-89386148D01*
X143811586Y-89386148D01*
X143657772Y-89355552D01*
X143512883Y-89295537D01*
X143382485Y-89208408D01*
X143271592Y-89097515D01*
X143184463Y-88967117D01*
X143124448Y-88822228D01*
X143093852Y-88668414D01*
X143093852Y-88511586D01*
X143124448Y-88357772D01*
X143184463Y-88212883D01*
X143271592Y-88082485D01*
X143382485Y-87971592D01*
X143512883Y-87884463D01*
X143657772Y-87824448D01*
X143811586Y-87793852D01*
X143968414Y-87793852D01*
X144122228Y-87824448D01*
G37*
G36*
X146622228Y-87824448D02*
G01*
X146767117Y-87884463D01*
X146897515Y-87971592D01*
X147008408Y-88082485D01*
X147095537Y-88212883D01*
X147155552Y-88357772D01*
X147186148Y-88511586D01*
X147186148Y-88668414D01*
X147155552Y-88822228D01*
X147095537Y-88967117D01*
X147008408Y-89097515D01*
X146897515Y-89208408D01*
X146767117Y-89295537D01*
X146622228Y-89355552D01*
X146468414Y-89386148D01*
X146311586Y-89386148D01*
X146157772Y-89355552D01*
X146012883Y-89295537D01*
X145882485Y-89208408D01*
X145771592Y-89097515D01*
X145684463Y-88967117D01*
X145624448Y-88822228D01*
X145593852Y-88668414D01*
X145593852Y-88511586D01*
X145624448Y-88357772D01*
X145684463Y-88212883D01*
X145771592Y-88082485D01*
X145882485Y-87971592D01*
X146012883Y-87884463D01*
X146157772Y-87824448D01*
X146311586Y-87793852D01*
X146468414Y-87793852D01*
X146622228Y-87824448D01*
G37*
G36*
X151497228Y-87824448D02*
G01*
X151642117Y-87884463D01*
X151772515Y-87971592D01*
X151883408Y-88082485D01*
X151970537Y-88212883D01*
X152030552Y-88357772D01*
X152061148Y-88511586D01*
X152061148Y-88668414D01*
X152030552Y-88822228D01*
X151970537Y-88967117D01*
X151883408Y-89097515D01*
X151772515Y-89208408D01*
X151642117Y-89295537D01*
X151497228Y-89355552D01*
X151343414Y-89386148D01*
X151186586Y-89386148D01*
X151032772Y-89355552D01*
X150887883Y-89295537D01*
X150757485Y-89208408D01*
X150646592Y-89097515D01*
X150559463Y-88967117D01*
X150499448Y-88822228D01*
X150468852Y-88668414D01*
X150468852Y-88511586D01*
X150499448Y-88357772D01*
X150559463Y-88212883D01*
X150646592Y-88082485D01*
X150757485Y-87971592D01*
X150887883Y-87884463D01*
X151032772Y-87824448D01*
X151186586Y-87793852D01*
X151343414Y-87793852D01*
X151497228Y-87824448D01*
G37*
G36*
X159117228Y-87824448D02*
G01*
X159262117Y-87884463D01*
X159392515Y-87971592D01*
X159503408Y-88082485D01*
X159590537Y-88212883D01*
X159650552Y-88357772D01*
X159681148Y-88511586D01*
X159681148Y-88668414D01*
X159650552Y-88822228D01*
X159590537Y-88967117D01*
X159503408Y-89097515D01*
X159392515Y-89208408D01*
X159262117Y-89295537D01*
X159117228Y-89355552D01*
X158963414Y-89386148D01*
X158806586Y-89386148D01*
X158652772Y-89355552D01*
X158507883Y-89295537D01*
X158377485Y-89208408D01*
X158266592Y-89097515D01*
X158179463Y-88967117D01*
X158119448Y-88822228D01*
X158088852Y-88668414D01*
X158088852Y-88511586D01*
X158119448Y-88357772D01*
X158179463Y-88212883D01*
X158266592Y-88082485D01*
X158377485Y-87971592D01*
X158507883Y-87884463D01*
X158652772Y-87824448D01*
X158806586Y-87793852D01*
X158963414Y-87793852D01*
X159117228Y-87824448D01*
G37*
G36*
X169071742Y-87561601D02*
G01*
X169225687Y-87625367D01*
X169364234Y-87717941D01*
X169482059Y-87835766D01*
X169574633Y-87974313D01*
X169638399Y-88128258D01*
X169670907Y-88291685D01*
X169670907Y-88458315D01*
X169638399Y-88621742D01*
X169574633Y-88775687D01*
X169482059Y-88914234D01*
X169364234Y-89032059D01*
X169225687Y-89124633D01*
X169071742Y-89188399D01*
X168908315Y-89220907D01*
X168741685Y-89220907D01*
X168578258Y-89188399D01*
X168424313Y-89124633D01*
X168285766Y-89032059D01*
X168167941Y-88914234D01*
X168075367Y-88775687D01*
X168011601Y-88621742D01*
X167979093Y-88458315D01*
X167979093Y-88291685D01*
X168011601Y-88128258D01*
X168075367Y-87974313D01*
X168167941Y-87835766D01*
X168285766Y-87717941D01*
X168424313Y-87625367D01*
X168578258Y-87561601D01*
X168741685Y-87529093D01*
X168908315Y-87529093D01*
X169071742Y-87561601D01*
G37*
G36*
X151497228Y-85284448D02*
G01*
X151642117Y-85344463D01*
X151772515Y-85431592D01*
X151883408Y-85542485D01*
X151970537Y-85672883D01*
X152030552Y-85817772D01*
X152061148Y-85971586D01*
X152061148Y-86128414D01*
X152030552Y-86282228D01*
X151970537Y-86427117D01*
X151883408Y-86557515D01*
X151772515Y-86668408D01*
X151642117Y-86755537D01*
X151497228Y-86815552D01*
X151343414Y-86846148D01*
X151186586Y-86846148D01*
X151032772Y-86815552D01*
X150887883Y-86755537D01*
X150757485Y-86668408D01*
X150646592Y-86557515D01*
X150559463Y-86427117D01*
X150499448Y-86282228D01*
X150468852Y-86128414D01*
X150468852Y-85971586D01*
X150499448Y-85817772D01*
X150559463Y-85672883D01*
X150646592Y-85542485D01*
X150757485Y-85431592D01*
X150887883Y-85344463D01*
X151032772Y-85284448D01*
X151186586Y-85253852D01*
X151343414Y-85253852D01*
X151497228Y-85284448D01*
G37*
G36*
X159117228Y-85284448D02*
G01*
X159262117Y-85344463D01*
X159392515Y-85431592D01*
X159503408Y-85542485D01*
X159590537Y-85672883D01*
X159650552Y-85817772D01*
X159681148Y-85971586D01*
X159681148Y-86128414D01*
X159650552Y-86282228D01*
X159590537Y-86427117D01*
X159503408Y-86557515D01*
X159392515Y-86668408D01*
X159262117Y-86755537D01*
X159117228Y-86815552D01*
X158963414Y-86846148D01*
X158806586Y-86846148D01*
X158652772Y-86815552D01*
X158507883Y-86755537D01*
X158377485Y-86668408D01*
X158266592Y-86557515D01*
X158179463Y-86427117D01*
X158119448Y-86282228D01*
X158088852Y-86128414D01*
X158088852Y-85971586D01*
X158119448Y-85817772D01*
X158179463Y-85672883D01*
X158266592Y-85542485D01*
X158377485Y-85431592D01*
X158507883Y-85344463D01*
X158652772Y-85284448D01*
X158806586Y-85253852D01*
X158963414Y-85253852D01*
X159117228Y-85284448D01*
G37*
G36*
X169071742Y-85021601D02*
G01*
X169225687Y-85085367D01*
X169364234Y-85177941D01*
X169482059Y-85295766D01*
X169574633Y-85434313D01*
X169638399Y-85588258D01*
X169670907Y-85751685D01*
X169670907Y-85918315D01*
X169638399Y-86081742D01*
X169574633Y-86235687D01*
X169482059Y-86374234D01*
X169364234Y-86492059D01*
X169225687Y-86584633D01*
X169071742Y-86648399D01*
X168908315Y-86680907D01*
X168741685Y-86680907D01*
X168578258Y-86648399D01*
X168424313Y-86584633D01*
X168285766Y-86492059D01*
X168167941Y-86374234D01*
X168075367Y-86235687D01*
X168011601Y-86081742D01*
X167979093Y-85918315D01*
X167979093Y-85751685D01*
X168011601Y-85588258D01*
X168075367Y-85434313D01*
X168167941Y-85295766D01*
X168285766Y-85177941D01*
X168424313Y-85085367D01*
X168578258Y-85021601D01*
X168741685Y-84989093D01*
X168908315Y-84989093D01*
X169071742Y-85021601D01*
G37*
G36*
X135980000Y-86250000D02*
G01*
X134280000Y-86250000D01*
X134280000Y-84550000D01*
X135980000Y-84550000D01*
X135980000Y-86250000D01*
G37*
G36*
X127756742Y-84586601D02*
G01*
X127910687Y-84650367D01*
X128049234Y-84742941D01*
X128167059Y-84860766D01*
X128259633Y-84999313D01*
X128323399Y-85153258D01*
X128355907Y-85316685D01*
X128355907Y-85483315D01*
X128323399Y-85646742D01*
X128259633Y-85800687D01*
X128167059Y-85939234D01*
X128049234Y-86057059D01*
X127910687Y-86149633D01*
X127756742Y-86213399D01*
X127593315Y-86245907D01*
X127426685Y-86245907D01*
X127263258Y-86213399D01*
X127109313Y-86149633D01*
X126970766Y-86057059D01*
X126852941Y-85939234D01*
X126760367Y-85800687D01*
X126696601Y-85646742D01*
X126664093Y-85483315D01*
X126664093Y-85316685D01*
X126696601Y-85153258D01*
X126760367Y-84999313D01*
X126852941Y-84860766D01*
X126970766Y-84742941D01*
X127109313Y-84650367D01*
X127263258Y-84586601D01*
X127426685Y-84554093D01*
X127593315Y-84554093D01*
X127756742Y-84586601D01*
G37*
G36*
X130296742Y-84586601D02*
G01*
X130450687Y-84650367D01*
X130589234Y-84742941D01*
X130707059Y-84860766D01*
X130799633Y-84999313D01*
X130863399Y-85153258D01*
X130895907Y-85316685D01*
X130895907Y-85483315D01*
X130863399Y-85646742D01*
X130799633Y-85800687D01*
X130707059Y-85939234D01*
X130589234Y-86057059D01*
X130450687Y-86149633D01*
X130296742Y-86213399D01*
X130133315Y-86245907D01*
X129966685Y-86245907D01*
X129803258Y-86213399D01*
X129649313Y-86149633D01*
X129510766Y-86057059D01*
X129392941Y-85939234D01*
X129300367Y-85800687D01*
X129236601Y-85646742D01*
X129204093Y-85483315D01*
X129204093Y-85316685D01*
X129236601Y-85153258D01*
X129300367Y-84999313D01*
X129392941Y-84860766D01*
X129510766Y-84742941D01*
X129649313Y-84650367D01*
X129803258Y-84586601D01*
X129966685Y-84554093D01*
X130133315Y-84554093D01*
X130296742Y-84586601D01*
G37*
G36*
X132836742Y-84586601D02*
G01*
X132990687Y-84650367D01*
X133129234Y-84742941D01*
X133247059Y-84860766D01*
X133339633Y-84999313D01*
X133403399Y-85153258D01*
X133435907Y-85316685D01*
X133435907Y-85483315D01*
X133403399Y-85646742D01*
X133339633Y-85800687D01*
X133247059Y-85939234D01*
X133129234Y-86057059D01*
X132990687Y-86149633D01*
X132836742Y-86213399D01*
X132673315Y-86245907D01*
X132506685Y-86245907D01*
X132343258Y-86213399D01*
X132189313Y-86149633D01*
X132050766Y-86057059D01*
X131932941Y-85939234D01*
X131840367Y-85800687D01*
X131776601Y-85646742D01*
X131744093Y-85483315D01*
X131744093Y-85316685D01*
X131776601Y-85153258D01*
X131840367Y-84999313D01*
X131932941Y-84860766D01*
X132050766Y-84742941D01*
X132189313Y-84650367D01*
X132343258Y-84586601D01*
X132506685Y-84554093D01*
X132673315Y-84554093D01*
X132836742Y-84586601D01*
G37*
G36*
X139492228Y-83434448D02*
G01*
X139637117Y-83494463D01*
X139767515Y-83581592D01*
X139878408Y-83692485D01*
X139965537Y-83822883D01*
X140025552Y-83967772D01*
X140056148Y-84121586D01*
X140056148Y-84278414D01*
X140025552Y-84432228D01*
X139965537Y-84577117D01*
X139878408Y-84707515D01*
X139767515Y-84818408D01*
X139637117Y-84905537D01*
X139492228Y-84965552D01*
X139338414Y-84996148D01*
X139181586Y-84996148D01*
X139027772Y-84965552D01*
X138882883Y-84905537D01*
X138752485Y-84818408D01*
X138641592Y-84707515D01*
X138554463Y-84577117D01*
X138494448Y-84432228D01*
X138463852Y-84278414D01*
X138463852Y-84121586D01*
X138494448Y-83967772D01*
X138554463Y-83822883D01*
X138641592Y-83692485D01*
X138752485Y-83581592D01*
X138882883Y-83494463D01*
X139027772Y-83434448D01*
X139181586Y-83403852D01*
X139338414Y-83403852D01*
X139492228Y-83434448D01*
G37*
G36*
X141992228Y-83434448D02*
G01*
X142137117Y-83494463D01*
X142267515Y-83581592D01*
X142378408Y-83692485D01*
X142465537Y-83822883D01*
X142525552Y-83967772D01*
X142556148Y-84121586D01*
X142556148Y-84278414D01*
X142525552Y-84432228D01*
X142465537Y-84577117D01*
X142378408Y-84707515D01*
X142267515Y-84818408D01*
X142137117Y-84905537D01*
X141992228Y-84965552D01*
X141838414Y-84996148D01*
X141681586Y-84996148D01*
X141527772Y-84965552D01*
X141382883Y-84905537D01*
X141252485Y-84818408D01*
X141141592Y-84707515D01*
X141054463Y-84577117D01*
X140994448Y-84432228D01*
X140963852Y-84278414D01*
X140963852Y-84121586D01*
X140994448Y-83967772D01*
X141054463Y-83822883D01*
X141141592Y-83692485D01*
X141252485Y-83581592D01*
X141382883Y-83494463D01*
X141527772Y-83434448D01*
X141681586Y-83403852D01*
X141838414Y-83403852D01*
X141992228Y-83434448D01*
G37*
G36*
X151497228Y-82744448D02*
G01*
X151642117Y-82804463D01*
X151772515Y-82891592D01*
X151883408Y-83002485D01*
X151970537Y-83132883D01*
X152030552Y-83277772D01*
X152061148Y-83431586D01*
X152061148Y-83588414D01*
X152030552Y-83742228D01*
X151970537Y-83887117D01*
X151883408Y-84017515D01*
X151772515Y-84128408D01*
X151642117Y-84215537D01*
X151497228Y-84275552D01*
X151343414Y-84306148D01*
X151186586Y-84306148D01*
X151032772Y-84275552D01*
X150887883Y-84215537D01*
X150757485Y-84128408D01*
X150646592Y-84017515D01*
X150559463Y-83887117D01*
X150499448Y-83742228D01*
X150468852Y-83588414D01*
X150468852Y-83431586D01*
X150499448Y-83277772D01*
X150559463Y-83132883D01*
X150646592Y-83002485D01*
X150757485Y-82891592D01*
X150887883Y-82804463D01*
X151032772Y-82744448D01*
X151186586Y-82713852D01*
X151343414Y-82713852D01*
X151497228Y-82744448D01*
G37*
G36*
X159117228Y-82744448D02*
G01*
X159262117Y-82804463D01*
X159392515Y-82891592D01*
X159503408Y-83002485D01*
X159590537Y-83132883D01*
X159650552Y-83277772D01*
X159681148Y-83431586D01*
X159681148Y-83588414D01*
X159650552Y-83742228D01*
X159590537Y-83887117D01*
X159503408Y-84017515D01*
X159392515Y-84128408D01*
X159262117Y-84215537D01*
X159117228Y-84275552D01*
X158963414Y-84306148D01*
X158806586Y-84306148D01*
X158652772Y-84275552D01*
X158507883Y-84215537D01*
X158377485Y-84128408D01*
X158266592Y-84017515D01*
X158179463Y-83887117D01*
X158119448Y-83742228D01*
X158088852Y-83588414D01*
X158088852Y-83431586D01*
X158119448Y-83277772D01*
X158179463Y-83132883D01*
X158266592Y-83002485D01*
X158377485Y-82891592D01*
X158507883Y-82804463D01*
X158652772Y-82744448D01*
X158806586Y-82713852D01*
X158963414Y-82713852D01*
X159117228Y-82744448D01*
G37*
G36*
X169675000Y-84145000D02*
G01*
X167975000Y-84145000D01*
X167975000Y-82445000D01*
X169675000Y-82445000D01*
X169675000Y-84145000D01*
G37*
G36*
X151497228Y-80204448D02*
G01*
X151642117Y-80264463D01*
X151772515Y-80351592D01*
X151883408Y-80462485D01*
X151970537Y-80592883D01*
X152030552Y-80737772D01*
X152061148Y-80891586D01*
X152061148Y-81048414D01*
X152030552Y-81202228D01*
X151970537Y-81347117D01*
X151883408Y-81477515D01*
X151772515Y-81588408D01*
X151642117Y-81675537D01*
X151497228Y-81735552D01*
X151343414Y-81766148D01*
X151186586Y-81766148D01*
X151032772Y-81735552D01*
X150887883Y-81675537D01*
X150757485Y-81588408D01*
X150646592Y-81477515D01*
X150559463Y-81347117D01*
X150499448Y-81202228D01*
X150468852Y-81048414D01*
X150468852Y-80891586D01*
X150499448Y-80737772D01*
X150559463Y-80592883D01*
X150646592Y-80462485D01*
X150757485Y-80351592D01*
X150887883Y-80264463D01*
X151032772Y-80204448D01*
X151186586Y-80173852D01*
X151343414Y-80173852D01*
X151497228Y-80204448D01*
G37*
G36*
X159117228Y-80204448D02*
G01*
X159262117Y-80264463D01*
X159392515Y-80351592D01*
X159503408Y-80462485D01*
X159590537Y-80592883D01*
X159650552Y-80737772D01*
X159681148Y-80891586D01*
X159681148Y-81048414D01*
X159650552Y-81202228D01*
X159590537Y-81347117D01*
X159503408Y-81477515D01*
X159392515Y-81588408D01*
X159262117Y-81675537D01*
X159117228Y-81735552D01*
X158963414Y-81766148D01*
X158806586Y-81766148D01*
X158652772Y-81735552D01*
X158507883Y-81675537D01*
X158377485Y-81588408D01*
X158266592Y-81477515D01*
X158179463Y-81347117D01*
X158119448Y-81202228D01*
X158088852Y-81048414D01*
X158088852Y-80891586D01*
X158119448Y-80737772D01*
X158179463Y-80592883D01*
X158266592Y-80462485D01*
X158377485Y-80351592D01*
X158507883Y-80264463D01*
X158652772Y-80204448D01*
X158806586Y-80173852D01*
X158963414Y-80173852D01*
X159117228Y-80204448D01*
G37*
G36*
X128062228Y-78894448D02*
G01*
X128207117Y-78954463D01*
X128337515Y-79041592D01*
X128448408Y-79152485D01*
X128535537Y-79282883D01*
X128595552Y-79427772D01*
X128626148Y-79581586D01*
X128626148Y-79738414D01*
X128595552Y-79892228D01*
X128535537Y-80037117D01*
X128448408Y-80167515D01*
X128337515Y-80278408D01*
X128207117Y-80365537D01*
X128062228Y-80425552D01*
X127908414Y-80456148D01*
X127751586Y-80456148D01*
X127597772Y-80425552D01*
X127452883Y-80365537D01*
X127322485Y-80278408D01*
X127211592Y-80167515D01*
X127124463Y-80037117D01*
X127064448Y-79892228D01*
X127033852Y-79738414D01*
X127033852Y-79581586D01*
X127064448Y-79427772D01*
X127124463Y-79282883D01*
X127211592Y-79152485D01*
X127322485Y-79041592D01*
X127452883Y-78954463D01*
X127597772Y-78894448D01*
X127751586Y-78863852D01*
X127908414Y-78863852D01*
X128062228Y-78894448D01*
G37*
G36*
X130562228Y-78894448D02*
G01*
X130707117Y-78954463D01*
X130837515Y-79041592D01*
X130948408Y-79152485D01*
X131035537Y-79282883D01*
X131095552Y-79427772D01*
X131126148Y-79581586D01*
X131126148Y-79738414D01*
X131095552Y-79892228D01*
X131035537Y-80037117D01*
X130948408Y-80167515D01*
X130837515Y-80278408D01*
X130707117Y-80365537D01*
X130562228Y-80425552D01*
X130408414Y-80456148D01*
X130251586Y-80456148D01*
X130097772Y-80425552D01*
X129952883Y-80365537D01*
X129822485Y-80278408D01*
X129711592Y-80167515D01*
X129624463Y-80037117D01*
X129564448Y-79892228D01*
X129533852Y-79738414D01*
X129533852Y-79581586D01*
X129564448Y-79427772D01*
X129624463Y-79282883D01*
X129711592Y-79152485D01*
X129822485Y-79041592D01*
X129952883Y-78954463D01*
X130097772Y-78894448D01*
X130251586Y-78863852D01*
X130408414Y-78863852D01*
X130562228Y-78894448D01*
G37*
G36*
X151497228Y-77664448D02*
G01*
X151642117Y-77724463D01*
X151772515Y-77811592D01*
X151883408Y-77922485D01*
X151970537Y-78052883D01*
X152030552Y-78197772D01*
X152061148Y-78351586D01*
X152061148Y-78508414D01*
X152030552Y-78662228D01*
X151970537Y-78807117D01*
X151883408Y-78937515D01*
X151772515Y-79048408D01*
X151642117Y-79135537D01*
X151497228Y-79195552D01*
X151343414Y-79226148D01*
X151186586Y-79226148D01*
X151032772Y-79195552D01*
X150887883Y-79135537D01*
X150757485Y-79048408D01*
X150646592Y-78937515D01*
X150559463Y-78807117D01*
X150499448Y-78662228D01*
X150468852Y-78508414D01*
X150468852Y-78351586D01*
X150499448Y-78197772D01*
X150559463Y-78052883D01*
X150646592Y-77922485D01*
X150757485Y-77811592D01*
X150887883Y-77724463D01*
X151032772Y-77664448D01*
X151186586Y-77633852D01*
X151343414Y-77633852D01*
X151497228Y-77664448D01*
G37*
G36*
X159117228Y-77664448D02*
G01*
X159262117Y-77724463D01*
X159392515Y-77811592D01*
X159503408Y-77922485D01*
X159590537Y-78052883D01*
X159650552Y-78197772D01*
X159681148Y-78351586D01*
X159681148Y-78508414D01*
X159650552Y-78662228D01*
X159590537Y-78807117D01*
X159503408Y-78937515D01*
X159392515Y-79048408D01*
X159262117Y-79135537D01*
X159117228Y-79195552D01*
X158963414Y-79226148D01*
X158806586Y-79226148D01*
X158652772Y-79195552D01*
X158507883Y-79135537D01*
X158377485Y-79048408D01*
X158266592Y-78937515D01*
X158179463Y-78807117D01*
X158119448Y-78662228D01*
X158088852Y-78508414D01*
X158088852Y-78351586D01*
X158119448Y-78197772D01*
X158179463Y-78052883D01*
X158266592Y-77922485D01*
X158377485Y-77811592D01*
X158507883Y-77724463D01*
X158652772Y-77664448D01*
X158806586Y-77633852D01*
X158963414Y-77633852D01*
X159117228Y-77664448D01*
G37*
G36*
X151497228Y-75124448D02*
G01*
X151642117Y-75184463D01*
X151772515Y-75271592D01*
X151883408Y-75382485D01*
X151970537Y-75512883D01*
X152030552Y-75657772D01*
X152061148Y-75811586D01*
X152061148Y-75968414D01*
X152030552Y-76122228D01*
X151970537Y-76267117D01*
X151883408Y-76397515D01*
X151772515Y-76508408D01*
X151642117Y-76595537D01*
X151497228Y-76655552D01*
X151343414Y-76686148D01*
X151186586Y-76686148D01*
X151032772Y-76655552D01*
X150887883Y-76595537D01*
X150757485Y-76508408D01*
X150646592Y-76397515D01*
X150559463Y-76267117D01*
X150499448Y-76122228D01*
X150468852Y-75968414D01*
X150468852Y-75811586D01*
X150499448Y-75657772D01*
X150559463Y-75512883D01*
X150646592Y-75382485D01*
X150757485Y-75271592D01*
X150887883Y-75184463D01*
X151032772Y-75124448D01*
X151186586Y-75093852D01*
X151343414Y-75093852D01*
X151497228Y-75124448D01*
G37*
G36*
X159117228Y-75124448D02*
G01*
X159262117Y-75184463D01*
X159392515Y-75271592D01*
X159503408Y-75382485D01*
X159590537Y-75512883D01*
X159650552Y-75657772D01*
X159681148Y-75811586D01*
X159681148Y-75968414D01*
X159650552Y-76122228D01*
X159590537Y-76267117D01*
X159503408Y-76397515D01*
X159392515Y-76508408D01*
X159262117Y-76595537D01*
X159117228Y-76655552D01*
X158963414Y-76686148D01*
X158806586Y-76686148D01*
X158652772Y-76655552D01*
X158507883Y-76595537D01*
X158377485Y-76508408D01*
X158266592Y-76397515D01*
X158179463Y-76267117D01*
X158119448Y-76122228D01*
X158088852Y-75968414D01*
X158088852Y-75811586D01*
X158119448Y-75657772D01*
X158179463Y-75512883D01*
X158266592Y-75382485D01*
X158377485Y-75271592D01*
X158507883Y-75184463D01*
X158652772Y-75124448D01*
X158806586Y-75093852D01*
X158963414Y-75093852D01*
X159117228Y-75124448D01*
G37*
G36*
X168083199Y-75040142D02*
G01*
X168209978Y-75092655D01*
X168324075Y-75168893D01*
X168421107Y-75265925D01*
X168497345Y-75380022D01*
X168549858Y-75506801D01*
X168576629Y-75641388D01*
X168576629Y-75778612D01*
X168549858Y-75913199D01*
X168497345Y-76039978D01*
X168421107Y-76154075D01*
X168324075Y-76251107D01*
X168209978Y-76327345D01*
X168083199Y-76379858D01*
X167948612Y-76406629D01*
X167811388Y-76406629D01*
X167676801Y-76379858D01*
X167550022Y-76327345D01*
X167435925Y-76251107D01*
X167338893Y-76154075D01*
X167262655Y-76039978D01*
X167210142Y-75913199D01*
X167183371Y-75778612D01*
X167183371Y-75641388D01*
X167210142Y-75506801D01*
X167262655Y-75380022D01*
X167338893Y-75265925D01*
X167435925Y-75168893D01*
X167550022Y-75092655D01*
X167676801Y-75040142D01*
X167811388Y-75013371D01*
X167948612Y-75013371D01*
X168083199Y-75040142D01*
G37*
G36*
X135900000Y-75135000D02*
G01*
X134200000Y-75135000D01*
X134200000Y-73435000D01*
X135900000Y-73435000D01*
X135900000Y-75135000D01*
G37*
G36*
X127676742Y-73471601D02*
G01*
X127830687Y-73535367D01*
X127969234Y-73627941D01*
X128087059Y-73745766D01*
X128179633Y-73884313D01*
X128243399Y-74038258D01*
X128275907Y-74201685D01*
X128275907Y-74368315D01*
X128243399Y-74531742D01*
X128179633Y-74685687D01*
X128087059Y-74824234D01*
X127969234Y-74942059D01*
X127830687Y-75034633D01*
X127676742Y-75098399D01*
X127513315Y-75130907D01*
X127346685Y-75130907D01*
X127183258Y-75098399D01*
X127029313Y-75034633D01*
X126890766Y-74942059D01*
X126772941Y-74824234D01*
X126680367Y-74685687D01*
X126616601Y-74531742D01*
X126584093Y-74368315D01*
X126584093Y-74201685D01*
X126616601Y-74038258D01*
X126680367Y-73884313D01*
X126772941Y-73745766D01*
X126890766Y-73627941D01*
X127029313Y-73535367D01*
X127183258Y-73471601D01*
X127346685Y-73439093D01*
X127513315Y-73439093D01*
X127676742Y-73471601D01*
G37*
G36*
X130216742Y-73471601D02*
G01*
X130370687Y-73535367D01*
X130509234Y-73627941D01*
X130627059Y-73745766D01*
X130719633Y-73884313D01*
X130783399Y-74038258D01*
X130815907Y-74201685D01*
X130815907Y-74368315D01*
X130783399Y-74531742D01*
X130719633Y-74685687D01*
X130627059Y-74824234D01*
X130509234Y-74942059D01*
X130370687Y-75034633D01*
X130216742Y-75098399D01*
X130053315Y-75130907D01*
X129886685Y-75130907D01*
X129723258Y-75098399D01*
X129569313Y-75034633D01*
X129430766Y-74942059D01*
X129312941Y-74824234D01*
X129220367Y-74685687D01*
X129156601Y-74531742D01*
X129124093Y-74368315D01*
X129124093Y-74201685D01*
X129156601Y-74038258D01*
X129220367Y-73884313D01*
X129312941Y-73745766D01*
X129430766Y-73627941D01*
X129569313Y-73535367D01*
X129723258Y-73471601D01*
X129886685Y-73439093D01*
X130053315Y-73439093D01*
X130216742Y-73471601D01*
G37*
G36*
X132756742Y-73471601D02*
G01*
X132910687Y-73535367D01*
X133049234Y-73627941D01*
X133167059Y-73745766D01*
X133259633Y-73884313D01*
X133323399Y-74038258D01*
X133355907Y-74201685D01*
X133355907Y-74368315D01*
X133323399Y-74531742D01*
X133259633Y-74685687D01*
X133167059Y-74824234D01*
X133049234Y-74942059D01*
X132910687Y-75034633D01*
X132756742Y-75098399D01*
X132593315Y-75130907D01*
X132426685Y-75130907D01*
X132263258Y-75098399D01*
X132109313Y-75034633D01*
X131970766Y-74942059D01*
X131852941Y-74824234D01*
X131760367Y-74685687D01*
X131696601Y-74531742D01*
X131664093Y-74368315D01*
X131664093Y-74201685D01*
X131696601Y-74038258D01*
X131760367Y-73884313D01*
X131852941Y-73745766D01*
X131970766Y-73627941D01*
X132109313Y-73535367D01*
X132263258Y-73471601D01*
X132426685Y-73439093D01*
X132593315Y-73439093D01*
X132756742Y-73471601D01*
G37*
G36*
X175375000Y-74475000D02*
G01*
X173375000Y-74475000D01*
X173375000Y-72475000D01*
X175375000Y-72475000D01*
X175375000Y-74475000D01*
G37*
G36*
X182265285Y-72518060D02*
G01*
X182446397Y-72593079D01*
X182609393Y-72701990D01*
X182748010Y-72840607D01*
X182856921Y-73003603D01*
X182931940Y-73184715D01*
X182970185Y-73376983D01*
X182970185Y-73573017D01*
X182931940Y-73765285D01*
X182856921Y-73946397D01*
X182748010Y-74109393D01*
X182609393Y-74248010D01*
X182446397Y-74356921D01*
X182265285Y-74431940D01*
X182073017Y-74470185D01*
X181876983Y-74470185D01*
X181684715Y-74431940D01*
X181503603Y-74356921D01*
X181340607Y-74248010D01*
X181201990Y-74109393D01*
X181093079Y-73946397D01*
X181018060Y-73765285D01*
X180979815Y-73573017D01*
X180979815Y-73376983D01*
X181018060Y-73184715D01*
X181093079Y-73003603D01*
X181201990Y-72840607D01*
X181340607Y-72701990D01*
X181503603Y-72593079D01*
X181684715Y-72518060D01*
X181876983Y-72479815D01*
X182073017Y-72479815D01*
X182265285Y-72518060D01*
G37*
G36*
X151819850Y-72550964D02*
G01*
X151870040Y-72556787D01*
X151887189Y-72564359D01*
X151910671Y-72569030D01*
X151935810Y-72585827D01*
X151955696Y-72594608D01*
X151969277Y-72608189D01*
X151991777Y-72623223D01*
X152006810Y-72645722D01*
X152020391Y-72659303D01*
X152029170Y-72679186D01*
X152045970Y-72704329D01*
X152050641Y-72727812D01*
X152058212Y-72744959D01*
X152064033Y-72795139D01*
X152065000Y-72800000D01*
X152065000Y-73900000D01*
X152064032Y-73904863D01*
X152058212Y-73955040D01*
X152050641Y-73972185D01*
X152045970Y-73995671D01*
X152029169Y-74020815D01*
X152020391Y-74040696D01*
X152006812Y-74054274D01*
X151991777Y-74076777D01*
X151969274Y-74091812D01*
X151955696Y-74105391D01*
X151935815Y-74114169D01*
X151910671Y-74130970D01*
X151887185Y-74135641D01*
X151870040Y-74143212D01*
X151819861Y-74149032D01*
X151815000Y-74150000D01*
X150715000Y-74150000D01*
X150710138Y-74149032D01*
X150659959Y-74143212D01*
X150642812Y-74135641D01*
X150619329Y-74130970D01*
X150594186Y-74114170D01*
X150574303Y-74105391D01*
X150560722Y-74091810D01*
X150538223Y-74076777D01*
X150523189Y-74054277D01*
X150509608Y-74040696D01*
X150500827Y-74020810D01*
X150484030Y-73995671D01*
X150479359Y-73972189D01*
X150471787Y-73955040D01*
X150465964Y-73904849D01*
X150465000Y-73900000D01*
X150465000Y-72800000D01*
X150465964Y-72795150D01*
X150471787Y-72744959D01*
X150479359Y-72727808D01*
X150484030Y-72704329D01*
X150500826Y-72679191D01*
X150509608Y-72659303D01*
X150523191Y-72645719D01*
X150538223Y-72623223D01*
X150560719Y-72608191D01*
X150574303Y-72594608D01*
X150594191Y-72585826D01*
X150619329Y-72569030D01*
X150642808Y-72564359D01*
X150659959Y-72556787D01*
X150710151Y-72550964D01*
X150715000Y-72550000D01*
X151815000Y-72550000D01*
X151819850Y-72550964D01*
G37*
G36*
X159117228Y-72584448D02*
G01*
X159262117Y-72644463D01*
X159392515Y-72731592D01*
X159503408Y-72842485D01*
X159590537Y-72972883D01*
X159650552Y-73117772D01*
X159681148Y-73271586D01*
X159681148Y-73428414D01*
X159650552Y-73582228D01*
X159590537Y-73727117D01*
X159503408Y-73857515D01*
X159392515Y-73968408D01*
X159262117Y-74055537D01*
X159117228Y-74115552D01*
X158963414Y-74146148D01*
X158806586Y-74146148D01*
X158652772Y-74115552D01*
X158507883Y-74055537D01*
X158377485Y-73968408D01*
X158266592Y-73857515D01*
X158179463Y-73727117D01*
X158119448Y-73582228D01*
X158088852Y-73428414D01*
X158088852Y-73271586D01*
X158119448Y-73117772D01*
X158179463Y-72972883D01*
X158266592Y-72842485D01*
X158377485Y-72731592D01*
X158507883Y-72644463D01*
X158652772Y-72584448D01*
X158806586Y-72553852D01*
X158963414Y-72553852D01*
X159117228Y-72584448D01*
G37*
G36*
X163033199Y-71770142D02*
G01*
X163159978Y-71822655D01*
X163274075Y-71898893D01*
X163371107Y-71995925D01*
X163447345Y-72110022D01*
X163499858Y-72236801D01*
X163526629Y-72371388D01*
X163526629Y-72508612D01*
X163499858Y-72643199D01*
X163447345Y-72769978D01*
X163371107Y-72884075D01*
X163274075Y-72981107D01*
X163159978Y-73057345D01*
X163033199Y-73109858D01*
X162898612Y-73136629D01*
X162761388Y-73136629D01*
X162626801Y-73109858D01*
X162500022Y-73057345D01*
X162385925Y-72981107D01*
X162288893Y-72884075D01*
X162212655Y-72769978D01*
X162160142Y-72643199D01*
X162133371Y-72508612D01*
X162133371Y-72371388D01*
X162160142Y-72236801D01*
X162212655Y-72110022D01*
X162288893Y-71995925D01*
X162385925Y-71898893D01*
X162500022Y-71822655D01*
X162626801Y-71770142D01*
X162761388Y-71743371D01*
X162898612Y-71743371D01*
X163033199Y-71770142D01*
G37*
G36*
X136223199Y-70490142D02*
G01*
X136349978Y-70542655D01*
X136464075Y-70618893D01*
X136561107Y-70715925D01*
X136637345Y-70830022D01*
X136689858Y-70956801D01*
X136716629Y-71091388D01*
X136716629Y-71228612D01*
X136689858Y-71363199D01*
X136637345Y-71489978D01*
X136561107Y-71604075D01*
X136464075Y-71701107D01*
X136349978Y-71777345D01*
X136223199Y-71829858D01*
X136088612Y-71856629D01*
X135951388Y-71856629D01*
X135816801Y-71829858D01*
X135690022Y-71777345D01*
X135575925Y-71701107D01*
X135478893Y-71604075D01*
X135402655Y-71489978D01*
X135350142Y-71363199D01*
X135323371Y-71228612D01*
X135323371Y-71091388D01*
X135350142Y-70956801D01*
X135402655Y-70830022D01*
X135478893Y-70715925D01*
X135575925Y-70618893D01*
X135690022Y-70542655D01*
X135816801Y-70490142D01*
X135951388Y-70463371D01*
X136088612Y-70463371D01*
X136223199Y-70490142D01*
G37*
G36*
X141303199Y-70490142D02*
G01*
X141429978Y-70542655D01*
X141544075Y-70618893D01*
X141641107Y-70715925D01*
X141717345Y-70830022D01*
X141769858Y-70956801D01*
X141796629Y-71091388D01*
X141796629Y-71228612D01*
X141769858Y-71363199D01*
X141717345Y-71489978D01*
X141641107Y-71604075D01*
X141544075Y-71701107D01*
X141429978Y-71777345D01*
X141303199Y-71829858D01*
X141168612Y-71856629D01*
X141031388Y-71856629D01*
X140896801Y-71829858D01*
X140770022Y-71777345D01*
X140655925Y-71701107D01*
X140558893Y-71604075D01*
X140482655Y-71489978D01*
X140430142Y-71363199D01*
X140403371Y-71228612D01*
X140403371Y-71091388D01*
X140430142Y-70956801D01*
X140482655Y-70830022D01*
X140558893Y-70715925D01*
X140655925Y-70618893D01*
X140770022Y-70542655D01*
X140896801Y-70490142D01*
X141031388Y-70463371D01*
X141168612Y-70463371D01*
X141303199Y-70490142D01*
G37*
G36*
X151363199Y-70010142D02*
G01*
X151489978Y-70062655D01*
X151604075Y-70138893D01*
X151701107Y-70235925D01*
X151777345Y-70350022D01*
X151829858Y-70476801D01*
X151856629Y-70611388D01*
X151856629Y-70748612D01*
X151829858Y-70883199D01*
X151777345Y-71009978D01*
X151701107Y-71124075D01*
X151604075Y-71221107D01*
X151489978Y-71297345D01*
X151363199Y-71349858D01*
X151228612Y-71376629D01*
X151091388Y-71376629D01*
X150956801Y-71349858D01*
X150830022Y-71297345D01*
X150715925Y-71221107D01*
X150618893Y-71124075D01*
X150542655Y-71009978D01*
X150490142Y-70883199D01*
X150463371Y-70748612D01*
X150463371Y-70611388D01*
X150490142Y-70476801D01*
X150542655Y-70350022D01*
X150618893Y-70235925D01*
X150715925Y-70138893D01*
X150830022Y-70062655D01*
X150956801Y-70010142D01*
X151091388Y-69983371D01*
X151228612Y-69983371D01*
X151363199Y-70010142D01*
G37*
G36*
X156443199Y-70010142D02*
G01*
X156569978Y-70062655D01*
X156684075Y-70138893D01*
X156781107Y-70235925D01*
X156857345Y-70350022D01*
X156909858Y-70476801D01*
X156936629Y-70611388D01*
X156936629Y-70748612D01*
X156909858Y-70883199D01*
X156857345Y-71009978D01*
X156781107Y-71124075D01*
X156684075Y-71221107D01*
X156569978Y-71297345D01*
X156443199Y-71349858D01*
X156308612Y-71376629D01*
X156171388Y-71376629D01*
X156036801Y-71349858D01*
X155910022Y-71297345D01*
X155795925Y-71221107D01*
X155698893Y-71124075D01*
X155622655Y-71009978D01*
X155570142Y-70883199D01*
X155543371Y-70748612D01*
X155543371Y-70611388D01*
X155570142Y-70476801D01*
X155622655Y-70350022D01*
X155698893Y-70235925D01*
X155795925Y-70138893D01*
X155910022Y-70062655D01*
X156036801Y-70010142D01*
X156171388Y-69983371D01*
X156308612Y-69983371D01*
X156443199Y-70010142D01*
G37*
G36*
X168083199Y-69960142D02*
G01*
X168209978Y-70012655D01*
X168324075Y-70088893D01*
X168421107Y-70185925D01*
X168497345Y-70300022D01*
X168549858Y-70426801D01*
X168576629Y-70561388D01*
X168576629Y-70698612D01*
X168549858Y-70833199D01*
X168497345Y-70959978D01*
X168421107Y-71074075D01*
X168324075Y-71171107D01*
X168209978Y-71247345D01*
X168083199Y-71299858D01*
X167948612Y-71326629D01*
X167811388Y-71326629D01*
X167676801Y-71299858D01*
X167550022Y-71247345D01*
X167435925Y-71171107D01*
X167338893Y-71074075D01*
X167262655Y-70959978D01*
X167210142Y-70833199D01*
X167183371Y-70698612D01*
X167183371Y-70561388D01*
X167210142Y-70426801D01*
X167262655Y-70300022D01*
X167338893Y-70185925D01*
X167435925Y-70088893D01*
X167550022Y-70012655D01*
X167676801Y-69960142D01*
X167811388Y-69933371D01*
X167948612Y-69933371D01*
X168083199Y-69960142D01*
G37*
G36*
X136600000Y-69030000D02*
G01*
X134900000Y-69030000D01*
X134900000Y-67330000D01*
X136600000Y-67330000D01*
X136600000Y-69030000D01*
G37*
G36*
X128376742Y-67366601D02*
G01*
X128530687Y-67430367D01*
X128669234Y-67522941D01*
X128787059Y-67640766D01*
X128879633Y-67779313D01*
X128943399Y-67933258D01*
X128975907Y-68096685D01*
X128975907Y-68263315D01*
X128943399Y-68426742D01*
X128879633Y-68580687D01*
X128787059Y-68719234D01*
X128669234Y-68837059D01*
X128530687Y-68929633D01*
X128376742Y-68993399D01*
X128213315Y-69025907D01*
X128046685Y-69025907D01*
X127883258Y-68993399D01*
X127729313Y-68929633D01*
X127590766Y-68837059D01*
X127472941Y-68719234D01*
X127380367Y-68580687D01*
X127316601Y-68426742D01*
X127284093Y-68263315D01*
X127284093Y-68096685D01*
X127316601Y-67933258D01*
X127380367Y-67779313D01*
X127472941Y-67640766D01*
X127590766Y-67522941D01*
X127729313Y-67430367D01*
X127883258Y-67366601D01*
X128046685Y-67334093D01*
X128213315Y-67334093D01*
X128376742Y-67366601D01*
G37*
G36*
X130916742Y-67366601D02*
G01*
X131070687Y-67430367D01*
X131209234Y-67522941D01*
X131327059Y-67640766D01*
X131419633Y-67779313D01*
X131483399Y-67933258D01*
X131515907Y-68096685D01*
X131515907Y-68263315D01*
X131483399Y-68426742D01*
X131419633Y-68580687D01*
X131327059Y-68719234D01*
X131209234Y-68837059D01*
X131070687Y-68929633D01*
X130916742Y-68993399D01*
X130753315Y-69025907D01*
X130586685Y-69025907D01*
X130423258Y-68993399D01*
X130269313Y-68929633D01*
X130130766Y-68837059D01*
X130012941Y-68719234D01*
X129920367Y-68580687D01*
X129856601Y-68426742D01*
X129824093Y-68263315D01*
X129824093Y-68096685D01*
X129856601Y-67933258D01*
X129920367Y-67779313D01*
X130012941Y-67640766D01*
X130130766Y-67522941D01*
X130269313Y-67430367D01*
X130423258Y-67366601D01*
X130586685Y-67334093D01*
X130753315Y-67334093D01*
X130916742Y-67366601D01*
G37*
G36*
X133456742Y-67366601D02*
G01*
X133610687Y-67430367D01*
X133749234Y-67522941D01*
X133867059Y-67640766D01*
X133959633Y-67779313D01*
X134023399Y-67933258D01*
X134055907Y-68096685D01*
X134055907Y-68263315D01*
X134023399Y-68426742D01*
X133959633Y-68580687D01*
X133867059Y-68719234D01*
X133749234Y-68837059D01*
X133610687Y-68929633D01*
X133456742Y-68993399D01*
X133293315Y-69025907D01*
X133126685Y-69025907D01*
X132963258Y-68993399D01*
X132809313Y-68929633D01*
X132670766Y-68837059D01*
X132552941Y-68719234D01*
X132460367Y-68580687D01*
X132396601Y-68426742D01*
X132364093Y-68263315D01*
X132364093Y-68096685D01*
X132396601Y-67933258D01*
X132460367Y-67779313D01*
X132552941Y-67640766D01*
X132670766Y-67522941D01*
X132809313Y-67430367D01*
X132963258Y-67366601D01*
X133126685Y-67334093D01*
X133293315Y-67334093D01*
X133456742Y-67366601D01*
G37*
G36*
X163033199Y-66690142D02*
G01*
X163159978Y-66742655D01*
X163274075Y-66818893D01*
X163371107Y-66915925D01*
X163447345Y-67030022D01*
X163499858Y-67156801D01*
X163526629Y-67291388D01*
X163526629Y-67428612D01*
X163499858Y-67563199D01*
X163447345Y-67689978D01*
X163371107Y-67804075D01*
X163274075Y-67901107D01*
X163159978Y-67977345D01*
X163033199Y-68029858D01*
X162898612Y-68056629D01*
X162761388Y-68056629D01*
X162626801Y-68029858D01*
X162500022Y-67977345D01*
X162385925Y-67901107D01*
X162288893Y-67804075D01*
X162212655Y-67689978D01*
X162160142Y-67563199D01*
X162133371Y-67428612D01*
X162133371Y-67291388D01*
X162160142Y-67156801D01*
X162212655Y-67030022D01*
X162288893Y-66915925D01*
X162385925Y-66818893D01*
X162500022Y-66742655D01*
X162626801Y-66690142D01*
X162761388Y-66663371D01*
X162898612Y-66663371D01*
X163033199Y-66690142D01*
G37*
G36*
X180500000Y-66150000D02*
G01*
X178800000Y-66150000D01*
X178800000Y-64450000D01*
X180500000Y-64450000D01*
X180500000Y-66150000D01*
G37*
G36*
X177356742Y-64486601D02*
G01*
X177510687Y-64550367D01*
X177649234Y-64642941D01*
X177767059Y-64760766D01*
X177859633Y-64899313D01*
X177923399Y-65053258D01*
X177955907Y-65216685D01*
X177955907Y-65383315D01*
X177923399Y-65546742D01*
X177859633Y-65700687D01*
X177767059Y-65839234D01*
X177649234Y-65957059D01*
X177510687Y-66049633D01*
X177356742Y-66113399D01*
X177193315Y-66145907D01*
X177026685Y-66145907D01*
X176863258Y-66113399D01*
X176709313Y-66049633D01*
X176570766Y-65957059D01*
X176452941Y-65839234D01*
X176360367Y-65700687D01*
X176296601Y-65546742D01*
X176264093Y-65383315D01*
X176264093Y-65216685D01*
X176296601Y-65053258D01*
X176360367Y-64899313D01*
X176452941Y-64760766D01*
X176570766Y-64642941D01*
X176709313Y-64550367D01*
X176863258Y-64486601D01*
X177026685Y-64454093D01*
X177193315Y-64454093D01*
X177356742Y-64486601D01*
G37*
G36*
X154612228Y-63414448D02*
G01*
X154757117Y-63474463D01*
X154887515Y-63561592D01*
X154998408Y-63672485D01*
X155085537Y-63802883D01*
X155145552Y-63947772D01*
X155176148Y-64101586D01*
X155176148Y-64258414D01*
X155145552Y-64412228D01*
X155085537Y-64557117D01*
X154998408Y-64687515D01*
X154887515Y-64798408D01*
X154757117Y-64885537D01*
X154612228Y-64945552D01*
X154458414Y-64976148D01*
X154301586Y-64976148D01*
X154147772Y-64945552D01*
X154002883Y-64885537D01*
X153872485Y-64798408D01*
X153761592Y-64687515D01*
X153674463Y-64557117D01*
X153614448Y-64412228D01*
X153583852Y-64258414D01*
X153583852Y-64101586D01*
X153614448Y-63947772D01*
X153674463Y-63802883D01*
X153761592Y-63672485D01*
X153872485Y-63561592D01*
X154002883Y-63474463D01*
X154147772Y-63414448D01*
X154301586Y-63383852D01*
X154458414Y-63383852D01*
X154612228Y-63414448D01*
G37*
G36*
X128253199Y-62650142D02*
G01*
X128379978Y-62702655D01*
X128494075Y-62778893D01*
X128591107Y-62875925D01*
X128667345Y-62990022D01*
X128719858Y-63116801D01*
X128746629Y-63251388D01*
X128746629Y-63388612D01*
X128719858Y-63523199D01*
X128667345Y-63649978D01*
X128591107Y-63764075D01*
X128494075Y-63861107D01*
X128379978Y-63937345D01*
X128253199Y-63989858D01*
X128118612Y-64016629D01*
X127981388Y-64016629D01*
X127846801Y-63989858D01*
X127720022Y-63937345D01*
X127605925Y-63861107D01*
X127508893Y-63764075D01*
X127432655Y-63649978D01*
X127380142Y-63523199D01*
X127353371Y-63388612D01*
X127353371Y-63251388D01*
X127380142Y-63116801D01*
X127432655Y-62990022D01*
X127508893Y-62875925D01*
X127605925Y-62778893D01*
X127720022Y-62702655D01*
X127846801Y-62650142D01*
X127981388Y-62623371D01*
X128118612Y-62623371D01*
X128253199Y-62650142D01*
G37*
G36*
X133333199Y-62650142D02*
G01*
X133459978Y-62702655D01*
X133574075Y-62778893D01*
X133671107Y-62875925D01*
X133747345Y-62990022D01*
X133799858Y-63116801D01*
X133826629Y-63251388D01*
X133826629Y-63388612D01*
X133799858Y-63523199D01*
X133747345Y-63649978D01*
X133671107Y-63764075D01*
X133574075Y-63861107D01*
X133459978Y-63937345D01*
X133333199Y-63989858D01*
X133198612Y-64016629D01*
X133061388Y-64016629D01*
X132926801Y-63989858D01*
X132800022Y-63937345D01*
X132685925Y-63861107D01*
X132588893Y-63764075D01*
X132512655Y-63649978D01*
X132460142Y-63523199D01*
X132433371Y-63388612D01*
X132433371Y-63251388D01*
X132460142Y-63116801D01*
X132512655Y-62990022D01*
X132588893Y-62875925D01*
X132685925Y-62778893D01*
X132800022Y-62702655D01*
X132926801Y-62650142D01*
X133061388Y-62623371D01*
X133198612Y-62623371D01*
X133333199Y-62650142D01*
G37*
G36*
X177356742Y-61946601D02*
G01*
X177510687Y-62010367D01*
X177649234Y-62102941D01*
X177767059Y-62220766D01*
X177859633Y-62359313D01*
X177923399Y-62513258D01*
X177955907Y-62676685D01*
X177955907Y-62843315D01*
X177923399Y-63006742D01*
X177859633Y-63160687D01*
X177767059Y-63299234D01*
X177649234Y-63417059D01*
X177510687Y-63509633D01*
X177356742Y-63573399D01*
X177193315Y-63605907D01*
X177026685Y-63605907D01*
X176863258Y-63573399D01*
X176709313Y-63509633D01*
X176570766Y-63417059D01*
X176452941Y-63299234D01*
X176360367Y-63160687D01*
X176296601Y-63006742D01*
X176264093Y-62843315D01*
X176264093Y-62676685D01*
X176296601Y-62513258D01*
X176360367Y-62359313D01*
X176452941Y-62220766D01*
X176570766Y-62102941D01*
X176709313Y-62010367D01*
X176863258Y-61946601D01*
X177026685Y-61914093D01*
X177193315Y-61914093D01*
X177356742Y-61946601D01*
G37*
G36*
X179896742Y-61946601D02*
G01*
X180050687Y-62010367D01*
X180189234Y-62102941D01*
X180307059Y-62220766D01*
X180399633Y-62359313D01*
X180463399Y-62513258D01*
X180495907Y-62676685D01*
X180495907Y-62843315D01*
X180463399Y-63006742D01*
X180399633Y-63160687D01*
X180307059Y-63299234D01*
X180189234Y-63417059D01*
X180050687Y-63509633D01*
X179896742Y-63573399D01*
X179733315Y-63605907D01*
X179566685Y-63605907D01*
X179403258Y-63573399D01*
X179249313Y-63509633D01*
X179110766Y-63417059D01*
X178992941Y-63299234D01*
X178900367Y-63160687D01*
X178836601Y-63006742D01*
X178804093Y-62843315D01*
X178804093Y-62676685D01*
X178836601Y-62513258D01*
X178900367Y-62359313D01*
X178992941Y-62220766D01*
X179110766Y-62102941D01*
X179249313Y-62010367D01*
X179403258Y-61946601D01*
X179566685Y-61914093D01*
X179733315Y-61914093D01*
X179896742Y-61946601D01*
G37*
G36*
X154612228Y-60914448D02*
G01*
X154757117Y-60974463D01*
X154887515Y-61061592D01*
X154998408Y-61172485D01*
X155085537Y-61302883D01*
X155145552Y-61447772D01*
X155176148Y-61601586D01*
X155176148Y-61758414D01*
X155145552Y-61912228D01*
X155085537Y-62057117D01*
X154998408Y-62187515D01*
X154887515Y-62298408D01*
X154757117Y-62385537D01*
X154612228Y-62445552D01*
X154458414Y-62476148D01*
X154301586Y-62476148D01*
X154147772Y-62445552D01*
X154002883Y-62385537D01*
X153872485Y-62298408D01*
X153761592Y-62187515D01*
X153674463Y-62057117D01*
X153614448Y-61912228D01*
X153583852Y-61758414D01*
X153583852Y-61601586D01*
X153614448Y-61447772D01*
X153674463Y-61302883D01*
X153761592Y-61172485D01*
X153872485Y-61061592D01*
X154002883Y-60974463D01*
X154147772Y-60914448D01*
X154301586Y-60883852D01*
X154458414Y-60883852D01*
X154612228Y-60914448D01*
G37*
G36*
X137793125Y-58658010D02*
G01*
X137801782Y-58660162D01*
X137811059Y-58660893D01*
X137892944Y-58682833D01*
X137976741Y-58703673D01*
X137983818Y-58707183D01*
X137988457Y-58708426D01*
X138066395Y-58748137D01*
X138146247Y-58787741D01*
X138149929Y-58790700D01*
X138151376Y-58791438D01*
X138222826Y-58849297D01*
X138293718Y-58906282D01*
X138350727Y-58977205D01*
X138408561Y-59048623D01*
X138409297Y-59050069D01*
X138412259Y-59053753D01*
X138451880Y-59133641D01*
X138491573Y-59211542D01*
X138492815Y-59216178D01*
X138496327Y-59223259D01*
X138517175Y-59307093D01*
X138539106Y-59388940D01*
X138539835Y-59398212D01*
X138541990Y-59406875D01*
X138550000Y-59525000D01*
X138550000Y-61275000D01*
X138541990Y-61393125D01*
X138539835Y-61401788D01*
X138539106Y-61411059D01*
X138517178Y-61492892D01*
X138496327Y-61576741D01*
X138492814Y-61583822D01*
X138491573Y-61588457D01*
X138451898Y-61666321D01*
X138412259Y-61746247D01*
X138409296Y-61749932D01*
X138408561Y-61751376D01*
X138350837Y-61822658D01*
X138293718Y-61893718D01*
X138222658Y-61950837D01*
X138151376Y-62008561D01*
X138149932Y-62009296D01*
X138146247Y-62012259D01*
X138066321Y-62051898D01*
X137988457Y-62091573D01*
X137983822Y-62092814D01*
X137976741Y-62096327D01*
X137892892Y-62117178D01*
X137811059Y-62139106D01*
X137801788Y-62139835D01*
X137793125Y-62141990D01*
X137675000Y-62150000D01*
X135925000Y-62150000D01*
X135806875Y-62141990D01*
X135798212Y-62139835D01*
X135788940Y-62139106D01*
X135707093Y-62117175D01*
X135623259Y-62096327D01*
X135616178Y-62092815D01*
X135611542Y-62091573D01*
X135533641Y-62051880D01*
X135453753Y-62012259D01*
X135450069Y-62009297D01*
X135448623Y-62008561D01*
X135377205Y-61950727D01*
X135306282Y-61893718D01*
X135249297Y-61822826D01*
X135191438Y-61751376D01*
X135190700Y-61749929D01*
X135187741Y-61746247D01*
X135148137Y-61666395D01*
X135108426Y-61588457D01*
X135107183Y-61583818D01*
X135103673Y-61576741D01*
X135082833Y-61492944D01*
X135060893Y-61411059D01*
X135060162Y-61401782D01*
X135058010Y-61393125D01*
X135050000Y-61275000D01*
X135050000Y-59525000D01*
X135058010Y-59406875D01*
X135060162Y-59398218D01*
X135060893Y-59388940D01*
X135082837Y-59307041D01*
X135103673Y-59223259D01*
X135107182Y-59216182D01*
X135108426Y-59211542D01*
X135148156Y-59133567D01*
X135187741Y-59053753D01*
X135190699Y-59050072D01*
X135191438Y-59048623D01*
X135249406Y-58977037D01*
X135306282Y-58906282D01*
X135377037Y-58849406D01*
X135448623Y-58791438D01*
X135450072Y-58790699D01*
X135453753Y-58787741D01*
X135533567Y-58748156D01*
X135611542Y-58708426D01*
X135616182Y-58707182D01*
X135623259Y-58703673D01*
X135707041Y-58682837D01*
X135788940Y-58660893D01*
X135798218Y-58660162D01*
X135806875Y-58658010D01*
X135925000Y-58650000D01*
X137675000Y-58650000D01*
X137793125Y-58658010D01*
G37*
G36*
X169532228Y-57244448D02*
G01*
X169677117Y-57304463D01*
X169807515Y-57391592D01*
X169918408Y-57502485D01*
X170005537Y-57632883D01*
X170065552Y-57777772D01*
X170096148Y-57931586D01*
X170096148Y-58088414D01*
X170065552Y-58242228D01*
X170005537Y-58387117D01*
X169918408Y-58517515D01*
X169807515Y-58628408D01*
X169677117Y-58715537D01*
X169532228Y-58775552D01*
X169378414Y-58806148D01*
X169221586Y-58806148D01*
X169067772Y-58775552D01*
X168922883Y-58715537D01*
X168792485Y-58628408D01*
X168681592Y-58517515D01*
X168594463Y-58387117D01*
X168534448Y-58242228D01*
X168503852Y-58088414D01*
X168503852Y-57931586D01*
X168534448Y-57777772D01*
X168594463Y-57632883D01*
X168681592Y-57502485D01*
X168792485Y-57391592D01*
X168922883Y-57304463D01*
X169067772Y-57244448D01*
X169221586Y-57213852D01*
X169378414Y-57213852D01*
X169532228Y-57244448D01*
G37*
G36*
X172032228Y-57244448D02*
G01*
X172177117Y-57304463D01*
X172307515Y-57391592D01*
X172418408Y-57502485D01*
X172505537Y-57632883D01*
X172565552Y-57777772D01*
X172596148Y-57931586D01*
X172596148Y-58088414D01*
X172565552Y-58242228D01*
X172505537Y-58387117D01*
X172418408Y-58517515D01*
X172307515Y-58628408D01*
X172177117Y-58715537D01*
X172032228Y-58775552D01*
X171878414Y-58806148D01*
X171721586Y-58806148D01*
X171567772Y-58775552D01*
X171422883Y-58715537D01*
X171292485Y-58628408D01*
X171181592Y-58517515D01*
X171094463Y-58387117D01*
X171034448Y-58242228D01*
X171003852Y-58088414D01*
X171003852Y-57931586D01*
X171034448Y-57777772D01*
X171094463Y-57632883D01*
X171181592Y-57502485D01*
X171292485Y-57391592D01*
X171422883Y-57304463D01*
X171567772Y-57244448D01*
X171721586Y-57213852D01*
X171878414Y-57213852D01*
X172032228Y-57244448D01*
G37*
G36*
X134701663Y-53965495D02*
G01*
X134710683Y-53968484D01*
X134716807Y-53969174D01*
X134788961Y-53994422D01*
X134866964Y-54020269D01*
X134872388Y-54023614D01*
X134875247Y-54024615D01*
X134941422Y-54066195D01*
X135015177Y-54111688D01*
X135138312Y-54234823D01*
X135183823Y-54308609D01*
X135225384Y-54374752D01*
X135226383Y-54377609D01*
X135229731Y-54383036D01*
X135255592Y-54461083D01*
X135280825Y-54533193D01*
X135281514Y-54539311D01*
X135284505Y-54548337D01*
X135300000Y-54700000D01*
X135300000Y-56700000D01*
X135284505Y-56851663D01*
X135281514Y-56860688D01*
X135280825Y-56866807D01*
X135255595Y-56938907D01*
X135229731Y-57016964D01*
X135226383Y-57022391D01*
X135225384Y-57025247D01*
X135183857Y-57091336D01*
X135138312Y-57165177D01*
X135015177Y-57288312D01*
X134941336Y-57333857D01*
X134875247Y-57375384D01*
X134872391Y-57376383D01*
X134866964Y-57379731D01*
X134788897Y-57405599D01*
X134716806Y-57430825D01*
X134710688Y-57431514D01*
X134701663Y-57434505D01*
X134550000Y-57450000D01*
X133050000Y-57450000D01*
X132898337Y-57434505D01*
X132889312Y-57431514D01*
X132883192Y-57430825D01*
X132811073Y-57405589D01*
X132733036Y-57379731D01*
X132727609Y-57376383D01*
X132724752Y-57375384D01*
X132658609Y-57333823D01*
X132584823Y-57288312D01*
X132461688Y-57165177D01*
X132416195Y-57091422D01*
X132374615Y-57025247D01*
X132373614Y-57022388D01*
X132370269Y-57016964D01*
X132344418Y-56938951D01*
X132319174Y-56866806D01*
X132318484Y-56860684D01*
X132315495Y-56851663D01*
X132300000Y-56700000D01*
X132300000Y-54700000D01*
X132315495Y-54548337D01*
X132318483Y-54539316D01*
X132319174Y-54533192D01*
X132344428Y-54461019D01*
X132370269Y-54383036D01*
X132373613Y-54377613D01*
X132374615Y-54374752D01*
X132416229Y-54308522D01*
X132461688Y-54234823D01*
X132584823Y-54111688D01*
X132658522Y-54066229D01*
X132724752Y-54024615D01*
X132727613Y-54023613D01*
X132733036Y-54020269D01*
X132811029Y-53994425D01*
X132883193Y-53969174D01*
X132889316Y-53968484D01*
X132898337Y-53965495D01*
X133050000Y-53950000D01*
X134550000Y-53950000D01*
X134701663Y-53965495D01*
G37*
G36*
X141550000Y-57450000D02*
G01*
X138050000Y-57450000D01*
X138050000Y-53950000D01*
X141550000Y-53950000D01*
X141550000Y-57450000D01*
G37*
G36*
X157140000Y-55500000D02*
G01*
X155440000Y-55500000D01*
X155440000Y-53800000D01*
X157140000Y-53800000D01*
X157140000Y-55500000D01*
G37*
G36*
X172900000Y-55500000D02*
G01*
X171200000Y-55500000D01*
X171200000Y-53800000D01*
X172900000Y-53800000D01*
X172900000Y-55500000D01*
G37*
G36*
X159076742Y-53836601D02*
G01*
X159230687Y-53900367D01*
X159369234Y-53992941D01*
X159487059Y-54110766D01*
X159579633Y-54249313D01*
X159643399Y-54403258D01*
X159675907Y-54566685D01*
X159675907Y-54733315D01*
X159643399Y-54896742D01*
X159579633Y-55050687D01*
X159487059Y-55189234D01*
X159369234Y-55307059D01*
X159230687Y-55399633D01*
X159076742Y-55463399D01*
X158913315Y-55495907D01*
X158746685Y-55495907D01*
X158583258Y-55463399D01*
X158429313Y-55399633D01*
X158290766Y-55307059D01*
X158172941Y-55189234D01*
X158080367Y-55050687D01*
X158016601Y-54896742D01*
X157984093Y-54733315D01*
X157984093Y-54566685D01*
X158016601Y-54403258D01*
X158080367Y-54249313D01*
X158172941Y-54110766D01*
X158290766Y-53992941D01*
X158429313Y-53900367D01*
X158583258Y-53836601D01*
X158746685Y-53804093D01*
X158913315Y-53804093D01*
X159076742Y-53836601D01*
G37*
G36*
X161616742Y-53836601D02*
G01*
X161770687Y-53900367D01*
X161909234Y-53992941D01*
X162027059Y-54110766D01*
X162119633Y-54249313D01*
X162183399Y-54403258D01*
X162215907Y-54566685D01*
X162215907Y-54733315D01*
X162183399Y-54896742D01*
X162119633Y-55050687D01*
X162027059Y-55189234D01*
X161909234Y-55307059D01*
X161770687Y-55399633D01*
X161616742Y-55463399D01*
X161453315Y-55495907D01*
X161286685Y-55495907D01*
X161123258Y-55463399D01*
X160969313Y-55399633D01*
X160830766Y-55307059D01*
X160712941Y-55189234D01*
X160620367Y-55050687D01*
X160556601Y-54896742D01*
X160524093Y-54733315D01*
X160524093Y-54566685D01*
X160556601Y-54403258D01*
X160620367Y-54249313D01*
X160712941Y-54110766D01*
X160830766Y-53992941D01*
X160969313Y-53900367D01*
X161123258Y-53836601D01*
X161286685Y-53804093D01*
X161453315Y-53804093D01*
X161616742Y-53836601D01*
G37*
G36*
X164156742Y-53836601D02*
G01*
X164310687Y-53900367D01*
X164449234Y-53992941D01*
X164567059Y-54110766D01*
X164659633Y-54249313D01*
X164723399Y-54403258D01*
X164755907Y-54566685D01*
X164755907Y-54733315D01*
X164723399Y-54896742D01*
X164659633Y-55050687D01*
X164567059Y-55189234D01*
X164449234Y-55307059D01*
X164310687Y-55399633D01*
X164156742Y-55463399D01*
X163993315Y-55495907D01*
X163826685Y-55495907D01*
X163663258Y-55463399D01*
X163509313Y-55399633D01*
X163370766Y-55307059D01*
X163252941Y-55189234D01*
X163160367Y-55050687D01*
X163096601Y-54896742D01*
X163064093Y-54733315D01*
X163064093Y-54566685D01*
X163096601Y-54403258D01*
X163160367Y-54249313D01*
X163252941Y-54110766D01*
X163370766Y-53992941D01*
X163509313Y-53900367D01*
X163663258Y-53836601D01*
X163826685Y-53804093D01*
X163993315Y-53804093D01*
X164156742Y-53836601D01*
G37*
G36*
X166696742Y-53836601D02*
G01*
X166850687Y-53900367D01*
X166989234Y-53992941D01*
X167107059Y-54110766D01*
X167199633Y-54249313D01*
X167263399Y-54403258D01*
X167295907Y-54566685D01*
X167295907Y-54733315D01*
X167263399Y-54896742D01*
X167199633Y-55050687D01*
X167107059Y-55189234D01*
X166989234Y-55307059D01*
X166850687Y-55399633D01*
X166696742Y-55463399D01*
X166533315Y-55495907D01*
X166366685Y-55495907D01*
X166203258Y-55463399D01*
X166049313Y-55399633D01*
X165910766Y-55307059D01*
X165792941Y-55189234D01*
X165700367Y-55050687D01*
X165636601Y-54896742D01*
X165604093Y-54733315D01*
X165604093Y-54566685D01*
X165636601Y-54403258D01*
X165700367Y-54249313D01*
X165792941Y-54110766D01*
X165910766Y-53992941D01*
X166049313Y-53900367D01*
X166203258Y-53836601D01*
X166366685Y-53804093D01*
X166533315Y-53804093D01*
X166696742Y-53836601D01*
G37*
G36*
X174836742Y-53836601D02*
G01*
X174990687Y-53900367D01*
X175129234Y-53992941D01*
X175247059Y-54110766D01*
X175339633Y-54249313D01*
X175403399Y-54403258D01*
X175435907Y-54566685D01*
X175435907Y-54733315D01*
X175403399Y-54896742D01*
X175339633Y-55050687D01*
X175247059Y-55189234D01*
X175129234Y-55307059D01*
X174990687Y-55399633D01*
X174836742Y-55463399D01*
X174673315Y-55495907D01*
X174506685Y-55495907D01*
X174343258Y-55463399D01*
X174189313Y-55399633D01*
X174050766Y-55307059D01*
X173932941Y-55189234D01*
X173840367Y-55050687D01*
X173776601Y-54896742D01*
X173744093Y-54733315D01*
X173744093Y-54566685D01*
X173776601Y-54403258D01*
X173840367Y-54249313D01*
X173932941Y-54110766D01*
X174050766Y-53992941D01*
X174189313Y-53900367D01*
X174343258Y-53836601D01*
X174506685Y-53804093D01*
X174673315Y-53804093D01*
X174836742Y-53836601D01*
G37*
G36*
X177376742Y-53836601D02*
G01*
X177530687Y-53900367D01*
X177669234Y-53992941D01*
X177787059Y-54110766D01*
X177879633Y-54249313D01*
X177943399Y-54403258D01*
X177975907Y-54566685D01*
X177975907Y-54733315D01*
X177943399Y-54896742D01*
X177879633Y-55050687D01*
X177787059Y-55189234D01*
X177669234Y-55307059D01*
X177530687Y-55399633D01*
X177376742Y-55463399D01*
X177213315Y-55495907D01*
X177046685Y-55495907D01*
X176883258Y-55463399D01*
X176729313Y-55399633D01*
X176590766Y-55307059D01*
X176472941Y-55189234D01*
X176380367Y-55050687D01*
X176316601Y-54896742D01*
X176284093Y-54733315D01*
X176284093Y-54566685D01*
X176316601Y-54403258D01*
X176380367Y-54249313D01*
X176472941Y-54110766D01*
X176590766Y-53992941D01*
X176729313Y-53900367D01*
X176883258Y-53836601D01*
X177046685Y-53804093D01*
X177213315Y-53804093D01*
X177376742Y-53836601D01*
G37*
G36*
X179916742Y-53836601D02*
G01*
X180070687Y-53900367D01*
X180209234Y-53992941D01*
X180327059Y-54110766D01*
X180419633Y-54249313D01*
X180483399Y-54403258D01*
X180515907Y-54566685D01*
X180515907Y-54733315D01*
X180483399Y-54896742D01*
X180419633Y-55050687D01*
X180327059Y-55189234D01*
X180209234Y-55307059D01*
X180070687Y-55399633D01*
X179916742Y-55463399D01*
X179753315Y-55495907D01*
X179586685Y-55495907D01*
X179423258Y-55463399D01*
X179269313Y-55399633D01*
X179130766Y-55307059D01*
X179012941Y-55189234D01*
X178920367Y-55050687D01*
X178856601Y-54896742D01*
X178824093Y-54733315D01*
X178824093Y-54566685D01*
X178856601Y-54403258D01*
X178920367Y-54249313D01*
X179012941Y-54110766D01*
X179130766Y-53992941D01*
X179269313Y-53900367D01*
X179423258Y-53836601D01*
X179586685Y-53804093D01*
X179753315Y-53804093D01*
X179916742Y-53836601D01*
G37*
G36*
X182456742Y-53836601D02*
G01*
X182610687Y-53900367D01*
X182749234Y-53992941D01*
X182867059Y-54110766D01*
X182959633Y-54249313D01*
X183023399Y-54403258D01*
X183055907Y-54566685D01*
X183055907Y-54733315D01*
X183023399Y-54896742D01*
X182959633Y-55050687D01*
X182867059Y-55189234D01*
X182749234Y-55307059D01*
X182610687Y-55399633D01*
X182456742Y-55463399D01*
X182293315Y-55495907D01*
X182126685Y-55495907D01*
X181963258Y-55463399D01*
X181809313Y-55399633D01*
X181670766Y-55307059D01*
X181552941Y-55189234D01*
X181460367Y-55050687D01*
X181396601Y-54896742D01*
X181364093Y-54733315D01*
X181364093Y-54566685D01*
X181396601Y-54403258D01*
X181460367Y-54249313D01*
X181552941Y-54110766D01*
X181670766Y-53992941D01*
X181809313Y-53900367D01*
X181963258Y-53836601D01*
X182126685Y-53804093D01*
X182293315Y-53804093D01*
X182456742Y-53836601D01*
G37*
G36*
X176332228Y-48244448D02*
G01*
X176477117Y-48304463D01*
X176607515Y-48391592D01*
X176718408Y-48502485D01*
X176805537Y-48632883D01*
X176865552Y-48777772D01*
X176896148Y-48931586D01*
X176896148Y-49088414D01*
X176865552Y-49242228D01*
X176805537Y-49387117D01*
X176718408Y-49517515D01*
X176607515Y-49628408D01*
X176477117Y-49715537D01*
X176332228Y-49775552D01*
X176178414Y-49806148D01*
X176021586Y-49806148D01*
X175867772Y-49775552D01*
X175722883Y-49715537D01*
X175592485Y-49628408D01*
X175481592Y-49517515D01*
X175394463Y-49387117D01*
X175334448Y-49242228D01*
X175303852Y-49088414D01*
X175303852Y-48931586D01*
X175334448Y-48777772D01*
X175394463Y-48632883D01*
X175481592Y-48502485D01*
X175592485Y-48391592D01*
X175722883Y-48304463D01*
X175867772Y-48244448D01*
X176021586Y-48213852D01*
X176178414Y-48213852D01*
X176332228Y-48244448D01*
G37*
G36*
X170452228Y-48194448D02*
G01*
X170597117Y-48254463D01*
X170727515Y-48341592D01*
X170838408Y-48452485D01*
X170925537Y-48582883D01*
X170985552Y-48727772D01*
X171016148Y-48881586D01*
X171016148Y-49038414D01*
X170985552Y-49192228D01*
X170925537Y-49337117D01*
X170838408Y-49467515D01*
X170727515Y-49578408D01*
X170597117Y-49665537D01*
X170452228Y-49725552D01*
X170298414Y-49756148D01*
X170141586Y-49756148D01*
X169987772Y-49725552D01*
X169842883Y-49665537D01*
X169712485Y-49578408D01*
X169601592Y-49467515D01*
X169514463Y-49337117D01*
X169454448Y-49192228D01*
X169423852Y-49038414D01*
X169423852Y-48881586D01*
X169454448Y-48727772D01*
X169514463Y-48582883D01*
X169601592Y-48452485D01*
X169712485Y-48341592D01*
X169842883Y-48254463D01*
X169987772Y-48194448D01*
X170141586Y-48163852D01*
X170298414Y-48163852D01*
X170452228Y-48194448D01*
G37*
G36*
X133928567Y-46798275D02*
G01*
X134072732Y-46857991D01*
X134202477Y-46944684D01*
X134312816Y-47055023D01*
X134399509Y-47184768D01*
X134459225Y-47328933D01*
X134489667Y-47481978D01*
X134489667Y-47638022D01*
X134459225Y-47791067D01*
X134399509Y-47935232D01*
X134312816Y-48064977D01*
X134202477Y-48175316D01*
X134072732Y-48262009D01*
X133928567Y-48321725D01*
X133775522Y-48352167D01*
X133619478Y-48352167D01*
X133466433Y-48321725D01*
X133322268Y-48262009D01*
X133192523Y-48175316D01*
X133082184Y-48064977D01*
X132995491Y-47935232D01*
X132935775Y-47791067D01*
X132905333Y-47638022D01*
X132905333Y-47481978D01*
X132935775Y-47328933D01*
X132995491Y-47184768D01*
X133082184Y-47055023D01*
X133192523Y-46944684D01*
X133322268Y-46857991D01*
X133466433Y-46798275D01*
X133619478Y-46767833D01*
X133775522Y-46767833D01*
X133928567Y-46798275D01*
G37*
G36*
X161153567Y-46798275D02*
G01*
X161297732Y-46857991D01*
X161427477Y-46944684D01*
X161537816Y-47055023D01*
X161624509Y-47184768D01*
X161684225Y-47328933D01*
X161714667Y-47481978D01*
X161714667Y-47638022D01*
X161684225Y-47791067D01*
X161624509Y-47935232D01*
X161537816Y-48064977D01*
X161427477Y-48175316D01*
X161297732Y-48262009D01*
X161153567Y-48321725D01*
X161000522Y-48352167D01*
X160844478Y-48352167D01*
X160691433Y-48321725D01*
X160547268Y-48262009D01*
X160417523Y-48175316D01*
X160307184Y-48064977D01*
X160220491Y-47935232D01*
X160160775Y-47791067D01*
X160130333Y-47638022D01*
X160130333Y-47481978D01*
X160160775Y-47328933D01*
X160220491Y-47184768D01*
X160307184Y-47055023D01*
X160417523Y-46944684D01*
X160547268Y-46857991D01*
X160691433Y-46798275D01*
X160844478Y-46767833D01*
X161000522Y-46767833D01*
X161153567Y-46798275D01*
G37*
G36*
X128836790Y-45960393D02*
G01*
X129000952Y-46013733D01*
X129154748Y-46092096D01*
X129294393Y-46193553D01*
X129416447Y-46315607D01*
X129517904Y-46455252D01*
X129596267Y-46609048D01*
X129649607Y-46773210D01*
X129676609Y-46943695D01*
X129676609Y-47116305D01*
X129649607Y-47286790D01*
X129596267Y-47450952D01*
X129517904Y-47604748D01*
X129416447Y-47744393D01*
X129294393Y-47866447D01*
X129154748Y-47967904D01*
X129000952Y-48046267D01*
X128836790Y-48099607D01*
X128666305Y-48126609D01*
X128493695Y-48126609D01*
X128323210Y-48099607D01*
X128159048Y-48046267D01*
X128005252Y-47967904D01*
X127865607Y-47866447D01*
X127743553Y-47744393D01*
X127642096Y-47604748D01*
X127563733Y-47450952D01*
X127510393Y-47286790D01*
X127483391Y-47116305D01*
X127483391Y-46943695D01*
X127510393Y-46773210D01*
X127563733Y-46609048D01*
X127642096Y-46455252D01*
X127743553Y-46315607D01*
X127865607Y-46193553D01*
X128005252Y-46092096D01*
X128159048Y-46013733D01*
X128323210Y-45960393D01*
X128493695Y-45933391D01*
X128666305Y-45933391D01*
X128836790Y-45960393D01*
G37*
G36*
X181886790Y-45960393D02*
G01*
X182050952Y-46013733D01*
X182204748Y-46092096D01*
X182344393Y-46193553D01*
X182466447Y-46315607D01*
X182567904Y-46455252D01*
X182646267Y-46609048D01*
X182699607Y-46773210D01*
X182726609Y-46943695D01*
X182726609Y-47116305D01*
X182699607Y-47286790D01*
X182646267Y-47450952D01*
X182567904Y-47604748D01*
X182466447Y-47744393D01*
X182344393Y-47866447D01*
X182204748Y-47967904D01*
X182050952Y-48046267D01*
X181886790Y-48099607D01*
X181716305Y-48126609D01*
X181543695Y-48126609D01*
X181373210Y-48099607D01*
X181209048Y-48046267D01*
X181055252Y-47967904D01*
X180915607Y-47866447D01*
X180793553Y-47744393D01*
X180692096Y-47604748D01*
X180613733Y-47450952D01*
X180560393Y-47286790D01*
X180533391Y-47116305D01*
X180533391Y-46943695D01*
X180560393Y-46773210D01*
X180613733Y-46609048D01*
X180692096Y-46455252D01*
X180793553Y-46315607D01*
X180915607Y-46193553D01*
X181055252Y-46092096D01*
X181209048Y-46013733D01*
X181373210Y-45960393D01*
X181543695Y-45933391D01*
X181716305Y-45933391D01*
X181886790Y-45960393D01*
G37*
G36*
X176332228Y-45744448D02*
G01*
X176477117Y-45804463D01*
X176607515Y-45891592D01*
X176718408Y-46002485D01*
X176805537Y-46132883D01*
X176865552Y-46277772D01*
X176896148Y-46431586D01*
X176896148Y-46588414D01*
X176865552Y-46742228D01*
X176805537Y-46887117D01*
X176718408Y-47017515D01*
X176607515Y-47128408D01*
X176477117Y-47215537D01*
X176332228Y-47275552D01*
X176178414Y-47306148D01*
X176021586Y-47306148D01*
X175867772Y-47275552D01*
X175722883Y-47215537D01*
X175592485Y-47128408D01*
X175481592Y-47017515D01*
X175394463Y-46887117D01*
X175334448Y-46742228D01*
X175303852Y-46588414D01*
X175303852Y-46431586D01*
X175334448Y-46277772D01*
X175394463Y-46132883D01*
X175481592Y-46002485D01*
X175592485Y-45891592D01*
X175722883Y-45804463D01*
X175867772Y-45744448D01*
X176021586Y-45713852D01*
X176178414Y-45713852D01*
X176332228Y-45744448D01*
G37*
G36*
X170452228Y-45694448D02*
G01*
X170597117Y-45754463D01*
X170727515Y-45841592D01*
X170838408Y-45952485D01*
X170925537Y-46082883D01*
X170985552Y-46227772D01*
X171016148Y-46381586D01*
X171016148Y-46538414D01*
X170985552Y-46692228D01*
X170925537Y-46837117D01*
X170838408Y-46967515D01*
X170727515Y-47078408D01*
X170597117Y-47165537D01*
X170452228Y-47225552D01*
X170298414Y-47256148D01*
X170141586Y-47256148D01*
X169987772Y-47225552D01*
X169842883Y-47165537D01*
X169712485Y-47078408D01*
X169601592Y-46967515D01*
X169514463Y-46837117D01*
X169454448Y-46692228D01*
X169423852Y-46538414D01*
X169423852Y-46381586D01*
X169454448Y-46227772D01*
X169514463Y-46082883D01*
X169601592Y-45952485D01*
X169712485Y-45841592D01*
X169842883Y-45754463D01*
X169987772Y-45694448D01*
X170141586Y-45663852D01*
X170298414Y-45663852D01*
X170452228Y-45694448D01*
G37*
M02*
