%TF.GenerationSoftware,KiCad,Pcbnew,9.0.5*%
%TF.CreationDate,2025-12-09T00:32:49+00:00*%
%TF.ProjectId,Controlo_Luminosidade,436f6e74-726f-46c6-9f5f-4c756d696e6f,rev?*%
%TF.SameCoordinates,Original*%
%TF.FileFunction,Copper,L3,Inr*%
%TF.FilePolarity,Positive*%
%FSLAX46Y46*%
G04 Gerber Fmt 4.6, Leading zero omitted, Abs format (unit mm)*
G04 Created by KiCad (PCBNEW 9.0.5) date 2025-12-09 00:32:49*
%MOMM*%
%LPD*%
G01*
G04 APERTURE LIST*
G04 Aperture macros list*
%AMRoundRect*
0 Rectangle with rounded corners*
0 $1 Rounding radius*
0 $2 $3 $4 $5 $6 $7 $8 $9 X,Y pos of 4 corners*
0 Add a 4 corners polygon primitive as box body*
4,1,4,$2,$3,$4,$5,$6,$7,$8,$9,$2,$3,0*
0 Add four circle primitives for the rounded corners*
1,1,$1+$1,$2,$3*
1,1,$1+$1,$4,$5*
1,1,$1+$1,$6,$7*
1,1,$1+$1,$8,$9*
0 Add four rect primitives between the rounded corners*
20,1,$1+$1,$2,$3,$4,$5,0*
20,1,$1+$1,$4,$5,$6,$7,0*
20,1,$1+$1,$6,$7,$8,$9,0*
20,1,$1+$1,$8,$9,$2,$3,0*%
G04 Aperture macros list end*
%TA.AperFunction,ComponentPad*%
%ADD10C,1.700000*%
%TD*%
%TA.AperFunction,ComponentPad*%
%ADD11R,1.700000X1.700000*%
%TD*%
%TA.AperFunction,ComponentPad*%
%ADD12C,1.600000*%
%TD*%
%TA.AperFunction,ComponentPad*%
%ADD13C,1.400000*%
%TD*%
%TA.AperFunction,ComponentPad*%
%ADD14C,2.000000*%
%TD*%
%TA.AperFunction,ComponentPad*%
%ADD15R,2.000000X2.000000*%
%TD*%
%TA.AperFunction,ComponentPad*%
%ADD16R,3.500000X3.500000*%
%TD*%
%TA.AperFunction,ComponentPad*%
%ADD17RoundRect,0.750000X1.000000X-0.750000X1.000000X0.750000X-1.000000X0.750000X-1.000000X-0.750000X0*%
%TD*%
%TA.AperFunction,ComponentPad*%
%ADD18RoundRect,0.875000X0.875000X-0.875000X0.875000X0.875000X-0.875000X0.875000X-0.875000X-0.875000X0*%
%TD*%
%TA.AperFunction,ComponentPad*%
%ADD19R,1.800000X1.800000*%
%TD*%
%TA.AperFunction,ComponentPad*%
%ADD20C,1.800000*%
%TD*%
%TA.AperFunction,ComponentPad*%
%ADD21RoundRect,0.750000X-0.750000X-1.000000X0.750000X-1.000000X0.750000X1.000000X-0.750000X1.000000X0*%
%TD*%
%TA.AperFunction,ComponentPad*%
%ADD22RoundRect,0.875000X-0.875000X-0.875000X0.875000X-0.875000X0.875000X0.875000X-0.875000X0.875000X0*%
%TD*%
%TA.AperFunction,ComponentPad*%
%ADD23RoundRect,0.250000X-0.550000X-0.550000X0.550000X-0.550000X0.550000X0.550000X-0.550000X0.550000X0*%
%TD*%
%TA.AperFunction,ComponentPad*%
%ADD24C,1.500000*%
%TD*%
%TA.AperFunction,ComponentPad*%
%ADD25O,1.905000X2.000000*%
%TD*%
%TA.AperFunction,ComponentPad*%
%ADD26R,1.905000X2.000000*%
%TD*%
G04 APERTURE END LIST*
D10*
%TO.N,/SERVO1*%
%TO.C,J7*%
X163850000Y-111960000D03*
%TO.N,GND*%
X166390000Y-111960000D03*
D11*
%TO.N,+5V*%
X168930000Y-111960000D03*
%TD*%
D12*
%TO.N,GND*%
%TO.C,C15*%
X166250000Y-108825000D03*
%TO.N,+5V*%
X168750000Y-108825000D03*
%TD*%
D10*
%TO.N,GND*%
%TO.C,J13*%
X128130000Y-68180000D03*
%TO.N,+5V*%
X130670000Y-68180000D03*
%TO.N,/RX_ESP-32*%
X133210000Y-68180000D03*
D11*
%TO.N,/RX_ATMEGA*%
X135750000Y-68180000D03*
%TD*%
D13*
%TO.N,/RST-AVR*%
%TO.C,R1*%
X148980000Y-70620000D03*
%TO.N,+5V*%
X148980000Y-65540000D03*
%TD*%
D14*
%TO.N,GND*%
%TO.C,BZ1*%
X181975000Y-73475000D03*
D15*
%TO.N,/BUZZER*%
X174375000Y-73475000D03*
%TD*%
D10*
%TO.N,GND*%
%TO.C,J10*%
X168825000Y-88375000D03*
%TO.N,Net-(J10-Pin_2)*%
X168825000Y-85835000D03*
D11*
%TO.N,+5V*%
X168825000Y-83295000D03*
%TD*%
D12*
%TO.N,GND*%
%TO.C,C10*%
X127830000Y-79660000D03*
%TO.N,+5V*%
X130330000Y-79660000D03*
%TD*%
%TO.N,+5V*%
%TO.C,C14*%
X175450000Y-108425000D03*
%TO.N,GND*%
X177950000Y-108425000D03*
%TD*%
D13*
%TO.N,Net-(D1-K)*%
%TO.C,R2*%
X141260000Y-107600000D03*
%TO.N,GND*%
X136180000Y-107600000D03*
%TD*%
D11*
%TO.N,+5V*%
%TO.C,J4*%
X135130000Y-85400000D03*
D10*
%TO.N,/ECHO2*%
X132590000Y-85400000D03*
%TO.N,/TRIG2*%
X130050000Y-85400000D03*
%TO.N,GND*%
X127510000Y-85400000D03*
%TD*%
D12*
%TO.N,+5V*%
%TO.C,C16*%
X163190000Y-93660000D03*
%TO.N,GND*%
X165690000Y-93660000D03*
%TD*%
D13*
%TO.N,/RX_ESP-32*%
%TO.C,R9*%
X140340000Y-75030000D03*
%TO.N,GND*%
X145420000Y-75030000D03*
%TD*%
D16*
%TO.N,+5V*%
%TO.C,J2*%
X140950000Y-115675000D03*
D17*
%TO.N,Net-(Q1-D)*%
X140950000Y-121675000D03*
D18*
%TO.N,unconnected-(J2-Pad3)*%
X145650000Y-118675000D03*
%TD*%
D12*
%TO.N,+5V*%
%TO.C,C8*%
X156570000Y-58380000D03*
%TO.N,GND*%
X156570000Y-60880000D03*
%TD*%
%TO.N,Net-(U1-AREF)*%
%TO.C,C6*%
X163170000Y-88880000D03*
%TO.N,GND*%
X165670000Y-88880000D03*
%TD*%
%TO.N,+5V*%
%TO.C,C11*%
X139260000Y-84200000D03*
%TO.N,GND*%
X141760000Y-84200000D03*
%TD*%
D19*
%TO.N,Net-(D1-K)*%
%TO.C,D1*%
X143205000Y-103020000D03*
D20*
%TO.N,Net-(D1-A)*%
X145745000Y-103020000D03*
%TD*%
D12*
%TO.N,+5V*%
%TO.C,C12*%
X175250000Y-117025000D03*
%TO.N,GND*%
X177750000Y-117025000D03*
%TD*%
D16*
%TO.N,+5V*%
%TO.C,J1*%
X139800000Y-55700000D03*
D21*
%TO.N,GND*%
X133800000Y-55700000D03*
D22*
%TO.N,unconnected-(J1-Pad3)*%
X136800000Y-60400000D03*
%TD*%
D11*
%TO.N,+5V*%
%TO.C,U4*%
X179650000Y-65300000D03*
D10*
%TO.N,GND*%
X179650000Y-62760000D03*
%TO.N,/SDA*%
X177110000Y-65300000D03*
%TO.N,/SCL*%
X177110000Y-62760000D03*
%TD*%
D12*
%TO.N,/XTAL1*%
%TO.C,C4*%
X129200000Y-96690000D03*
%TO.N,GND*%
X126700000Y-96690000D03*
%TD*%
%TO.N,+5V*%
%TO.C,C2*%
X152950000Y-55700000D03*
%TO.N,GND*%
X152950000Y-58200000D03*
%TD*%
D11*
%TO.N,+5V*%
%TO.C,J5*%
X135720000Y-73780000D03*
D10*
%TO.N,/ECHO*%
X133180000Y-73780000D03*
%TO.N,/TRIG*%
X130640000Y-73780000D03*
%TO.N,GND*%
X128100000Y-73780000D03*
%TD*%
D12*
%TO.N,+5V*%
%TO.C,C5*%
X146390000Y-88590000D03*
%TO.N,GND*%
X143890000Y-88590000D03*
%TD*%
D13*
%TO.N,/TX_ATMEGA*%
%TO.C,R8*%
X145320000Y-71280000D03*
%TO.N,/RX_ESP-32*%
X140240000Y-71280000D03*
%TD*%
D10*
%TO.N,GND*%
%TO.C,J6*%
X169640000Y-100295000D03*
%TO.N,/RST-AVR*%
X169640000Y-97755000D03*
%TO.N,/MOSI*%
X172180000Y-100295000D03*
%TO.N,/SCK*%
X172180000Y-97755000D03*
%TO.N,+5V*%
X174720000Y-100295000D03*
D11*
%TO.N,/MISO*%
X174720000Y-97755000D03*
%TD*%
%TO.N,+5V*%
%TO.C,J12*%
X161975000Y-115850000D03*
D10*
%TO.N,/PD4{slash}SW1*%
X164515000Y-115850000D03*
%TO.N,GND*%
X167055000Y-115850000D03*
%TD*%
D11*
%TO.N,+5V*%
%TO.C,J11*%
X150700000Y-115850000D03*
D10*
%TO.N,/PD7{slash}SW2*%
X153240000Y-115850000D03*
%TO.N,GND*%
X155780000Y-115850000D03*
%TD*%
D11*
%TO.N,+5V*%
%TO.C,J8*%
X168890000Y-105550000D03*
D10*
%TO.N,GND*%
X166350000Y-105550000D03*
%TO.N,/SERVO2*%
X163810000Y-105550000D03*
%TD*%
D13*
%TO.N,/PB3{slash}GATE*%
%TO.C,R3*%
X126960000Y-117250000D03*
%TO.N,GND*%
X132040000Y-117250000D03*
%TD*%
D12*
%TO.N,/XTAL2*%
%TO.C,C3*%
X129200000Y-101630000D03*
%TO.N,GND*%
X126700000Y-101630000D03*
%TD*%
D11*
%TO.N,+5V*%
%TO.C,J9*%
X156290000Y-54650000D03*
D10*
%TO.N,/SCL*%
X158830000Y-54650000D03*
%TO.N,/SDA*%
X161370000Y-54650000D03*
%TO.N,GND*%
X163910000Y-54650000D03*
X166450000Y-54650000D03*
%TD*%
D11*
%TO.N,+5V*%
%TO.C,J3*%
X172050000Y-54650000D03*
D10*
%TO.N,/SCL*%
X174590000Y-54650000D03*
%TO.N,/SDA*%
X177130000Y-54650000D03*
%TO.N,+5V*%
X179670000Y-54650000D03*
%TO.N,GND*%
X182210000Y-54650000D03*
%TD*%
D12*
%TO.N,+5V*%
%TO.C,C1*%
X146900000Y-55700000D03*
%TO.N,GND*%
X146900000Y-58200000D03*
%TD*%
D23*
%TO.N,/RST-AVR*%
%TO.C,U1*%
X151265000Y-73350000D03*
D12*
%TO.N,/RX_ATMEGA*%
X151265000Y-75890000D03*
%TO.N,/TX_ATMEGA*%
X151265000Y-78430000D03*
%TO.N,/ECHO*%
X151265000Y-80970000D03*
%TO.N,/ECHO2*%
X151265000Y-83510000D03*
%TO.N,/PD4{slash}SW1*%
X151265000Y-86050000D03*
%TO.N,+5V*%
X151265000Y-88590000D03*
%TO.N,GND*%
X151265000Y-91130000D03*
%TO.N,/XTAL1*%
X151265000Y-93670000D03*
%TO.N,/XTAL2*%
X151265000Y-96210000D03*
%TO.N,/PB3{slash}GATE*%
X151265000Y-98750000D03*
%TO.N,Net-(D1-A)*%
X151265000Y-101290000D03*
%TO.N,/PD7{slash}SW2*%
X151265000Y-103830000D03*
%TO.N,unconnected-(U1-PB0-Pad14)*%
X151265000Y-106370000D03*
%TO.N,/SERVO1*%
X158885000Y-106370000D03*
%TO.N,/SERVO2*%
X158885000Y-103830000D03*
%TO.N,/MOSI*%
X158885000Y-101290000D03*
%TO.N,/MISO*%
X158885000Y-98750000D03*
%TO.N,/SCK*%
X158885000Y-96210000D03*
%TO.N,+5V*%
X158885000Y-93670000D03*
%TO.N,Net-(U1-AREF)*%
X158885000Y-91130000D03*
%TO.N,GND*%
X158885000Y-88590000D03*
%TO.N,/BUZZER*%
X158885000Y-86050000D03*
%TO.N,Net-(J10-Pin_2)*%
X158885000Y-83510000D03*
%TO.N,/TRIG*%
X158885000Y-80970000D03*
%TO.N,/TRIG2*%
X158885000Y-78430000D03*
%TO.N,/SDA*%
X158885000Y-75890000D03*
%TO.N,/SCL*%
X158885000Y-73350000D03*
%TD*%
%TO.N,+5V*%
%TO.C,C7*%
X171800000Y-58010000D03*
%TO.N,GND*%
X169300000Y-58010000D03*
%TD*%
%TO.N,+5V*%
%TO.C,C13*%
X171250000Y-119225000D03*
%TO.N,GND*%
X171250000Y-121725000D03*
%TD*%
D24*
%TO.N,/XTAL2*%
%TO.C,Y1*%
X135110000Y-101490000D03*
%TO.N,/XTAL1*%
X135110000Y-96610000D03*
%TD*%
D13*
%TO.N,/SCL*%
%TO.C,R7*%
X162830000Y-72440000D03*
%TO.N,+5V*%
X162830000Y-67360000D03*
%TD*%
D25*
%TO.N,GND*%
%TO.C,Q1*%
X133805000Y-112750000D03*
%TO.N,Net-(Q1-D)*%
X131265000Y-112750000D03*
D26*
%TO.N,/PB3{slash}GATE*%
X128725000Y-112750000D03*
%TD*%
D13*
%TO.N,/SDA*%
%TO.C,R6*%
X167880000Y-75710000D03*
%TO.N,+5V*%
X167880000Y-70630000D03*
%TD*%
D12*
%TO.N,GND*%
%TO.C,C17*%
X128410000Y-90730000D03*
%TO.N,+5V*%
X130910000Y-90730000D03*
%TD*%
%TO.N,+5V*%
%TO.C,C18*%
X137520000Y-89420000D03*
%TO.N,GND*%
X140020000Y-89420000D03*
%TD*%
M02*
